<svg width="16" height="16" viewBox="0 0 16 16" fill="none" xmlns="http://www.w3.org/2000/svg">
<path fill-rule="evenodd" clip-rule="evenodd" d="M14.8992 15H1.10078C0.256824 15 -0.272275 14.1056 0.146446 13.3868L7.04566 1.54327C7.46762 0.81891 8.53238 0.81891 8.95434 1.54327L15.8536 13.3868C16.2723 14.1056 15.7432 15 14.8992 15ZM8.00003 4.7569C8.62242 4.7569 9.10397 5.292 9.02677 5.89782L8.54536 9.67573C8.51098 9.94552 8.27719 10.148 8.00003 10.148C7.72286 10.148 7.48907 9.94552 7.45469 9.67573L6.97328 5.89782C6.89608 5.292 7.37763 4.7569 8.00003 4.7569ZM8.76944 11.765C8.76944 12.1819 8.42496 12.5198 8.00003 12.5198C7.57509 12.5198 7.23062 12.1819 7.23062 11.765C7.23062 11.3482 7.57509 11.0103 8.00003 11.0103C8.42496 11.0103 8.76944 11.3482 8.76944 11.765Z" fill="#FFAD33"/>
<path d="M7.99998 4.75684C8.62237 4.75684 9.10392 5.29194 9.02673 5.89776L8.54531 9.67567C8.51094 9.94545 8.27714 10.1479 7.99998 10.1479C7.72281 10.1479 7.48902 9.94545 7.45464 9.67567L6.97323 5.89775C6.89603 5.29194 7.37759 4.75684 7.99998 4.75684Z" fill="#1C1B23"/>
<path d="M8.76939 11.765C8.76939 12.1818 8.42491 12.5197 7.99998 12.5197C7.57504 12.5197 7.23057 12.1818 7.23057 11.765C7.23057 11.3481 7.57504 11.0102 7.99998 11.0102C8.42491 11.0102 8.76939 11.3481 8.76939 11.765Z" fill="#1C1B23"/>
</svg>
