<svg width="64" height="64" viewBox="0 0 64 64" fill="none" xmlns="http://www.w3.org/2000/svg">
<g clip-path="url(#clip0_1099_715)">
<mask id="mask0_1099_715" style="mask-type:alpha" maskUnits="userSpaceOnUse" x="7" y="7" width="50" height="50">
<path d="M32 56.707C45.6451 56.707 56.7067 45.6454 56.7067 32.0002C56.7067 18.355 45.6451 7.29346 32 7.29346C18.3548 7.29346 7.29321 18.355 7.29321 32.0002C7.29321 45.6454 18.3548 56.707 32 56.707Z" fill="black"/>
</mask>
<g mask="url(#mask0_1099_715)">
<path d="M32 56.707C45.6451 56.707 56.7067 45.6454 56.7067 32.0002C56.7067 18.355 45.6451 7.29346 32 7.29346C18.3548 7.29346 7.29321 18.355 7.29321 32.0002C7.29321 45.6454 18.3548 56.707 32 56.707Z" fill="#6D697D"/>
<g filter="url(#filter0_d_1099_715)">
<path d="M21.9547 52.6104C21.5975 52.4777 21.4977 52.3477 21.5825 52.1261C21.6218 52.0235 21.6973 51.9395 21.7502 51.9395C21.8032 51.9395 22.035 52.0605 22.2654 52.2084C22.4958 52.3563 22.7776 52.5109 22.8915 52.5519L23.0987 52.6266L22.8438 52.6321C22.7036 52.6352 22.498 52.6507 22.3868 52.6668C22.2757 52.6828 22.0812 52.6574 21.9547 52.6104V52.6104ZM21.1441 51.9291C21.0768 51.8917 20.9647 51.8792 20.895 51.9012C20.8071 51.9289 20.7392 51.8876 20.6742 51.7669C20.6226 51.6711 20.53 51.5756 20.4685 51.5546C20.3275 51.5064 20.0318 51.0307 19.8672 50.5871C19.7841 50.3631 19.6723 50.2083 19.5397 50.1333C19.3042 50.0003 19.2873 49.94 19.4696 49.8826C19.6781 49.8168 19.7169 49.4518 19.5414 49.2071C19.4576 49.0902 19.4135 48.9531 19.4388 48.8878C19.4685 48.8107 19.3863 48.6755 19.1873 48.4741C18.9361 48.2199 18.8896 48.1275 18.8784 47.8596C18.8711 47.6862 18.8286 47.5006 18.7839 47.4471C18.7276 47.3798 18.7162 47.138 18.7465 46.6601C18.7795 46.1421 18.7603 45.8224 18.6695 45.3768C18.5347 44.715 18.4659 43.4821 18.5009 42.3572C18.5084 42.1172 18.4771 41.7877 18.4313 41.625C18.3199 41.2288 17.8072 40.7286 17.1736 40.3979C16.7204 40.1615 16.6567 40.1008 16.4795 39.7376C16.3723 39.5176 16.1672 39.1889 16.0239 39.007C15.8806 38.8252 15.7248 38.5581 15.6776 38.4136C15.5281 37.9548 15.2644 37.4938 15.0846 37.3769C14.989 37.3146 14.8799 37.1528 14.8422 37.0172C14.7812 36.7979 14.7973 36.7366 14.9882 36.4611C15.1952 36.1623 15.1976 36.1501 15.0577 36.1138C14.714 36.0245 14.8586 35.5682 15.4756 34.795C15.8857 34.2811 16.0058 33.8896 15.8922 33.4374C15.8489 33.265 15.8102 33.0847 15.8061 33.0367C15.802 32.9887 15.7712 32.9494 15.7376 32.9494C15.704 32.9494 15.7105 32.8865 15.7519 32.8095C15.8158 32.6909 15.7997 32.6571 15.6461 32.5876C15.4223 32.4863 15.0843 32.5864 15.083 32.7544C15.0814 32.9558 14.9922 32.9707 14.6981 32.8184C14.5405 32.7369 14.3769 32.6702 14.3344 32.6702C14.292 32.6702 14.1269 32.5586 13.9675 32.4223C13.8081 32.286 13.6382 32.1434 13.5899 32.1054C13.5415 32.0674 13.502 31.9639 13.502 31.8754C13.502 31.7868 13.4399 31.6586 13.364 31.5904C13.2881 31.5222 13.1898 31.3574 13.1455 31.2241C13.0873 31.0489 13.0437 31.0029 12.9882 31.058C12.8724 31.173 12.7009 31.1511 12.2847 30.9684C12.0671 30.8728 11.8404 30.7096 11.7498 30.5833C11.6634 30.4628 11.4982 30.3156 11.3828 30.2564C11.1924 30.1586 11.1448 30.1593 10.8673 30.2645L10.5617 30.3805L9.62388 29.9292C9.04701 29.6516 8.59931 29.3868 8.46065 29.2412C8.24564 29.0154 8.23869 28.9909 8.31023 28.711C8.37577 28.4546 8.36464 28.3753 8.22209 28.0828C8.13236 27.8987 7.93631 27.616 7.78641 27.4545C7.63652 27.293 7.53091 27.1335 7.55172 27.1001C7.57253 27.0667 7.46694 26.8413 7.31708 26.5993C7.14684 26.3244 7.02669 26.0299 6.99685 25.8144C6.95859 25.5382 6.914 25.4537 6.77287 25.3898C6.62327 25.3221 6.58143 25.3307 6.49577 25.4469C6.37513 25.6106 6.40943 25.7834 6.67619 26.3559C6.78459 26.5885 6.89661 26.9333 6.92513 27.1222C6.95365 27.3111 7.03789 27.5841 7.11233 27.729C7.28865 28.0722 7.1748 28.0662 6.89676 27.7176C6.73277 27.512 6.68848 27.3992 6.72107 27.2702C6.75587 27.1326 6.72161 27.0663 6.55117 26.9411C6.29267 26.7513 6.23796 26.6289 6.33291 26.4527C6.38828 26.3499 6.36289 26.2373 6.22227 25.9617C6.07946 25.6818 6.04959 25.5463 6.08495 25.3384C6.14275 24.9987 5.98926 24.6912 5.70313 24.5735C5.53793 24.5056 5.48098 24.4296 5.44732 24.2321C5.42351 24.0924 5.3779 23.8762 5.34596 23.7517C5.31275 23.6222 5.31517 23.5086 5.35161 23.4862C5.38665 23.4647 5.36373 23.3689 5.30067 23.2734C5.2078 23.1326 5.20144 23.066 5.26719 22.9227C5.31183 22.8254 5.32869 22.7142 5.30464 22.6755C5.28059 22.6369 5.34052 22.5214 5.43781 22.419C5.53511 22.3165 5.66465 22.1121 5.72567 21.9648C5.78669 21.8175 5.97475 21.5444 6.14357 21.3579C6.31239 21.1714 6.52641 20.8448 6.61918 20.6321C6.74794 20.3368 6.82341 20.245 6.93821 20.2441C7.02092 20.2434 7.08419 20.2821 7.07882 20.3301C7.05644 20.5302 7.21571 20.4685 7.3946 20.208C7.50004 20.0544 7.55694 19.9182 7.52103 19.9054C7.48512 19.8926 7.45574 19.8348 7.45574 19.777C7.45574 19.7192 7.31019 19.5314 7.1323 19.3597C6.83726 19.075 6.81831 19.0372 6.91642 18.9296C6.9959 18.8423 7.00525 18.7783 6.95224 18.6843C6.85909 18.519 7.00608 18.1488 7.16547 18.1473C7.2313 18.1467 7.25009 18.1244 7.20967 18.0949C7.11899 18.0288 7.0779 17.8785 7.09064 17.6597C7.11099 17.3101 7.03395 17.1638 6.77222 17.0552C6.63105 16.9967 6.41564 16.8731 6.29353 16.7806C6.17142 16.6881 6.01649 16.6124 5.94925 16.6124C5.88201 16.6124 5.57635 16.5489 5.27001 16.4712C4.7775 16.3463 4.69069 16.3414 4.52009 16.4286C4.16653 16.6093 3.79194 16.6829 3.63923 16.6018C3.52468 16.5409 3.39968 16.5785 2.96379 16.8049C2.6696 16.9577 2.31817 17.1065 2.18283 17.1354C2.0475 17.1644 1.78849 17.2623 1.60727 17.353C1.09323 17.6102 0.356868 17.8695 0.153185 17.865C0.021732 17.8621 0.110605 17.8049 0.460354 17.6671C1.05475 17.4331 1.66553 17.1282 1.72202 17.0375C1.7916 16.9257 1.64056 16.8855 1.45912 16.9676C1.32554 17.0281 1.24322 17.0224 1.08907 16.9422L0.890816 16.8391L1.10647 16.7283C1.35026 16.6031 1.42695 16.4615 1.37094 16.2399C1.31669 16.0252 1.61579 15.8675 2.26013 15.771C2.60634 15.7192 2.86953 15.6329 3.04673 15.5131C3.3592 15.3019 3.30552 15.1422 2.96862 15.2808C2.80913 15.3464 2.69296 15.3471 2.45677 15.2839C2.16973 15.2072 2.15951 15.1962 2.28789 15.103C2.50272 14.947 2.94703 14.8532 3.23896 14.9022C3.42368 14.9332 3.57499 14.9115 3.73028 14.8317L3.95468 14.7165L3.80697 14.5603C3.72572 14.4745 3.65925 14.3857 3.65925 14.3632C3.65925 14.2984 4.08249 14.1688 4.29412 14.1688C4.39975 14.1688 4.68932 14.0929 4.93761 14.0001C5.18591 13.9073 5.75876 13.7806 6.21061 13.7185C6.94347 13.6179 7.09866 13.6167 7.6482 13.7071C7.98703 13.7629 8.45407 13.8295 8.68608 13.855C8.91809 13.8805 9.32874 13.9616 9.59864 14.0351C10.2255 14.2059 10.6338 14.2038 11.3341 14.0263C11.6433 13.9479 11.9558 13.9025 12.0286 13.9254C12.1013 13.9484 12.2251 13.933 12.3035 13.8913C12.4116 13.8339 12.4954 13.8408 12.6496 13.92C12.789 13.9916 12.961 14.012 13.1951 13.9848C13.4422 13.9561 13.6585 13.9858 13.9743 14.0919C14.2148 14.1726 14.4818 14.2387 14.5678 14.2387C14.72 14.2387 14.7206 14.2412 14.5876 14.3384C14.4572 14.4337 14.4568 14.4403 14.5793 14.4874C14.6497 14.5146 14.8944 14.5173 15.1229 14.4936C15.5357 14.4508 15.5393 14.452 15.6544 14.673L15.7702 14.8955L15.9206 14.7082C16.0071 14.6006 16.2125 14.4786 16.4035 14.4215C16.6923 14.3352 16.78 14.3355 17.07 14.4237C17.2747 14.486 17.5198 14.5086 17.7033 14.4823C17.937 14.4488 18.0455 14.4697 18.198 14.5775C18.3905 14.7136 18.3958 14.7137 18.5665 14.5823C18.6618 14.5089 18.8578 14.4163 19.0022 14.3763C19.3478 14.2807 19.465 14.077 19.2574 13.9326C19.1107 13.8306 19.1171 13.8228 19.5029 13.6349C19.7906 13.4948 19.9201 13.463 19.9762 13.5186C20.0323 13.5743 20.0317 13.6356 19.9741 13.7424C19.876 13.9246 19.9981 14.1999 20.1512 14.1415C20.2063 14.1206 20.2976 14.121 20.3541 14.1426C20.4429 14.1764 20.4415 14.2051 20.3437 14.3534C20.0734 14.7631 20.6794 14.647 21.0897 14.2105C21.2565 14.0331 21.5149 13.9793 21.7571 14.0716C21.9136 14.1312 21.8989 14.18 21.6398 14.4621C21.3311 14.7982 21.1731 14.867 20.7094 14.867C20.4853 14.867 20.2207 14.9152 20.0975 14.9785C19.9268 15.0662 19.8436 15.0734 19.709 15.0125C19.4581 14.899 19.3707 14.9935 19.5507 15.1838L19.7044 15.3462L19.3978 15.4326C19.2292 15.4801 18.9489 15.5236 18.7749 15.5292C18.5226 15.5373 18.4584 15.5645 18.458 15.6636C18.4577 15.7484 18.3349 15.8376 18.0714 15.9445C17.2173 16.2912 16.4928 16.9163 16.7551 17.0802C16.8042 17.1109 16.8823 17.2216 16.9285 17.3261C16.9817 17.4465 17.0842 17.5304 17.2082 17.5551C17.3159 17.5765 17.5938 17.6868 17.8258 17.8003C18.0578 17.9137 18.3425 18.0271 18.4585 18.0522C18.7779 18.1213 18.7807 18.1286 18.6319 18.5033C18.5047 18.8239 18.5021 18.8697 18.6007 19.0591C18.6598 19.1726 18.7469 19.2643 18.7943 19.263C19.0246 19.2563 19.2407 19.0452 19.3749 18.6955C19.5028 18.3622 19.5611 18.3 19.9283 18.1052C20.4701 17.8178 20.6955 17.5347 20.6354 17.2169C20.5963 17.0098 20.6166 16.9612 20.7951 16.8351C20.9076 16.7555 21.0565 16.5652 21.126 16.4121C21.2814 16.0699 21.5311 15.9512 21.9522 16.0196C22.3256 16.0802 22.7672 16.3157 22.8206 16.4826C22.8425 16.5511 22.8243 16.6741 22.7802 16.756C22.7133 16.88 22.726 16.9324 22.8558 17.0696L23.0116 17.2343L23.2661 17.1033C23.406 17.0313 23.6303 16.8907 23.7645 16.791L24.0085 16.6097L24.0659 16.7636C24.0974 16.8482 24.1063 16.9611 24.0857 17.0144C24.0651 17.0676 24.0812 17.1722 24.1213 17.2467C24.1665 17.3306 24.17 17.4254 24.1305 17.4955C24.086 17.5745 24.1158 17.6944 24.2289 17.8923C24.391 18.1757 24.391 18.1759 24.2487 18.2749C24.0614 18.4052 24.1816 18.5434 24.3872 18.4341C24.5913 18.3256 24.8251 18.3397 24.9692 18.4692C25.1823 18.6607 25.0051 18.8898 24.4395 19.1541C23.8243 19.4415 23.5501 19.4984 22.7472 19.5055C22.1542 19.5107 22.0757 19.5295 21.4992 19.8039C21.1609 19.965 20.8841 20.1244 20.8841 20.1582C20.8841 20.3022 20.9907 20.2897 21.3997 20.0975C21.6407 19.9843 21.9513 19.8939 22.0993 19.8938C22.352 19.8938 22.3612 19.9015 22.2823 20.048C22.2366 20.1328 22.138 20.2514 22.0632 20.3115C21.9456 20.4061 21.9388 20.446 22.0124 20.6064C22.1227 20.847 22.411 20.9628 22.7558 20.905L23.0284 20.8593L22.8188 21.0029C22.7036 21.0818 22.5138 21.1669 22.397 21.192C22.2802 21.217 22.0403 21.3098 21.8637 21.3981C21.6846 21.4877 21.5045 21.5352 21.4562 21.5055C21.3449 21.4372 21.4623 21.3347 21.8238 21.1848C22.1453 21.0514 22.0939 20.9097 21.7475 20.9742C21.6125 20.9993 21.1749 21.163 20.775 21.338C20.1508 21.611 20.0419 21.6831 20.0055 21.8474C19.9608 22.0494 19.8084 22.1449 19.2726 22.3068C19.1017 22.3584 18.8803 22.4832 18.7805 22.5841C18.6808 22.685 18.4897 22.836 18.356 22.9198C18.2224 23.0035 18.0943 23.1502 18.0716 23.2457C18.0341 23.4032 18.0254 23.407 17.9784 23.2857C17.8904 23.0583 17.7579 23.2806 17.7503 23.6682C17.7424 24.0654 17.5397 24.3363 17.0951 24.5437C16.6392 24.7564 15.9906 25.259 15.8592 25.5014C15.7431 25.7153 15.7383 25.7987 15.8098 26.3486C15.8764 26.8617 15.8725 26.9904 15.7847 27.159C15.7192 27.2848 15.6427 27.345 15.5791 27.3207C15.4282 27.2632 15.2437 26.6468 15.2954 26.3731C15.3313 26.1829 15.3075 26.1109 15.1649 25.9778C15.0499 25.8705 14.9437 25.8297 14.8535 25.8581C14.7782 25.8819 14.5652 25.8369 14.38 25.758C14.0963 25.6372 14.0058 25.6271 13.8032 25.6935C13.6659 25.7385 13.5294 25.8453 13.4847 25.9427C13.4183 26.0875 13.3742 26.1061 13.1906 26.0669C13.0719 26.0416 12.8893 25.9775 12.7849 25.9245C12.5277 25.794 12.3837 25.8031 12.0948 25.9681C11.9601 26.045 11.6851 26.1922 11.4838 26.2953C11.2525 26.4137 11.0935 26.5484 11.0519 26.6616C11.0156 26.76 10.886 27.1437 10.7638 27.5142L10.5416 28.1878L10.6551 28.6227C10.8636 29.4216 11.1536 29.6608 11.758 29.5321C12.2136 29.435 12.4872 29.2384 12.5878 28.9358C12.6516 28.7436 12.7205 28.6801 12.9268 28.6232C13.2372 28.5376 13.3668 28.5344 13.486 28.6095C13.5844 28.6716 13.5498 28.7736 13.1093 29.7206C12.8071 30.3705 12.8289 30.4286 13.3467 30.3544C13.8184 30.2868 14.2497 30.3387 14.3 30.4691C14.3197 30.5199 14.2877 30.8628 14.2291 31.2311C14.1241 31.89 14.1248 31.9047 14.276 32.1475C14.3604 32.2832 14.5188 32.4401 14.6279 32.4962C14.8021 32.5856 14.8567 32.5854 15.0758 32.4945C15.4241 32.35 15.6132 32.3653 15.855 32.5574C16.0484 32.7111 16.0757 32.7154 16.2277 32.6165C16.3179 32.5578 16.441 32.4124 16.5012 32.2933C16.6369 32.0247 16.8656 31.836 17.0577 31.8339C17.138 31.8331 17.278 31.7538 17.3688 31.6578C17.5532 31.4629 17.878 31.3994 17.7193 31.5893C17.586 31.7487 17.5099 32.2613 17.5957 32.4207C17.6672 32.5533 17.673 32.5525 17.8031 32.393C17.8957 32.2794 17.9143 32.2066 17.8637 32.1563C17.743 32.0364 17.7793 31.9367 18.004 31.7718C18.2373 31.6005 18.4178 31.6181 18.6191 31.8317C18.7667 31.9883 19.5548 32.2 19.7806 32.1437C20.1246 32.058 21.054 32.6192 21.4032 33.1234C21.5694 33.3635 22.1006 33.6051 22.3342 33.5469C22.8147 33.4272 23.4734 33.9052 23.6274 34.4854C23.6733 34.6582 23.7425 34.8191 23.7811 34.8431C23.8837 34.9065 23.73 35.1573 23.3942 35.4746C23.1796 35.6773 23.1283 35.7646 23.1887 35.8245C23.2491 35.8845 23.3483 35.8319 23.5866 35.6138C23.9332 35.2966 24.0488 35.2644 24.2224 35.4368C24.328 35.5417 24.3248 35.563 24.18 35.716C24.0938 35.8072 23.9734 35.8837 23.9125 35.8862C23.8483 35.8887 23.8743 35.9193 23.9742 35.959C24.1116 36.0134 24.1832 35.9981 24.3258 35.8838C24.697 35.5859 24.7843 35.5716 25.114 35.7545C25.3283 35.8735 25.4142 35.964 25.4034 36.0598C25.3733 36.326 25.4366 36.385 25.6224 36.264C25.7702 36.1679 25.8715 36.1633 26.3658 36.2305C26.8916 36.302 26.9604 36.3305 27.2127 36.581C27.3999 36.767 27.6106 36.8893 27.8752 36.9657C28.2305 37.0682 28.2691 37.0995 28.3335 37.3372C28.4269 37.6817 28.3175 38.064 28.0214 38.4272C27.895 38.5824 27.74 38.8101 27.677 38.9333C27.614 39.0566 27.48 39.2392 27.3793 39.3393C27.2088 39.5086 27.1993 39.551 27.2418 39.953C27.3248 40.7385 26.9379 42.2039 26.5647 42.5173C26.4432 42.6194 26.3393 42.6433 26.1466 42.6137C25.9882 42.5893 25.871 42.605 25.8401 42.6548C25.8125 42.6991 25.659 42.7925 25.4989 42.8624C25.3388 42.9323 25.1005 43.0805 24.9693 43.1918C24.7422 43.3844 24.7346 43.4058 24.811 43.6357C24.8991 43.9008 24.8398 44.2147 24.6509 44.4825C24.5899 44.569 24.5399 44.7163 24.5399 44.8097C24.5399 44.9031 24.4666 45.0768 24.3769 45.1956C24.2873 45.3145 24.1143 45.5864 23.9926 45.8001C23.6931 46.3256 23.5131 46.4167 23.0789 46.2621C22.702 46.128 22.5011 46.112 22.5011 46.2161C22.5011 46.2553 22.5762 46.3214 22.668 46.3629C22.7598 46.4044 22.9029 46.5735 22.9859 46.7387C23.1096 46.9846 23.1227 47.07 23.0583 47.2105C22.9584 47.4281 22.5765 47.6109 22.2216 47.6109C21.9073 47.6109 21.8293 47.6872 21.9379 47.8887C22.0049 48.0131 21.9598 48.2132 21.8302 48.3666C21.8197 48.379 21.7096 48.337 21.5856 48.2733C21.2895 48.1213 21.1846 48.2181 21.3343 48.5055C21.3952 48.6224 21.5109 48.7388 21.5915 48.7642C21.73 48.8079 21.7315 48.8176 21.6189 48.9411C21.5533 49.0131 21.5193 49.1223 21.5432 49.1842C21.5688 49.2506 21.5116 49.3942 21.4029 49.5357C21.2262 49.7657 21.2237 49.7816 21.3369 49.9533C21.4017 50.0515 21.5027 50.1501 21.5614 50.1725C21.7732 50.2531 21.8083 50.5288 21.6468 50.8431C21.4851 51.1579 21.4603 51.4735 21.5855 51.6233C21.6993 51.7595 21.3163 52.0248 21.1441 51.9291H21.1441ZM15.9627 21.691C16.1505 21.3012 16.5001 21.0108 16.7816 21.0108C16.9842 21.0108 16.9866 21.0435 16.8011 21.2777L16.6552 21.4619L16.8049 21.5822C16.9255 21.6792 16.9877 21.6876 17.1252 21.6254C17.219 21.5829 17.3152 21.4875 17.3389 21.4132C17.3712 21.3122 17.4237 21.2886 17.5475 21.3195C17.662 21.3481 17.7338 21.3236 17.7809 21.2399C17.9238 20.9865 17.5603 20.6623 17.2926 20.8045C17.1011 20.9063 16.851 20.7038 16.9044 20.4903C16.9242 20.4111 16.8834 20.2734 16.8129 20.181C16.6676 19.9905 16.4465 19.9705 15.9627 20.1038C15.7887 20.1518 15.5903 20.1889 15.5218 20.1863C15.4532 20.1836 15.4156 20.211 15.438 20.2471C15.4605 20.2832 15.4532 20.3134 15.422 20.3142C15.3907 20.3151 15.2864 20.3758 15.1901 20.4493L15.0152 20.5827L15.2117 20.6569C15.3652 20.7149 15.4558 20.7066 15.6264 20.619C15.8269 20.5161 15.864 20.5161 16.0828 20.6197C16.2146 20.6822 16.3946 20.7142 16.4857 20.6915C16.5763 20.6689 16.6698 20.6816 16.6935 20.7197C16.7178 20.7587 16.6187 20.8088 16.4673 20.8342C16.0559 20.9032 15.8421 21.0734 15.5437 21.5694C15.2944 21.9837 15.2801 22.0336 15.3795 22.1431C15.4769 22.2506 15.5039 22.2523 15.6376 22.1594C15.7197 22.1024 15.866 21.8916 15.9627 21.691V21.691ZM17.24 22.1219C17.4903 21.9951 17.5144 21.9633 17.4262 21.8757C17.338 21.7881 17.2822 21.7938 16.9953 21.9199C16.6584 22.0678 16.5515 22.2675 16.8091 22.2675C16.888 22.2675 17.0819 22.202 17.24 22.1219ZM18.4866 21.5944C18.633 21.4925 18.6385 21.4725 18.5352 21.4151C18.3832 21.3306 17.9312 21.4762 17.9312 21.6097C17.9312 21.7472 18.2807 21.7376 18.4866 21.5944ZM23.7666 51.744C23.7666 51.7133 23.8045 51.6505 23.8509 51.6044C23.8973 51.5583 23.9087 51.5206 23.8763 51.5206C23.8438 51.5206 23.7793 51.5721 23.7329 51.6351C23.6664 51.7255 23.6204 51.7333 23.5143 51.6721C23.4384 51.6284 23.42 51.5937 23.4719 51.5925C23.5225 51.5914 23.5444 51.559 23.5205 51.5206C23.4746 51.4469 23.5953 51.4268 23.9423 51.4503C24.2521 51.4713 24.2833 51.5162 24.0918 51.6658C23.9134 51.8051 23.7666 51.8404 23.7666 51.744ZM82.4808 49.9918C82.2797 49.8653 82.6985 49.5858 83.737 49.1538C84.027 49.0331 84.469 48.7808 84.7191 48.593C85.1444 48.2737 85.1796 48.2599 85.2639 48.3794C85.3919 48.5608 85.3165 48.6921 85.004 48.832C84.8546 48.8989 84.6669 49.0285 84.5867 49.12C84.5066 49.2116 84.3776 49.2865 84.3001 49.2865C84.2227 49.2865 84.0405 49.3923 83.8954 49.5216C83.3987 49.9643 82.7695 50.1734 82.4808 49.9918ZM77.5605 49.0848C77.4874 49.0389 77.4833 48.9916 77.5429 48.8811C77.5856 48.8019 77.6205 48.6387 77.6205 48.5184C77.6205 48.3217 77.6364 48.3052 77.7787 48.3549C77.8657 48.3853 78.0476 48.4143 78.1829 48.4193C78.3182 48.4243 78.4534 48.433 78.4833 48.4385C78.5999 48.4603 78.2884 48.8123 78.0086 48.9752C77.6753 49.1691 77.6891 49.1658 77.5605 49.0848ZM85.6845 48.4743C85.6601 48.45 85.718 48.3693 85.8132 48.2949C85.9567 48.1828 85.9734 48.1354 85.9107 48.019C85.82 47.8506 85.9548 47.6699 86.267 47.5415C86.5089 47.442 86.5698 47.2401 86.5049 46.7528C86.4603 46.4176 86.4658 46.3967 86.5745 46.486C86.66 46.5562 86.681 46.6446 86.6505 46.8057C86.6171 46.9824 86.6471 47.0742 86.7955 47.2493C86.9558 47.4385 87.0034 47.459 87.1281 47.3927C87.2524 47.3267 87.2669 47.3327 87.2278 47.4339C87.2026 47.4991 87.182 47.5648 87.182 47.5799C87.182 47.595 87.0792 47.6596 86.9535 47.7235C86.8278 47.7874 86.5826 47.9564 86.4086 48.0991C86.1257 48.331 85.8345 48.5185 85.7571 48.5185C85.7416 48.5185 85.709 48.4986 85.6845 48.4743ZM78.25 47.5726C78.102 47.4161 78.0746 47.4101 77.9324 47.5026C77.7511 47.6206 77.4105 47.5517 77.1376 47.3418C76.9919 47.2299 76.9818 47.1938 77.0569 47.0544C77.121 46.9355 77.1231 46.8522 77.0653 46.7261C77.0226 46.6331 76.9877 46.4957 76.9877 46.4207C76.9877 46.2516 76.8771 46.2435 76.7856 46.406C76.7479 46.4729 76.6969 46.5076 76.6723 46.4831C76.6477 46.4587 76.7291 46.3238 76.8532 46.1834C77.1587 45.8379 77.0395 45.7441 76.636 46.0124C76.4621 46.1281 76.3086 46.2544 76.2948 46.2932C76.281 46.332 76.1975 46.2123 76.1091 46.0273C76.0133 45.8267 75.8478 45.6251 75.6991 45.5278C75.4757 45.3817 75.4 45.3696 74.9708 45.4121C74.3415 45.4743 73.7343 45.6284 73.3369 45.8267C73.1562 45.9169 72.8037 46.0093 72.5318 46.0376C72.2658 46.0653 71.8428 46.1648 71.5917 46.2586C71.2078 46.4021 71.0985 46.4172 70.904 46.3534C70.643 46.2679 70.5346 46.0916 70.7034 46.0273C70.7645 46.004 70.8755 45.8438 70.95 45.6713C71.0692 45.3951 71.0757 45.3091 71.0051 44.9523C70.9466 44.6571 70.9449 44.3776 70.9991 43.9231C71.0399 43.5799 71.0556 43.2316 71.0338 43.149C71.0121 43.0664 71.0461 42.8642 71.1093 42.6997C71.2209 42.4097 71.2479 42.3907 72.0021 42.0735C72.4299 41.8935 72.8678 41.7463 72.9752 41.7463C73.2658 41.7463 73.6256 41.4717 73.824 41.0987C73.9466 40.8681 74.0317 40.7803 74.1052 40.8086C74.3106 40.8874 74.3511 40.8719 74.3353 40.7207C74.3251 40.6235 74.3672 40.5527 74.4509 40.5264C74.5233 40.5036 74.657 40.3764 74.7481 40.2439C74.8414 40.1081 75.0331 39.9552 75.187 39.8939C75.4436 39.7916 75.4692 39.7931 75.6088 39.9191C75.8664 40.1516 76.0489 40.2195 76.1361 40.1152C76.1785 40.0645 76.1931 40.003 76.1685 39.9786C76.088 39.8987 76.4562 39.4398 76.6362 39.3958C76.7329 39.3721 76.9314 39.2933 77.0773 39.2208C77.3048 39.1076 77.3848 39.1001 77.6397 39.168C78.1894 39.3146 78.2076 39.3385 78.0032 39.6453C77.7402 40.0399 77.81 40.1941 78.4548 40.6449C78.7526 40.853 79.0337 41.0109 79.0795 40.9957C79.1253 40.9806 79.2701 40.8212 79.4013 40.6416C79.5801 40.3969 79.6494 40.2189 79.678 39.9311C79.7187 39.5222 79.9157 38.9537 80.0165 38.9537C80.0499 38.9537 80.1265 39.1218 80.1866 39.3273C80.2468 39.5328 80.3729 39.7726 80.4668 39.8603C80.6863 40.065 80.8138 40.6376 80.7152 40.9759C80.6499 41.2001 80.6625 41.2361 80.8863 41.4647C81.0192 41.6004 81.2294 41.9313 81.3534 42.2001C81.4773 42.4689 81.7009 42.8492 81.8501 43.0453L82.1215 43.4017L82.0443 43.9524C81.9884 44.3519 81.9017 44.6182 81.7287 44.9225C81.4638 45.3885 81.0676 45.8332 80.8587 45.8991C80.7836 45.9227 80.6097 46.0976 80.4721 46.2878C80.3346 46.4779 80.1911 46.6335 80.1532 46.6335C80.1154 46.6335 79.9546 46.7966 79.7958 46.996C79.5311 47.3286 79.4824 47.3591 79.2065 47.3642C78.9948 47.3682 78.8328 47.4252 78.6589 47.5568L78.412 47.7438L78.25 47.5726H78.25ZM43.9678 46.1047C43.8189 45.9568 43.794 45.8812 43.8273 45.6776C43.8586 45.486 43.8288 45.3733 43.6951 45.1778C43.6001 45.039 43.5224 44.8913 43.5224 44.8495C43.5224 44.8078 43.3981 44.6082 43.2461 44.4059C43.0113 44.0933 42.963 43.9684 42.9243 43.573C42.8559 42.8751 42.6316 42.1198 42.33 41.5724C42.1817 41.3032 42.0393 40.9538 42.0135 40.7958C41.9585 40.4597 42.096 39.9595 42.4098 39.3533L42.6185 38.9501L42.5012 38.5995C42.4356 38.4033 42.4036 38.1711 42.4285 38.0726C42.4576 37.9572 42.4263 37.8198 42.3377 37.6745C42.2633 37.5524 42.1528 37.2798 42.0921 37.0686C42.0111 36.7865 41.8982 36.6031 41.6665 36.3774C41.221 35.9433 41.163 35.7724 41.3013 35.3C41.5828 34.3383 41.2787 33.7775 40.5357 33.8881C40.2465 33.9312 40.2354 33.9258 40.1945 33.7229C40.1632 33.5672 40.0782 33.4756 39.8648 33.3675C39.5875 33.227 39.4688 33.2265 39.1283 33.3642C39.051 33.3955 38.7346 33.5039 38.4252 33.6051C37.9601 33.7572 37.8204 33.7769 37.618 33.7186C37.4262 33.6633 37.2646 33.6776 36.8721 33.7846C36.4665 33.8951 36.3195 33.9069 36.1003 33.8468C35.643 33.7214 34.8574 33.0182 34.7457 32.6343C34.6592 32.3372 34.1214 31.6448 33.9383 31.5949C33.822 31.5632 33.8077 31.5386 33.8789 31.493C33.9505 31.4471 33.9381 31.4239 33.8262 31.3948C33.6485 31.3487 33.6308 31.2045 33.8027 31.203C33.9078 31.2021 33.9104 31.1921 33.8202 31.1342C33.7538 31.0916 33.7464 31.0661 33.8003 31.0655C33.8561 31.0648 33.8349 30.9787 33.7391 30.8174C33.6042 30.5905 33.6014 30.5605 33.7044 30.4474C34.019 30.1023 34.0879 29.3591 33.8488 28.8909C33.7346 28.6674 33.808 28.3587 34.0516 28.0377C34.1433 27.9168 34.3224 27.6228 34.4495 27.3842C34.6719 26.9669 35.1677 26.3867 35.3019 26.3867C35.4503 26.3867 35.9294 25.8753 35.9294 25.7167C35.9294 25.3589 36.1449 25.002 36.4962 24.7782C36.6849 24.6579 36.9061 24.4522 36.9877 24.3211C37.1546 24.053 37.1782 24.0442 37.3726 24.1787C37.4489 24.2315 37.6384 24.2959 37.7938 24.3218C38.0307 24.3612 38.144 24.3328 38.4968 24.1455C39.1039 23.8231 39.479 23.7425 40.1736 23.7856C40.6317 23.814 40.838 23.7958 41.06 23.7076C41.387 23.5776 41.6698 23.6545 41.5932 23.8526C41.5702 23.9121 41.5843 24.0002 41.6244 24.0482C41.675 24.1087 41.6746 24.1953 41.6231 24.3297C41.5585 24.4984 41.5729 24.5487 41.733 24.7146C41.8342 24.8196 42.0155 24.925 42.1359 24.9489C42.7009 25.0611 42.8616 25.1338 42.9782 25.3299C43.0637 25.4736 43.1758 25.5474 43.361 25.5819C43.5051 25.6087 43.7143 25.6776 43.8259 25.7349C44.0155 25.8322 44.04 25.8287 44.1981 25.6812C44.3044 25.5821 44.3526 25.4771 44.3276 25.3991C44.3058 25.3308 44.3224 25.2109 44.3646 25.1326C44.4734 24.9308 44.7822 24.9506 45.2644 25.1904C45.7898 25.4515 46.7861 25.6379 47.1393 25.541C47.3092 25.4945 47.4725 25.4939 47.6212 25.5392C48.107 25.6875 48.3558 25.5715 48.4221 25.1656C48.4441 25.0308 48.4817 24.9206 48.5057 24.9206C48.5511 24.9206 48.5749 24.7179 48.5815 24.2748C48.5836 24.1308 48.6179 24.0129 48.6576 24.0129C48.705 24.0129 48.7027 23.9624 48.6509 23.8663C48.5644 23.7059 48.3891 23.7095 47.9695 23.8805C47.7704 23.9616 47.7151 23.9582 47.5368 23.8536C47.3056 23.718 47.0684 23.6977 47 23.8076C46.9491 23.8893 46.5896 23.832 46.3946 23.7111C46.2546 23.6242 46.1237 23.3657 46.1237 23.1758C46.1237 23.103 46.0525 22.9936 45.9655 22.9328C45.8308 22.8386 45.823 22.8119 45.9128 22.7536C45.9708 22.7159 46.0901 22.7018 46.1779 22.7224C46.2899 22.7485 46.3929 22.7047 46.5229 22.5756C46.6453 22.4541 46.7941 22.387 46.9608 22.3782C47.0998 22.3709 47.301 22.3076 47.408 22.2376C47.6403 22.0855 48.1678 22.1278 48.577 22.3312C49.1288 22.6055 49.6189 22.5894 49.8162 22.2904C49.9188 22.1349 49.9194 22.1022 49.822 21.9546C49.7626 21.8647 49.4776 21.6575 49.1886 21.4942L48.6631 21.1972L48.7615 21.0082C48.8157 20.9042 48.8423 20.8015 48.8206 20.78C48.7989 20.7585 48.8072 20.6995 48.839 20.649C48.8708 20.5984 48.903 20.5165 48.9105 20.4669C48.9267 20.3611 48.8133 20.3903 48.2542 20.6359C47.9296 20.7784 47.8814 20.8221 47.9534 20.9082C48.0005 20.9647 48.1064 21.0122 48.1887 21.0139C48.3041 21.0163 48.2768 21.0492 48.0692 21.158C47.8171 21.2901 47.789 21.2918 47.6251 21.1852C47.4849 21.094 47.4666 21.0516 47.533 20.9721C47.5989 20.8932 47.5891 20.8628 47.485 20.824C47.4129 20.7971 47.3201 20.7302 47.2786 20.6753C47.0772 20.4088 46.4383 21.11 46.2525 21.8015C46.1653 22.126 46.1682 22.1429 46.3324 22.2659L46.5028 22.3935L46.1902 22.4576C46.0183 22.4928 45.7866 22.4969 45.6753 22.4667C45.4699 22.411 45.2097 22.4949 45.2097 22.6169C45.2097 22.6527 45.1618 22.6638 45.1034 22.6415C45.0449 22.6192 44.952 22.6381 44.897 22.6834C44.8117 22.7537 44.8213 22.8113 44.9627 23.0754C45.1159 23.3614 45.1206 23.4006 45.0251 23.5907C44.9054 23.829 44.794 23.8113 44.625 23.527C44.5071 23.3289 44.5079 23.3243 44.6638 23.3023C44.8607 23.2746 44.8733 23.1501 44.6824 23.1198C44.2468 23.0507 44.0145 22.8227 44.0145 22.4645C44.0145 22.1849 43.7536 21.8768 43.4371 21.7826C43.2727 21.7337 43.0939 21.631 43.0398 21.5543C42.9858 21.4777 42.8276 21.3677 42.6883 21.3099C42.5489 21.2521 42.393 21.1453 42.3418 21.0727C42.2682 20.9684 42.2198 20.9558 42.1121 21.0131C42.0371 21.0529 41.9757 21.1305 41.9757 21.1854C41.9757 21.3667 42.8718 22.1868 43.3098 22.4063C43.7742 22.6391 43.8468 22.7223 43.5241 22.6519C43.2364 22.5892 43.1581 22.652 43.2564 22.8664C43.3256 23.0171 43.3143 23.0629 43.1752 23.1956L43.0137 23.3497L43.0504 23.1417C43.1088 22.8116 42.6705 22.3374 42.307 22.3374C42.1737 22.3374 41.6618 21.8442 41.5277 21.5867C41.3844 21.3115 41.2249 21.2584 40.9991 21.4105C40.6588 21.6396 40.4036 21.717 40.1367 21.6723C39.7822 21.6128 39.5591 21.7355 39.6156 21.9591C39.6451 22.0758 39.6287 22.1279 39.5624 22.1279C39.5097 22.1279 39.3746 22.2064 39.2623 22.3024C39.1499 22.3983 39.0338 22.4769 39.0042 22.4769C38.9172 22.477 38.6719 22.9181 38.6716 23.0748C38.6713 23.2247 38.3964 23.52 38.1311 23.6553C38.0466 23.6984 37.85 23.7337 37.6941 23.7337C37.4797 23.7337 37.3918 23.7688 37.333 23.8779C37.256 24.0209 37.2537 24.0205 37.0735 23.8416C36.9044 23.6737 36.8071 23.6317 36.466 23.5793C36.2867 23.5518 36.2565 23.1489 36.3905 22.5749C36.4478 22.3295 36.476 22.0545 36.453 21.9638C36.3864 21.7002 36.595 21.5448 36.9438 21.598C37.7494 21.7209 38.2206 21.7277 38.3311 21.618C38.4828 21.4673 38.5513 20.9702 38.4587 20.6915C38.3983 20.5098 38.3152 20.4355 38.0673 20.3414C37.7027 20.2032 37.695 20.0694 38.0515 20.0659C38.1873 20.0645 38.3832 20.0082 38.4868 19.9408C38.5905 19.8733 38.7051 19.8365 38.7415 19.8588C38.8409 19.9198 39.2173 19.7044 39.3422 19.515C39.4026 19.4234 39.5216 19.3309 39.6066 19.3094C39.6915 19.2879 39.9192 19.124 40.1126 18.9452C40.3867 18.6916 40.5305 18.6121 40.7655 18.5843C41.0567 18.5497 41.3495 18.312 41.212 18.2216C41.1266 18.1655 41.0552 17.8274 41.1028 17.7043C41.1254 17.646 41.2249 17.5455 41.324 17.481L41.5042 17.3637L41.4579 17.651C41.4178 17.9003 41.428 17.9356 41.5355 17.9177C41.6036 17.9064 41.7309 17.8581 41.8185 17.8103C41.9519 17.7376 41.9846 17.7411 42.0197 17.8321C42.08 17.988 41.9125 18.1713 41.7968 18.076C41.733 18.0234 41.6924 18.0253 41.6568 18.0826C41.6199 18.1417 41.5912 18.1385 41.5489 18.0706C41.5171 18.0196 41.475 17.9939 41.4553 18.0135C41.4356 18.0331 41.4918 18.1392 41.5802 18.2493C41.7292 18.4349 41.7577 18.4437 41.9701 18.3702C42.152 18.3072 42.2394 18.3115 42.3943 18.3911C42.5691 18.4809 42.6282 18.4766 42.9642 18.3498C43.2587 18.2387 43.3748 18.2244 43.5051 18.2834C43.625 18.3376 43.7138 18.3365 43.8252 18.2794C44.1414 18.1171 44.229 17.9947 44.1898 17.7701C44.1316 17.4372 44.2381 17.3282 44.5189 17.4334C44.7099 17.505 44.7657 17.5022 44.852 17.4164C44.9434 17.3257 44.9356 17.2921 44.7858 17.1338C44.6416 16.9815 44.6315 16.9436 44.7194 16.8847C44.7764 16.8465 44.99 16.8329 45.194 16.8543C45.5674 16.8936 46.0328 16.7487 45.9517 16.6185C45.8807 16.5044 45.4521 16.4714 45.089 16.5521C44.7669 16.6237 44.6824 16.6179 44.4356 16.5073C44.0522 16.3357 44.0071 16.1349 44.27 15.7709C44.6084 15.3025 44.6703 15.1533 44.5739 15.0379C44.4312 14.8671 44.2909 14.9228 43.9648 15.2798C43.7925 15.4684 43.5577 15.6614 43.443 15.7085C43.3284 15.7557 43.1865 15.8865 43.1278 15.9992C43.0322 16.1828 43.0324 16.2212 43.1292 16.3681C43.1887 16.4582 43.3015 16.5522 43.3799 16.5769C43.5956 16.6449 43.5529 16.7725 43.2444 16.9821C43.1495 17.0465 43.023 17.2289 42.9632 17.3874C42.8883 17.5859 42.7743 17.7214 42.5967 17.8232C42.3462 17.9669 42.3348 17.9674 42.1964 17.843C42.118 17.7726 42.0349 17.629 42.0117 17.5239C41.9884 17.4188 41.8828 17.2298 41.777 17.1039L41.5847 16.8751L41.3407 17.0228C41.2066 17.104 41.0336 17.1698 40.9562 17.1691C40.7331 17.1671 40.4748 16.9278 40.4576 16.7071C40.449 16.5974 40.4203 16.4539 40.3938 16.3882C40.3308 16.2318 40.6456 15.9385 40.9728 15.8488C41.3011 15.7588 41.9671 15.2953 42.0806 15.0778C42.1311 14.9811 42.3021 14.7864 42.4607 14.6452C42.6193 14.504 42.749 14.3574 42.749 14.3194C42.749 14.2813 42.8993 14.197 43.083 14.132C43.2666 14.067 43.5751 13.9491 43.7684 13.87C44.0058 13.7728 44.3026 13.7214 44.6824 13.7118C45.346 13.6949 45.78 13.7823 46.1381 14.0048C46.3177 14.1164 46.4596 14.1545 46.5952 14.1275C46.838 14.0793 48.1319 14.4776 48.1858 14.6171C48.24 14.7574 47.8689 14.8897 47.5496 14.8441C47.4034 14.8231 47.1009 14.7672 46.8775 14.7198C46.5767 14.6559 46.4508 14.6539 46.3922 14.712C46.3337 14.7701 46.363 14.813 46.5049 14.8773C46.6104 14.925 46.7424 15.0518 46.7983 15.1592C46.9406 15.4325 47.3965 15.6553 47.6317 15.5665C47.8577 15.4812 47.8561 15.4543 47.6177 15.3258C47.3971 15.207 47.4989 15.1813 47.7759 15.2859C47.997 15.3694 48.2475 15.2655 48.1892 15.1146C48.1619 15.0438 48.2387 14.9928 48.4555 14.9376C48.9193 14.8196 48.9532 14.8027 48.9148 14.7093C48.7693 14.356 48.7672 14.3662 48.9789 14.3902C49.0919 14.403 49.1745 14.451 49.1651 14.4984C49.1558 14.5452 49.2147 14.6189 49.2959 14.6621C49.418 14.7269 49.5142 14.7038 49.8498 14.5292C50.3419 14.273 50.7249 14.1895 50.8678 14.3072C50.9475 14.3729 51.0795 14.3734 51.4618 14.3093C51.7322 14.264 51.9841 14.2458 52.0217 14.2689C52.0592 14.2919 52.1106 14.2774 52.136 14.2367C52.1914 14.1477 52.0382 13.9457 51.9543 13.9972C51.853 14.0593 51.5205 13.948 51.5928 13.8762C51.6657 13.8039 53.6222 14.2566 53.7393 14.3729C53.8183 14.4513 54.0682 14.3467 54.0682 14.2353C54.0682 14.1977 53.9286 14.0997 53.7581 14.0174C53.2293 13.7623 53.1954 13.3537 53.6927 13.2298C53.9813 13.1578 54.1061 13.2408 54.5053 13.77C55.0235 14.4571 55.0103 14.4222 54.841 14.6583C54.7156 14.8332 54.7081 14.8741 54.795 14.9073C54.9599 14.9701 55.3126 14.7503 55.3623 14.5538C55.4205 14.3237 55.3118 14.1275 55.0525 13.9943C54.8485 13.8896 54.7009 13.6977 54.7009 13.5373C54.7009 13.4826 54.7774 13.469 54.9294 13.4966C55.1573 13.5379 55.3458 13.4558 55.862 13.0906C55.98 13.007 56.1795 12.952 56.3807 12.9474C56.7888 12.9383 56.9209 12.8702 56.8035 12.7297C56.7574 12.6746 56.7344 12.615 56.7523 12.5972C56.8421 12.508 57.9995 12.3474 58.2661 12.3871C58.5226 12.4253 58.602 12.4046 58.813 12.2448C58.9488 12.1419 59.0599 12.0301 59.0599 11.9962C59.0599 11.9109 58.4455 11.9185 58.392 12.0045C58.3183 12.1229 58.2228 12.0817 58.2497 11.9432C58.2724 11.8262 58.2129 11.8072 57.7008 11.7676C56.3024 11.6595 56.1888 11.6341 56.3565 11.4675C56.504 11.3211 56.8658 11.3239 57.1686 11.4739C57.2926 11.5353 57.4981 11.5856 57.6253 11.5856C57.7524 11.5856 57.8759 11.6171 57.8998 11.6554C57.9237 11.6938 58.0469 11.7253 58.1735 11.7253C58.5241 11.7253 59.2021 11.8757 59.1595 11.944C59.1388 11.9773 59.2044 12.0045 59.3053 12.0045C59.4061 12.0045 59.5899 12.0586 59.7137 12.1248C59.8801 12.2137 60.1126 12.2457 60.6066 12.2477C61.1376 12.2498 61.3141 12.2768 61.4678 12.3798C61.5742 12.451 61.6607 12.5293 61.6601 12.5536C61.6596 12.578 61.4973 12.6866 61.2996 12.795C60.822 13.0566 60.923 13.1706 61.5006 13.022C61.8748 12.9257 61.9608 12.9251 62.2706 13.0165C62.5247 13.0914 62.6834 13.101 62.8558 13.0519C63.0279 13.0029 63.2045 13.0135 63.5042 13.0906C63.8169 13.171 63.979 13.1792 64.1771 13.1246C64.6294 12.9998 65.1859 13.0351 65.5087 13.2089C65.6691 13.2953 65.965 13.4551 66.1662 13.5641C66.5229 13.7573 66.5384 13.7594 66.7858 13.6493C66.9928 13.5571 67.1084 13.5494 67.4137 13.6074C67.7173 13.665 67.8278 13.658 67.9987 13.5702C68.166 13.4843 68.1929 13.4421 68.1291 13.3657C68.0056 13.218 68.4436 13.1631 68.9818 13.2588C69.2282 13.3027 69.5406 13.3464 69.676 13.3561C69.8113 13.3657 70.0757 13.4423 70.2636 13.5263C70.55 13.6543 70.7662 13.6833 71.6044 13.7062C72.3997 13.7279 72.6528 13.7595 72.8447 13.861C73.0395 13.9641 73.2614 13.9903 73.9997 13.9975C74.679 14.004 74.9833 14.036 75.1848 14.122C75.5101 14.2608 75.6402 14.2099 75.4632 14.0131C75.3358 13.8715 75.3366 13.8713 75.8277 13.9198C76.6506 14.001 77.6378 14.1798 77.972 14.3082C78.146 14.3751 78.4776 14.4528 78.709 14.4809C78.9403 14.509 79.2779 14.6066 79.4591 14.6978C79.7342 14.8363 79.8236 14.8516 80.0002 14.7904C80.2417 14.7068 80.3985 14.767 80.7673 15.0852L80.9966 15.2829L80.8238 15.3259C80.6505 15.3691 80.1901 15.256 80.0315 15.1312C79.9849 15.0945 79.9195 15.0812 79.8862 15.1016C79.8529 15.122 79.6884 15.0918 79.5208 15.0344C79.128 14.9001 78.9536 14.9505 79.1325 15.1468C79.2547 15.2808 79.252 15.2837 79.019 15.2675C78.5831 15.2373 78.7029 15.3652 79.3429 15.6131C79.691 15.7479 79.9906 15.8725 80.0088 15.89C80.0748 15.9534 79.8572 16.0321 79.6989 16.002C79.5252 15.969 79.0969 16.1542 79.0969 16.2624C79.0969 16.2983 79.0292 16.3903 78.9465 16.4668C78.8083 16.5947 78.7798 16.5976 78.595 16.5027C78.422 16.4139 78.3667 16.4129 78.2005 16.4961C78.0941 16.5493 77.9124 16.6155 77.7966 16.6431C77.6808 16.6708 77.5467 16.7259 77.4986 16.7656C77.3571 16.8822 77.6066 17.2216 77.9579 17.3905C78.1493 17.4825 78.2879 17.6058 78.3291 17.7207C78.3652 17.8215 78.4419 17.9871 78.4994 18.0887C78.5931 18.2542 78.5923 18.2778 78.4916 18.3162C78.4178 18.3443 78.396 18.4007 78.4282 18.4806C78.4551 18.5475 78.4855 18.6807 78.4958 18.7767C78.5061 18.8727 78.5371 19.0034 78.5647 19.0671C78.6006 19.1501 78.5709 19.1969 78.4601 19.2318C78.3368 19.2707 78.2536 19.2238 78.0508 19.0011C77.9108 18.8474 77.6773 18.6358 77.5319 18.5309C77.3864 18.426 77.1259 18.1531 76.9529 17.9246C76.6477 17.5214 76.6414 17.503 76.7427 17.3085C76.8001 17.1983 76.8482 17.0358 76.8496 16.9475C76.851 16.8592 76.8956 16.7089 76.9487 16.6136C77.0503 16.4314 77.0112 16.286 76.7941 16.0387C76.6515 15.8763 76.3979 15.998 76.4619 16.1981C76.5208 16.3825 76.34 16.4422 76.1322 16.3071C76.042 16.2485 75.8345 16.1794 75.6711 16.1535C75.3904 16.109 75.3696 16.1175 75.2969 16.307C75.2545 16.4174 75.2367 16.5919 75.2574 16.6947C75.2895 16.855 75.2672 16.8878 75.1011 16.9241C74.9881 16.9487 74.7946 16.9195 74.6369 16.8541C74.4637 16.7822 74.3005 16.7605 74.1831 16.7937C74.0823 16.8221 73.7413 16.848 73.4254 16.8511C72.925 16.856 72.8286 16.8777 72.6765 17.0196C72.5805 17.1092 72.4652 17.3291 72.4202 17.5083C72.3752 17.6876 72.2928 17.9041 72.237 17.9896C72.1406 18.1373 72.1499 18.1523 72.4255 18.2919C72.7245 18.4434 73.0506 18.4833 73.2978 18.3986C73.4884 18.3333 74.07 18.7836 74.2516 19.1371C74.326 19.2819 74.449 19.4334 74.5249 19.4737C74.812 19.6264 74.8704 20.6277 74.6302 21.2824C74.464 21.7356 74.2779 21.8839 74.0047 21.7807C73.9002 21.7413 73.8043 21.709 73.7914 21.709C73.7784 21.709 73.7002 21.8379 73.6175 21.9954C73.509 22.2023 73.4878 22.3065 73.5413 22.3706C73.6438 22.4932 73.568 22.6526 73.3631 22.7453C73.2686 22.7881 73.1912 22.8535 73.1912 22.8907C73.1912 22.9279 73.4112 23.1086 73.68 23.2923C74.0221 23.5261 74.2048 23.7056 74.2886 23.8902C74.3545 24.0353 74.3956 24.1655 74.3799 24.1796C74.3641 24.1937 74.2204 24.2707 74.0605 24.3508L73.7697 24.4964L73.5948 24.0976C73.399 23.6512 73.231 23.4717 72.9351 23.3927C72.7861 23.3528 72.7342 23.2964 72.7342 23.1741C72.7342 23.0621 72.6613 22.9669 72.5064 22.8767C72.2807 22.7454 72.2762 22.7455 72.036 22.893C71.7956 23.0405 71.7928 23.0406 71.719 22.9036C71.678 22.8276 71.6445 22.7174 71.6445 22.6586C71.6445 22.5998 71.5854 22.5203 71.5132 22.4819C71.4058 22.4248 71.338 22.4593 71.1405 22.6715C71.0078 22.8141 70.8377 22.9655 70.7626 23.0079C70.6461 23.0737 70.6399 23.1016 70.7202 23.1977C70.772 23.2597 70.9508 23.3861 71.1175 23.4786C71.3827 23.6258 71.4334 23.6341 71.5228 23.5453C71.6078 23.4609 71.677 23.4578 71.9336 23.527L72.2421 23.6102L72.0702 23.7243C71.7513 23.936 71.6507 24.0471 71.6052 24.2381C71.5678 24.3949 71.5901 24.442 71.7318 24.5062C71.8264 24.549 71.9702 24.7197 72.0514 24.8856C72.1326 25.0515 72.2947 25.2434 72.4117 25.312C72.669 25.463 72.7436 25.6233 72.595 25.7059C72.4565 25.7829 72.5226 25.898 72.7055 25.898C72.9244 25.898 72.9257 26.0277 72.714 26.7763C72.4577 27.6829 72.2264 27.9855 71.621 28.2054C71.3826 28.292 71.0926 28.368 70.9766 28.3744C70.707 28.3892 70.4979 28.5026 70.3154 28.7329L70.1706 28.9158L70.1031 28.7394C70.015 28.5092 69.8129 28.4514 69.5229 28.5732C69.2572 28.6849 69.082 28.8629 69.0113 29.0932C68.9481 29.2992 69.172 29.6616 69.5427 29.9531C69.8471 30.1925 70.1886 30.7932 70.2688 31.2303C70.3385 31.6105 70.2149 31.86 69.8834 32.0085C69.7324 32.0761 69.591 32.187 69.5693 32.2549C69.5172 32.418 69.205 32.6211 69.1478 32.5292C69.124 32.4908 69.123 32.4014 69.1457 32.3303C69.1684 32.2593 69.1673 32.1502 69.1432 32.0879C69.1086 31.9982 69.0702 31.9901 68.9592 32.0491C68.8436 32.1106 68.799 32.095 68.7056 31.9606C68.4762 31.6302 67.8111 31.0993 67.6268 31.0993C67.5618 31.0993 67.5368 31.1769 67.5479 31.3437C67.5568 31.4781 67.5293 31.7401 67.4866 31.926C67.4172 32.2288 67.4243 32.2843 67.5552 32.46C67.6355 32.5679 67.7212 32.7351 67.7456 32.8317C67.7703 32.9297 67.9737 33.1535 68.2062 33.3387C68.5937 33.6474 68.6346 33.7083 68.7977 34.2211C68.8941 34.524 68.9729 34.8017 68.9729 34.8381C68.9729 34.9565 68.826 34.9085 68.5195 34.6899C68.2027 34.464 68.0003 34.1065 67.8316 33.4746C67.7583 33.2002 67.6779 33.0826 67.4499 32.9161C67.1703 32.7118 67.1619 32.694 67.1844 32.356C67.1972 32.164 67.2289 31.8919 67.2548 31.7513C67.2913 31.5533 67.2611 31.4115 67.1211 31.1229C67.0216 30.9179 66.904 30.6031 66.8597 30.4234C66.7607 30.0217 66.621 29.9545 66.3739 30.1895C66.2717 30.2867 66.1684 30.3662 66.1443 30.3662C66.0324 30.3662 65.8787 30.1297 65.9155 30.0143C65.9825 29.8047 65.5706 29.0742 65.3296 28.9751C65.1977 28.9208 65.0771 28.7893 64.9965 28.6116C64.8563 28.3028 64.699 28.1847 64.5419 28.2701C64.4849 28.3011 64.2567 28.3634 64.0348 28.4086C63.628 28.4915 63.482 28.6138 63.5377 28.8253C63.5582 28.9031 63.487 28.9783 63.3163 29.0592C63.178 29.1247 63.0289 29.2565 62.985 29.352C62.9412 29.4476 62.8447 29.5449 62.7705 29.5682C62.6964 29.5916 62.582 29.6985 62.5163 29.8057C62.4507 29.9129 62.2551 30.1089 62.0818 30.2412C61.8445 30.4222 61.7705 30.5235 61.7823 30.6509C61.8512 31.3954 61.7454 32.0183 61.4873 32.3882C61.2355 32.749 61.2178 32.7591 61.0048 32.6627C60.8875 32.6096 60.8153 32.506 60.7854 32.3478C60.7609 32.2181 60.6193 31.8527 60.4708 31.5359C59.5718 29.6185 59.4389 29.2526 59.5155 28.9064C59.5672 28.6724 59.443 28.3194 59.3231 28.3594C59.275 28.3754 59.2348 28.4329 59.2338 28.4872C59.2278 28.8059 58.8673 28.8548 58.5857 28.5752L58.3991 28.3899L58.5596 28.3309C58.7402 28.2645 58.7236 28.0856 58.5399 28.1184C58.4746 28.1301 58.3252 28.0594 58.2078 27.9613C58.0905 27.8633 57.9674 27.783 57.9343 27.783C57.9012 27.783 57.854 27.7199 57.8293 27.6426C57.7645 27.4399 57.3915 27.2635 57.2046 27.3472C57.0364 27.4225 55.5103 27.4068 55.2549 27.3271C55.1629 27.2984 54.9927 27.167 54.8767 27.0352C54.6671 26.797 54.6638 26.796 54.3494 26.8802C54.0515 26.9599 54.0082 26.9524 53.6068 26.7512C53.2601 26.5774 53.1562 26.4836 53.0491 26.2479C52.9125 25.9471 52.6092 25.7293 52.4248 25.7996C52.3667 25.8217 52.2988 25.9317 52.274 26.044C52.2383 26.2052 52.2747 26.31 52.4471 26.5428C52.5671 26.7049 52.6979 26.9576 52.7377 27.1044C52.8232 27.4197 52.992 27.5135 53.132 27.3235C53.2165 27.2087 53.2393 27.2047 53.2965 27.2947C53.333 27.3521 53.3527 27.4305 53.3402 27.4689C53.3011 27.5896 53.7068 27.7881 53.8961 27.741C53.9918 27.7171 54.1962 27.5553 54.3503 27.3814C54.5932 27.1074 54.678 27.0889 54.6365 27.319C54.6086 27.4739 54.7313 27.6554 54.9344 27.7597C55.2481 27.9207 55.6852 28.2795 55.6852 28.376C55.6852 28.4205 55.603 28.533 55.5026 28.6261C55.4022 28.7192 55.2576 28.9162 55.1814 29.0638C54.9962 29.4226 54.4593 29.9473 54.2775 29.9473C54.0673 29.9473 53.7548 30.1235 53.6303 30.3121C53.5714 30.4015 53.4164 30.5275 53.2859 30.5922C52.6177 30.9234 51.8132 31.2593 51.5867 31.3015C51.3447 31.3466 51.3251 31.3357 51.1968 31.0845C51.1225 30.9391 51.0383 30.6473 51.0096 30.4361C50.9722 30.1614 50.8998 29.9868 50.7551 29.8227C50.6439 29.6966 50.5529 29.5631 50.5529 29.5261C50.5529 29.4891 50.426 29.329 50.271 29.1703C50.0779 28.9727 49.9531 28.7582 49.8748 28.4895C49.812 28.2737 49.6842 28.003 49.5908 27.8878C48.9456 27.0921 48.7545 26.8115 48.6583 26.5185C48.5308 26.1302 48.423 26.0675 48.3733 26.3527L48.338 26.5552L48.1001 26.257C47.7336 25.7975 47.6875 26.0064 48.0315 26.5673C48.1943 26.8328 48.4538 27.3013 48.6082 27.6085C48.7626 27.9157 48.9628 28.2642 49.053 28.3831C49.146 28.5054 49.2171 28.6966 49.2171 28.824C49.2171 29.0871 49.2962 29.2513 49.6066 29.6332C49.7315 29.7868 49.8549 30.011 49.8808 30.1315C49.914 30.286 50.0497 30.4476 50.3415 30.68C50.7848 31.0331 51.0721 31.4017 51.1434 31.7089C51.1702 31.8243 51.2717 31.9428 51.4004 32.0089C51.5964 32.1096 51.6654 32.1068 52.285 31.9735C52.6547 31.894 53.0462 31.7831 53.1551 31.7272L53.3532 31.6255L53.4002 31.9018C53.4429 32.153 53.397 32.2739 52.8965 33.2272C52.3583 34.2521 52.3331 34.286 51.7981 34.7055C51.4969 34.9416 51.1817 35.2307 51.0976 35.3479C51.0136 35.4651 50.7447 35.7816 50.5002 36.0513C49.7864 36.8383 49.6894 37.5304 50.1628 38.4582C50.283 38.6938 50.33 38.8722 50.3015 38.9849C50.2778 39.0787 50.293 39.3156 50.3352 39.5113C50.4018 39.8195 50.3943 39.9019 50.2791 40.1261C50.1128 40.4495 49.9806 40.5658 49.5159 40.797C49.3129 40.898 49.1468 41.0105 49.1468 41.047C49.1468 41.0835 49.0044 41.2725 48.8304 41.4671C48.6564 41.6616 48.5141 41.8524 48.5141 41.8911C48.5141 41.9297 48.5793 42.0883 48.659 42.2435C48.898 42.7087 48.7374 43.0458 48.1645 43.2815C47.923 43.3808 47.8437 43.5836 47.9034 43.9492C47.9347 44.1408 47.9148 44.2045 47.8055 44.2626C47.7301 44.3027 47.5937 44.452 47.5024 44.5943C47.2142 45.0438 46.3857 45.8391 46.0094 46.0276C45.6954 46.1849 45.615 46.1988 45.3843 46.1355C45.1809 46.0797 45.0167 46.0886 44.6756 46.1737C44.1231 46.3115 44.1817 46.3172 43.9678 46.1047L43.9678 46.1047ZM53.228 23.8366C53.4095 23.7434 53.4354 23.6921 53.4354 23.4263C53.4354 23.2357 53.3944 23.0886 53.3253 23.0317C53.2648 22.9818 53.1667 22.8477 53.1073 22.7337C53.0091 22.5451 53.0095 22.5303 53.1119 22.5693C53.2472 22.6209 53.4354 22.5589 53.4354 22.4628C53.4354 22.4249 53.37 22.3026 53.2901 22.1911C53.1697 22.0232 53.1214 22.0008 53.0089 22.0606C52.9178 22.109 52.873 22.1094 52.873 22.062C52.873 22.023 52.7475 21.9275 52.5941 21.8498C52.2547 21.6779 52.1339 21.4874 52.2398 21.2909C52.3199 21.1423 52.6061 21.0381 52.7284 21.1131C52.8932 21.2143 52.9418 21.0652 52.8058 20.8755C52.476 20.4157 52.0169 20.4459 51.4475 20.9651C51.0801 21.3001 51.0481 21.3891 51.256 21.4996C51.3333 21.5407 51.3966 21.621 51.3966 21.6781C51.3966 21.7352 51.5216 21.9167 51.6745 22.0813C52.0265 22.4606 52.091 22.6339 52.0475 23.0827L52.0124 23.444L52.4954 23.6901C52.7611 23.8255 52.9879 23.9378 52.9995 23.9397C53.0111 23.9416 53.1139 23.8952 53.228 23.8366H53.228ZM51.2911 43.3385C51.0926 43.2267 51.0644 43.1677 51.0126 42.7556C50.9711 42.4263 50.9884 42.3547 51.1868 42.0345C51.3884 41.7091 51.4029 41.6465 51.3584 41.293C51.2942 40.7827 51.4035 40.5145 51.7022 40.4494C51.9836 40.3881 52.5925 39.8543 52.7384 39.541L52.8499 39.3016L52.9274 39.4705C53.1224 39.8954 53.1025 40.0821 52.7633 41.0141C52.5818 41.5128 52.3871 42.1094 52.3306 42.3397C52.1498 43.0771 52.0471 43.2549 51.751 43.343C51.4357 43.4368 51.4662 43.4371 51.2911 43.3385ZM85.9236 42.1247C85.6992 41.8809 85.565 41.6718 85.565 41.5661C85.565 41.3319 85.6029 41.3523 85.8057 41.6961C85.9027 41.8605 86.0781 42.0863 86.1954 42.1979C86.3127 42.3095 86.4086 42.4263 86.4086 42.4575C86.4086 42.5918 86.259 42.4891 85.9236 42.1247ZM54.5603 42.0256C54.5603 41.9872 54.592 41.9558 54.6306 41.9558C54.6693 41.9558 54.7009 41.9872 54.7009 42.0256C54.7009 42.064 54.6693 42.0954 54.6306 42.0954C54.592 42.0954 54.5603 42.064 54.5603 42.0256ZM91.5837 41.8982C91.5589 41.8584 91.5729 41.8047 91.6148 41.779C91.7192 41.7149 91.7562 41.7659 91.6865 41.878C91.6491 41.938 91.6129 41.9451 91.5837 41.8982ZM55.0525 41.7853C55.0525 41.7684 55.0841 41.7351 55.1228 41.7114C55.1614 41.6877 55.1931 41.7015 55.1931 41.7422C55.1931 41.7829 55.1614 41.8161 55.1228 41.8161C55.0841 41.8161 55.0525 41.8023 55.0525 41.7853ZM89.7554 41.0768C89.687 40.8995 89.7739 40.8374 89.9677 40.9251C90.1349 41.0008 90.1386 41.0124 90.022 41.097C89.859 41.2154 89.8075 41.2115 89.7554 41.0768ZM90.2009 40.7663C90.0635 40.682 90.1587 40.6146 90.3772 40.6414C90.5485 40.6625 90.5524 40.6701 90.4301 40.745C90.3519 40.7929 90.2583 40.8015 90.2009 40.7663ZM86.9184 40.5101C86.774 40.2013 86.8246 40.0827 86.9739 40.3799C87.1293 40.6892 87.132 40.6993 87.059 40.6985C87.03 40.6982 86.9667 40.6134 86.9184 40.5101ZM87.1875 40.4605C87.1845 40.3869 87.2011 40.3457 87.2245 40.3689C87.2478 40.3921 87.2503 40.4523 87.23 40.5027C87.2076 40.5584 87.1909 40.5419 87.1875 40.4605H87.1875ZM92.9111 39.7902C92.8468 39.6868 92.9078 39.634 93.0579 39.6631C93.1678 39.6844 93.1689 39.6957 93.0697 39.7774C92.9906 39.8425 92.9459 39.8461 92.9111 39.7902ZM51.3614 39.4424C51.3375 39.404 51.3515 39.3725 51.3924 39.3725C51.4334 39.3725 51.4669 39.404 51.4669 39.4424C51.4669 39.4808 51.4529 39.5122 51.4359 39.5122C51.4188 39.5122 51.3853 39.4808 51.3614 39.4424ZM82.2255 38.7864C81.7806 38.6471 81.5788 38.5177 81.4037 38.2593C81.2037 37.964 80.8376 37.7405 80.6506 37.7995C80.5751 37.8233 80.4478 37.9528 80.3679 38.0873C80.2319 38.3162 80.2058 38.3288 79.9586 38.2852C79.8133 38.2596 79.6105 38.1608 79.5077 38.0657C79.3772 37.9449 79.2771 37.9067 79.1752 37.9388C79.095 37.9641 78.9788 37.9566 78.917 37.9223C78.8204 37.8686 78.8299 37.8434 78.9845 37.7428C79.1635 37.6263 79.1638 37.6248 79.0436 37.3746C78.9472 37.1737 78.814 37.069 78.3788 36.8516C78.0794 36.7022 77.741 36.5799 77.6268 36.5799C77.3653 36.5799 77.2574 36.3406 77.4543 36.1976C77.5714 36.1125 77.5543 36.0914 77.2487 35.9439C76.9242 35.7873 76.9195 35.7807 77.0745 35.6952C77.1621 35.6469 77.3032 35.6063 77.388 35.6049C77.5527 35.6023 77.7611 35.8383 77.7611 36.0275C77.7611 36.0906 77.8294 36.2285 77.913 36.334C78.0627 36.523 78.0666 36.5238 78.1767 36.3873C78.2381 36.3111 78.4342 36.1658 78.6125 36.0644L78.9366 35.8799L79.3858 36.0812C79.6329 36.1919 79.9837 36.3356 80.1653 36.4006C80.3469 36.4656 80.7102 36.6588 80.9725 36.8299C81.4736 37.1567 81.6913 37.4323 81.5664 37.5816C81.4647 37.7034 81.8644 38.2581 82.2782 38.5693C82.733 38.9113 82.7253 38.943 82.2255 38.7864ZM85.2852 38.7808C85.2297 38.7144 85.2244 38.6744 85.271 38.6744C85.356 38.6744 85.455 38.8068 85.4063 38.8553C85.3886 38.8728 85.3341 38.8393 85.2852 38.7808V38.7808ZM73.4724 38.4966C73.3705 38.4406 73.341 38.3995 73.4021 38.3987C73.5277 38.397 73.7285 38.5132 73.6812 38.5602C73.663 38.5783 73.569 38.5497 73.4724 38.4966ZM74.661 38.4043C74.8604 38.1263 75.1724 38.0073 75.4609 38.0993C75.6711 38.1663 75.6744 38.1719 75.5075 38.1785C75.4087 38.1825 75.1783 38.2799 74.9953 38.3951C74.5779 38.658 74.4772 38.6608 74.661 38.4043ZM84.8619 38.4998C84.7669 38.3862 84.7896 38.372 84.9616 38.4375C85.0228 38.4608 85.0728 38.5079 85.0728 38.5422C85.0728 38.6388 84.9589 38.6159 84.8619 38.4998ZM85.1912 38.4382C85.1648 38.3698 85.1451 38.2615 85.1476 38.1974C85.1506 38.1203 85.175 38.1379 85.2199 38.2495C85.2572 38.3422 85.2769 38.4506 85.2635 38.4903C85.2502 38.5301 85.2176 38.5066 85.1912 38.4382ZM90.627 38.504C90.627 38.487 90.6586 38.4538 90.6973 38.43C90.7359 38.4063 90.7676 38.4202 90.7676 38.4608C90.7676 38.5015 90.7359 38.5348 90.6973 38.5348C90.6586 38.5348 90.627 38.5209 90.627 38.504ZM72.6459 38.2107C72.5974 38.1904 72.5755 38.145 72.5974 38.1099C72.6511 38.0236 73.1017 38.0284 73.1561 38.1159C73.18 38.1543 73.1581 38.1861 73.1075 38.1866C73.0569 38.1872 72.9522 38.2011 72.8749 38.2177C72.7975 38.2342 72.6945 38.2311 72.6459 38.2107V38.2107ZM73.6897 38.1583C73.5619 38.0055 73.7092 37.9589 74.0404 38.0475C74.374 38.1367 74.3729 38.1507 74.0271 38.2127C73.8475 38.2449 73.7487 38.229 73.6897 38.1583ZM84.2455 38.1159C84.1968 38.0385 84.1882 37.9762 84.2261 37.9762C84.2637 37.9762 84.3284 38.0391 84.3698 38.1159C84.4112 38.1927 84.4199 38.2555 84.3892 38.2555C84.3585 38.2555 84.2938 38.1927 84.2455 38.1159ZM84.6858 38.0456C84.4978 37.8394 84.5984 37.8069 84.7919 38.0114C84.8825 38.1073 84.9245 38.1857 84.8851 38.1857C84.8457 38.1857 84.756 38.1226 84.6858 38.0456ZM71.5039 38.0335C71.2526 37.9989 70.8982 37.9221 70.7164 37.8629C70.5346 37.8037 70.3204 37.7758 70.2404 37.801C70.0795 37.8518 69.3947 37.6519 69.3947 37.5542C69.3947 37.331 70.025 37.3141 70.3599 37.5282C70.485 37.6082 70.5835 37.6135 70.8479 37.5547C71.1408 37.4895 71.2018 37.4975 71.3739 37.6239C71.4809 37.7025 71.6004 37.7668 71.6393 37.7668C71.7783 37.7668 72.2003 38.0003 72.1646 38.0575C72.1447 38.0896 72.0907 38.1115 72.0446 38.1061C71.9986 38.1008 71.7552 38.0681 71.5039 38.0335ZM84.1237 37.697C84.0537 37.6202 84.0281 37.5573 84.0668 37.5573C84.1054 37.5573 84.1943 37.6202 84.2643 37.697C84.3343 37.7738 84.3599 37.8366 84.3213 37.8366C84.2826 37.8366 84.1937 37.7738 84.1237 37.697ZM83.6803 37.6085C83.6404 37.5607 83.5874 37.4276 83.5625 37.3126C83.5224 37.1274 83.5269 37.1194 83.6018 37.2432C83.6484 37.32 83.7315 37.4346 83.7866 37.498C83.845 37.5652 83.8589 37.6304 83.8199 37.6543C83.7831 37.6769 83.7203 37.6563 83.6803 37.6085ZM82.1914 37.3865L82.0167 37.2905L82.2875 37.2401C82.4364 37.2123 82.6653 37.0963 82.7961 36.9823C82.9389 36.8578 83.0336 36.8126 83.0329 36.8694C83.0313 37.0114 82.9448 37.1208 82.682 37.3133C82.4075 37.5144 82.4205 37.5125 82.1914 37.3865ZM69.0032 37.1147C68.7449 36.9686 68.279 36.4032 68.1273 36.0518C68.0455 35.8623 67.858 35.5501 67.7107 35.3581C67.5633 35.1661 67.3942 34.9148 67.3348 34.7996C67.2755 34.6844 67.0951 34.4645 66.9341 34.3109C66.5945 33.987 66.3857 33.6467 66.528 33.6491C66.7125 33.6523 67.1874 33.9145 67.391 34.1257C67.9529 34.7082 68.0681 34.8118 68.3333 34.9741C68.5893 35.1307 68.7105 35.2937 68.7227 35.4977C68.725 35.5361 68.7978 35.6461 68.8845 35.7421C68.9712 35.8381 69.1347 36.0186 69.2479 36.1433C69.3612 36.268 69.4742 36.4625 69.4993 36.5756C69.5811 36.9457 69.281 37.2719 69.0032 37.1147ZM54.8415 37.0686C54.8415 37.0302 54.8732 36.9988 54.9118 36.9988C54.9505 36.9988 54.9822 37.0302 54.9822 37.0686C54.9822 37.107 54.9505 37.1384 54.9118 37.1384C54.8732 37.1384 54.8415 37.107 54.8415 37.0686ZM73.4369 37.068C73.4128 37.0292 73.4126 36.9364 73.4362 36.8617C73.4601 36.7869 73.4311 36.6523 73.3716 36.5621C73.2737 36.4137 73.2746 36.3826 73.3815 36.2311C73.4464 36.1391 73.5229 35.892 73.5516 35.6821C73.587 35.4231 73.6569 35.2477 73.7691 35.1363C73.9225 34.9839 73.9611 34.9771 74.306 35.0421C74.6022 35.0979 74.7187 35.091 74.8799 35.0082C75.1499 34.8695 75.1696 34.8757 75.0799 35.0711C74.966 35.3195 74.7383 35.3989 74.4982 35.274C74.0694 35.0509 73.5006 35.3824 73.8007 35.6805C73.911 35.79 73.9721 35.8 74.1764 35.7418C74.5266 35.642 74.6647 35.6603 74.4472 35.7777C74.201 35.9105 74.1543 36.0579 74.2812 36.3016C74.3389 36.4124 74.3861 36.5844 74.3861 36.6836C74.3861 36.8425 74.3693 36.8551 74.2454 36.7893C74.168 36.7481 74.0564 36.5996 73.9973 36.4592C73.8907 36.2058 73.8888 36.2049 73.7524 36.3404C73.6327 36.4592 73.6247 36.512 73.6902 36.7475C73.7493 36.9604 73.7454 37.0307 73.6715 37.0772C73.5473 37.1554 73.4896 37.1531 73.4366 37.068H73.4369ZM83.0829 36.6956C83.0166 36.5952 82.8648 36.4629 82.7456 36.4017C82.6263 36.3404 82.5446 36.2746 82.5639 36.2554C82.6732 36.1469 83.2833 36.6399 83.2313 36.7948C83.2154 36.8424 83.1516 36.7998 83.0829 36.6956ZM72.0424 36.4632C71.9363 36.4081 71.7934 36.3806 71.7248 36.4022C71.5499 36.4573 70.8551 36.3169 70.7863 36.2125C70.7315 36.1295 70.5705 35.618 70.4843 35.2534C70.4606 35.1531 70.4843 35.0231 70.5396 34.9478C70.6201 34.8386 70.6617 34.8304 70.7891 34.8981C70.9237 34.9696 70.9522 34.9573 71.0259 34.7966C71.072 34.6961 71.2256 34.5552 71.3671 34.4835C71.517 34.4076 71.661 34.2654 71.712 34.143C71.7709 34.0019 71.8783 33.9071 72.0392 33.8544C72.171 33.8112 72.3613 33.6685 72.4621 33.5372C72.563 33.4059 72.683 33.2985 72.7288 33.2985C72.7746 33.2985 72.9134 33.4022 73.0371 33.529L73.262 33.7595L73.0817 34.0003C72.8769 34.2738 72.8876 34.5091 73.1197 34.8328L73.2602 35.0287L73.0851 35.1427C72.9888 35.2053 72.9101 35.2951 72.9103 35.3423C72.911 35.5022 72.4604 36.4239 72.3475 36.4939C72.2689 36.5427 72.1774 36.5335 72.0424 36.4632ZM76.1265 36.462C75.981 36.4242 75.9608 36.3006 76.1001 36.3006C76.1533 36.3006 76.3021 36.3215 76.4308 36.3471C76.6289 36.3865 76.6437 36.4018 76.5275 36.4469C76.3748 36.5062 76.3069 36.5088 76.1265 36.462ZM87.3226 35.5717C87.3226 35.5547 87.3542 35.5215 87.3929 35.4977C87.4316 35.474 87.4632 35.4879 87.4632 35.5285C87.4632 35.5692 87.4316 35.6025 87.3929 35.6025C87.3542 35.6025 87.3226 35.5886 87.3226 35.5717ZM75.8802 35.3823C75.824 35.3265 75.8207 35.2618 75.8694 35.1714C75.908 35.0997 75.9209 35.0109 75.898 34.9741C75.8346 34.8722 75.9934 34.625 76.1223 34.625C76.2256 34.625 76.2252 34.637 76.1178 34.7549C76.0249 34.8568 76.0145 34.9243 76.0697 35.0685C76.1813 35.3599 76.0599 35.5609 75.8801 35.3823H75.8802ZM40.5696 35.1528C40.5696 35.1358 40.6012 35.1026 40.6399 35.0788C40.6785 35.0551 40.7102 35.069 40.7102 35.1096C40.7102 35.1503 40.6785 35.1836 40.6399 35.1836C40.6012 35.1836 40.5696 35.1697 40.5696 35.1528ZM89.3263 34.9741C89.3024 34.9357 89.3164 34.9043 89.3573 34.9043C89.3983 34.9043 89.4318 34.9357 89.4318 34.9741C89.4318 35.0125 89.4178 35.0439 89.4008 35.0439C89.3837 35.0439 89.3502 35.0125 89.3263 34.9741ZM40.9914 34.315C40.9914 34.298 41.023 34.2648 41.0617 34.241C41.1004 34.2173 41.132 34.2312 41.132 34.2718C41.132 34.3125 41.1004 34.3458 41.0617 34.3458C41.023 34.3458 40.9914 34.3319 40.9914 34.315ZM74.809 33.2653C74.6749 32.9546 74.657 32.9407 74.4506 32.9857C74.2449 33.0306 74.2377 33.0251 74.3148 32.882C74.3786 32.7636 74.4378 32.7401 74.5891 32.7731C74.7349 32.8049 74.828 32.7727 74.9708 32.6413C75.0748 32.5456 75.1605 32.4109 75.1613 32.3419C75.1635 32.1657 75.4246 32.7566 75.4842 33.0726C75.5294 33.3125 75.5238 33.3255 75.4139 33.2352C75.2508 33.101 75.0938 33.2402 75.2276 33.4003C75.281 33.4642 75.2879 33.508 75.2444 33.508C75.2042 33.508 75.1215 33.5269 75.0607 33.5501C74.9791 33.5812 74.9131 33.5066 74.809 33.2653ZM61.9903 33.3886C61.9117 33.2619 61.867 32.6929 61.9238 32.542C61.984 32.3819 61.9885 32.3838 62.1676 32.6467C62.3823 32.9617 62.451 33.1638 62.3802 33.2717C62.3124 33.3749 62.0336 33.4586 61.9903 33.3886ZM77.6908 33.0275C77.6908 32.9891 77.7224 32.9383 77.7611 32.9145C77.7998 32.8908 77.8314 32.9028 77.8314 32.9412C77.8314 32.9796 77.7998 33.0304 77.7611 33.0542C77.7224 33.0779 77.6908 33.0659 77.6908 33.0275ZM88.7287 33.0193C88.7287 32.9809 88.7427 32.9494 88.7597 32.9494C88.7768 32.9494 88.8103 32.9809 88.8342 33.0193C88.8581 33.0577 88.8441 33.0891 88.8032 33.0891C88.7622 33.0891 88.7287 33.0577 88.7287 33.0193ZM72.7694 32.6159C72.7694 32.5861 72.9104 32.4054 73.0826 32.2145C73.3351 31.9347 73.3965 31.8951 73.399 32.0107C73.4008 32.0896 73.2951 32.2703 73.1642 32.4122C72.9422 32.6528 72.7694 32.742 72.7694 32.6159ZM74.2922 32.4296C74.2665 32.3633 74.2717 32.2627 74.3037 32.206C74.3532 32.1181 74.3739 32.1172 74.4433 32.2002C74.5054 32.2746 74.5026 32.3275 74.4317 32.4239C74.3446 32.5422 74.3358 32.5426 74.2922 32.4296V32.4296ZM20.453 32.1576C20.4961 32.1061 20.5105 32.0432 20.485 32.018C20.4596 31.9927 20.5044 31.972 20.5845 31.972C20.6957 31.972 20.7215 32.0052 20.6935 32.1116C20.6722 32.1927 20.5976 32.2513 20.5157 32.2513C20.4057 32.2513 20.3919 32.2307 20.453 32.1576ZM74.7639 32.1391C74.7377 32.0664 74.7035 31.9834 74.6878 31.9546C74.6721 31.9258 74.6891 31.9022 74.7256 31.9022C74.7957 31.9022 74.8945 32.1889 74.8423 32.2408C74.8254 32.2575 74.7901 32.2118 74.7639 32.1391ZM74.0515 31.9569C73.9527 31.8388 74.049 31.6706 74.1966 31.7033C74.2892 31.7239 74.2926 31.7529 74.2183 31.8895C74.1466 32.0212 74.1157 32.0338 74.0515 31.9569ZM74.8827 31.717C74.802 31.6151 74.7477 31.5201 74.7621 31.5059C74.8192 31.4492 75.0169 31.5742 75.122 31.7335C75.2837 31.9786 75.0787 31.9644 74.8827 31.717ZM73.7269 31.4467C73.6643 31.3846 73.6131 31.2975 73.6131 31.2533C73.6131 31.2092 73.6825 31.2419 73.7673 31.3262C73.8522 31.4105 73.9034 31.4975 73.8812 31.5196C73.8589 31.5417 73.7895 31.5089 73.7269 31.4467ZM18.5405 31.4368C18.5148 31.4112 18.4937 31.3577 18.4937 31.3181C18.4937 31.2743 18.5264 31.2784 18.5769 31.3285C18.6226 31.374 18.6437 31.4274 18.6237 31.4472C18.6038 31.4671 18.5663 31.4624 18.5405 31.4368ZM18.1421 31.3437C18.1421 31.3053 18.1561 31.2739 18.1731 31.2739C18.1902 31.2739 18.2237 31.3053 18.2476 31.3437C18.2715 31.3821 18.2576 31.4135 18.2166 31.4135C18.1757 31.4135 18.1421 31.3821 18.1421 31.3437ZM21.4465 31.204C21.4465 31.1656 21.4604 31.1342 21.4775 31.1342C21.4946 31.1342 21.5281 31.1656 21.552 31.204C21.5759 31.2424 21.5619 31.2739 21.521 31.2739C21.48 31.2739 21.4465 31.2424 21.4465 31.204ZM74.4341 31.1934C74.3636 31.1539 74.23 31.1406 74.1371 31.1637C74.001 31.1976 73.9072 31.1432 73.6523 30.8829C73.2923 30.515 73.2223 30.36 73.3279 30.164C73.3688 30.0883 73.4021 29.9319 73.4021 29.8164C73.4021 29.4374 73.6578 29.4528 73.8451 29.843C73.949 30.0591 73.9496 30.1056 73.852 30.3374C73.747 30.5871 73.7491 30.5982 73.9364 30.7924C74.0718 30.9326 74.1733 30.9803 74.2802 30.9536C74.3706 30.9311 74.4681 30.959 74.5213 31.0227C74.6479 31.1741 74.5927 31.2822 74.4341 31.1934H74.4341ZM21.0247 30.7543C21.0247 30.7374 21.0563 30.7041 21.095 30.6804C21.1336 30.6567 21.1653 30.6705 21.1653 30.7112C21.1653 30.7519 21.1336 30.7851 21.095 30.7851C21.0563 30.7851 21.0247 30.7713 21.0247 30.7543ZM32.0626 30.5059C32.0626 30.4675 32.0942 30.4361 32.1329 30.4361C32.1716 30.4361 32.2032 30.4675 32.2032 30.5059C32.2032 30.5443 32.1716 30.5757 32.1329 30.5757C32.0942 30.5757 32.0626 30.5443 32.0626 30.5059ZM20.8137 30.2348C20.8137 30.1964 20.8454 30.1456 20.8841 30.1219C20.9227 30.0981 20.9544 30.1101 20.9544 30.1485C20.9544 30.1869 20.9227 30.2378 20.8841 30.2615C20.8454 30.2852 20.8137 30.2732 20.8137 30.2348ZM20.2167 29.9481C20.192 29.9086 20.2202 29.8969 20.2828 29.9207C20.4046 29.9671 20.4269 30.0172 20.3258 30.0172C20.2894 30.0172 20.2403 29.9861 20.2167 29.9481ZM31.3947 29.9473C31.3708 29.9089 31.3848 29.8775 31.4257 29.8775C31.4667 29.8775 31.5002 29.9089 31.5002 29.9473C31.5002 29.9857 31.4862 30.0172 31.4692 30.0172C31.4521 30.0172 31.4186 29.9857 31.3947 29.9473ZM20.4974 29.8077C20.4735 29.7693 20.4874 29.7379 20.5284 29.7379C20.5693 29.7379 20.6028 29.7693 20.6028 29.8077C20.6028 29.8461 20.5889 29.8775 20.5718 29.8775C20.5548 29.8775 20.5213 29.8461 20.4974 29.8077ZM20.8137 29.8077C20.8137 29.7693 20.8277 29.7379 20.8448 29.7379C20.8618 29.7379 20.8953 29.7693 20.9192 29.8077C20.9431 29.8461 20.9292 29.8775 20.8882 29.8775C20.8473 29.8775 20.8137 29.8461 20.8137 29.8077ZM15.9803 29.6218C15.9319 29.6025 15.8924 29.5578 15.8924 29.5226C15.8924 29.422 16.2027 29.4479 16.3535 29.5611C16.4831 29.6585 16.4794 29.6635 16.2791 29.6603C16.1631 29.6585 16.0286 29.6412 15.9803 29.6218ZM17.7593 29.5822C17.6962 29.5472 17.5569 29.5376 17.4497 29.561C17.3425 29.5844 17.1776 29.5729 17.0833 29.5354C16.9316 29.4752 16.9451 29.4681 17.1994 29.474C17.5732 29.4826 17.6729 29.4222 17.5774 29.2449C17.5096 29.1191 17.53 29.1095 17.8654 29.1095C18.1898 29.1095 18.6579 29.2573 18.7372 29.3848C18.79 29.4695 17.8852 29.6522 17.7593 29.5822ZM19.1079 29.6264C19.0245 29.5436 19.1281 29.4586 19.3122 29.4586C19.4227 29.4586 19.4788 29.4915 19.4607 29.5459C19.4283 29.6436 19.1819 29.6998 19.1079 29.6264ZM69.9721 29.5153C69.786 29.3305 69.9702 29.1095 70.3106 29.1095C70.4614 29.1095 70.4615 29.1108 70.3321 29.3308C70.1812 29.5874 70.0912 29.6336 69.9721 29.5153ZM19.6889 29.501C19.6889 29.4859 19.7363 29.4555 19.7943 29.4334C19.8523 29.4113 19.8998 29.4236 19.8998 29.4608C19.8998 29.498 19.8523 29.5284 19.7943 29.5284C19.7363 29.5284 19.6889 29.5161 19.6889 29.501ZM16.6497 29.0005C16.628 28.979 16.4796 28.9596 16.3199 28.9574C16.0996 28.9544 16.0467 28.9328 16.1008 28.8682C16.153 28.8057 16.078 28.7225 15.8196 28.5562C15.3128 28.2301 15.0298 28.1663 14.6894 28.3016C14.3701 28.4285 14.3457 28.4321 14.3457 28.3522C14.3457 28.206 14.9052 28.0453 15.3081 28.0757C15.6934 28.1048 15.9092 28.1863 16.6657 28.5882C17.2876 28.9186 17.2883 28.9192 17.0876 28.976C16.8596 29.0406 16.6991 29.0496 16.6497 29.0005ZM17.1579 28.4114C17.2942 28.3239 17.3688 28.3239 17.3688 28.4114C17.3688 28.4498 17.2976 28.4807 17.2106 28.4801C17.0827 28.4793 17.0726 28.4661 17.1579 28.4114ZM73.149 28.2876C73.1065 28.2597 73.0333 28.1646 72.9865 28.0762C72.9158 27.943 72.9231 27.8784 73.0293 27.6978C73.1933 27.419 73.304 27.3842 73.3573 27.5948C73.4132 27.8163 73.2514 28.3547 73.149 28.2876ZM17.6195 28.1945C17.6664 28.1191 17.9313 28.1106 17.9312 28.1845C17.9312 28.2133 17.8523 28.2414 17.7559 28.2469C17.6595 28.2524 17.5981 28.2288 17.6195 28.1945ZM16.2292 27.5216C16.1168 27.3935 16.1331 27.2245 16.258 27.2245C16.2979 27.2245 16.3145 27.2858 16.2947 27.3608C16.275 27.4357 16.295 27.51 16.3392 27.5258C16.3835 27.5415 16.401 27.5747 16.3782 27.5994C16.3554 27.6241 16.2884 27.5891 16.2292 27.5216ZM16.6376 26.9732C16.6126 26.9084 16.6079 26.8397 16.6273 26.8205C16.6466 26.8013 16.6829 26.8386 16.7079 26.9033C16.7329 26.9681 16.7376 27.0368 16.7183 27.056C16.6989 27.0752 16.6626 27.0379 16.6376 26.9732ZM16.197 26.9103C16.197 26.8527 16.2573 26.8056 16.3309 26.8056C16.45 26.8056 16.4531 26.8172 16.3594 26.9103C16.3014 26.9679 16.2411 27.015 16.2255 27.015C16.2098 27.015 16.197 26.9679 16.197 26.9103ZM75.1598 25.3797C75.1598 25.3251 75.083 25.1897 74.9891 25.0789C74.7663 24.816 74.8452 24.6404 75.1091 24.8121C75.2988 24.9356 75.3979 25.1877 75.328 25.3688C75.2749 25.5061 75.1598 25.5136 75.1598 25.3797ZM20.6028 24.9596C20.6028 24.9427 20.6345 24.9094 20.6731 24.8857C20.7118 24.8619 20.7434 24.8758 20.7434 24.9164C20.7434 24.9571 20.7118 24.9904 20.6731 24.9904C20.6345 24.9904 20.6028 24.9765 20.6028 24.9596ZM75.5516 24.8738C75.506 24.7558 75.6136 24.6443 75.775 24.6424C75.8867 24.641 75.8888 24.7971 75.7785 24.9066C75.6638 25.0204 75.605 25.0119 75.5516 24.8738ZM76.194 24.6189C76.0575 24.4121 75.8646 24.3837 75.4232 24.5054C75.2437 24.5549 75.1201 24.5554 75.0365 24.5071C74.969 24.4681 74.9508 24.4351 74.9962 24.434C75.0416 24.4328 75.174 24.3522 75.2905 24.2549C75.4408 24.1293 75.5509 24.09 75.6697 24.1196C75.7955 24.1509 75.9313 24.0909 76.217 23.8778C76.7732 23.4627 76.8235 23.3319 76.5972 22.8884C76.3801 22.4628 76.4406 22.3258 76.7624 22.5145C76.9966 22.6519 77.2173 23.0455 77.1532 23.2115C77.1301 23.2712 77.1646 23.4586 77.2297 23.628C77.3218 23.8676 77.3306 23.9684 77.2691 24.0825C77.1788 24.2501 76.9275 24.362 76.6418 24.362C76.4817 24.362 76.4338 24.4028 76.3815 24.584L76.3174 24.806L76.194 24.6189V24.6189ZM47.7126 24.3806C47.6287 24.2973 47.6733 24.2224 47.8069 24.2224C47.8819 24.2224 47.9629 24.191 47.9868 24.1526C48.0521 24.0476 48.1636 24.0687 48.1213 24.178C48.0779 24.2903 47.7735 24.4412 47.7126 24.3806ZM45.3152 24.2598L45.1042 24.1639L45.3855 24.1592C45.7357 24.1533 45.9938 24.2186 45.943 24.3001C45.8864 24.391 45.5572 24.3699 45.3152 24.2598ZM42.4751 23.5634C42.1937 23.4203 42.1805 23.4025 42.3273 23.3643C42.5033 23.3186 42.8926 23.3755 42.8847 23.4457C42.882 23.4697 42.8582 23.5413 42.832 23.6049C42.7888 23.7094 42.7545 23.7055 42.4751 23.5634ZM41.0659 22.808C41.0051 22.6347 41.0098 22.5684 41.0889 22.4898C41.2318 22.3479 41.3429 22.4477 41.3429 22.718C41.3429 23.0373 41.1665 23.0946 41.0659 22.808ZM39.4173 22.866C39.4672 22.737 39.6811 22.7152 39.638 22.8435C39.6219 22.8915 39.5561 22.9409 39.4918 22.9533C39.4103 22.969 39.3877 22.9426 39.4173 22.866ZM76.152 22.0692C76.0233 21.8897 76.0198 21.8566 76.1148 21.7219C76.2081 21.5895 76.2078 21.5498 76.1116 21.3652C75.9535 21.0614 75.9757 21.0431 76.25 21.2508C76.3856 21.3535 76.6531 21.4837 76.8445 21.5402C77.2401 21.6568 77.3356 21.7484 77.1293 21.8134C77.0514 21.838 76.9877 21.9037 76.9877 21.9594C76.9877 22.0353 76.9392 22.0484 76.7944 22.0116C76.4234 21.9174 76.318 21.9404 76.3418 22.1104C76.371 22.3188 76.3236 22.3085 76.152 22.0692H76.152ZM41.1789 22.1512C41.0973 22.0702 41.1281 21.9349 41.2375 21.8932C41.3136 21.8642 41.3429 21.9009 41.3429 22.0254C41.3429 22.193 41.2741 22.2457 41.1789 22.1512ZM75.7059 20.6792C75.6462 20.612 75.5024 20.3685 75.3864 20.138C75.2703 19.9075 74.9635 19.4843 74.7045 19.1975C74.4152 18.8771 74.2681 18.6646 74.3231 18.6464C74.3724 18.6301 74.4779 18.7031 74.5577 18.8086C74.7511 19.0644 74.9893 19.2865 75.3652 19.5616C75.6767 19.7896 75.8308 20.0006 75.6298 19.924C75.398 19.8356 75.4558 20.0453 75.7558 20.3807C75.9307 20.5763 76.0738 20.7509 76.0738 20.7688C76.0738 20.8537 75.802 20.7875 75.7059 20.6792ZM24.2587 20.557C24.2587 20.4994 24.2894 20.4523 24.3268 20.4523C24.3643 20.4523 24.3767 20.4994 24.3544 20.557C24.3322 20.6146 24.3015 20.6618 24.2863 20.6618C24.2711 20.6618 24.2587 20.6146 24.2587 20.557ZM23.8913 20.3317L23.6294 20.3045L24.1223 19.8198C24.3934 19.5533 24.6506 19.3352 24.6939 19.3352C24.7396 19.3352 24.7259 19.3865 24.6613 19.4575C24.5149 19.6181 24.6147 19.7985 24.8822 19.8568C24.9989 19.8823 25.1153 19.9712 25.1603 20.0692C25.2325 20.2265 25.2202 20.2426 24.9767 20.3097C24.7211 20.3802 24.4161 20.3864 23.8913 20.3317ZM6.76012 19.8309C6.51658 19.6049 6.48941 19.5098 6.65091 19.4482C6.79553 19.3931 7.06249 19.5728 7.16368 19.7933C7.26985 20.0247 7.26797 20.0334 7.11164 20.0334C7.03839 20.0334 6.88021 19.9423 6.76012 19.8309ZM37.7222 19.4761C37.7995 19.4383 37.9517 19.3754 38.0604 19.3365C38.2998 19.2507 38.2601 19.1593 37.9573 19.0992C37.7495 19.0579 37.7422 19.0474 37.8611 18.9611C37.9319 18.9097 37.9691 18.8346 37.9439 18.7941C37.9182 18.7528 37.9905 18.6885 38.109 18.6475C38.2249 18.6074 38.3198 18.5435 38.3198 18.5056C38.3198 18.3444 38.1732 18.0731 38.0918 18.0836C37.9041 18.108 37.8172 18.0751 37.8474 17.9913C37.8648 17.9433 37.8505 17.849 37.8157 17.7818C37.7252 17.6071 37.9331 17.2457 38.1264 17.2418C38.1554 17.2413 38.1713 17.2793 38.1616 17.3264C38.1519 17.3735 38.2183 17.4232 38.309 17.4368L38.474 17.4617L38.3164 17.6284L38.1587 17.795L38.3364 17.8621C38.5272 17.9341 38.7111 18.1688 38.8983 18.5792C38.988 18.7758 39.047 18.8272 39.1517 18.8C39.3666 18.7442 39.392 18.8888 39.1905 19.0199C39.0539 19.1088 39.028 19.1589 39.0878 19.2183C39.1476 19.2776 39.0297 19.3175 38.6208 19.3761C38.3199 19.4192 37.963 19.4749 37.8276 19.4998C37.6394 19.5344 37.6146 19.5288 37.7222 19.4761ZM36.5366 19.0905C36.5125 19.0282 36.54 18.8868 36.5975 18.7763C36.6636 18.6494 36.6764 18.5593 36.6322 18.5322C36.5104 18.4574 36.556 18.362 36.735 18.3174C36.8301 18.2937 36.9447 18.2303 36.9897 18.1764C37.0834 18.0644 37.5165 18.0437 37.5815 18.1482C37.6054 18.1866 37.5756 18.2878 37.5153 18.3732C37.4551 18.4586 37.4058 18.6121 37.4058 18.7142C37.4058 18.8699 37.3576 18.9164 37.107 19.0028C36.9427 19.0594 36.7569 19.1278 36.6943 19.1547C36.6208 19.1863 36.5648 19.1635 36.5366 19.0905ZM37.8276 18.3968C37.8276 18.3799 37.8593 18.3466 37.898 18.3229C37.9366 18.2992 37.9683 18.313 37.9683 18.3537C37.9683 18.3944 37.9366 18.4276 37.898 18.4276C37.8593 18.4276 37.8276 18.4138 37.8276 18.3968ZM6.62612 18.0605C6.55725 17.978 6.56163 17.9396 6.64805 17.8684C6.79093 17.7507 6.8618 17.8305 6.77864 18.0156C6.72129 18.1432 6.70043 18.1494 6.62612 18.0605ZM6.51617 17.5354C6.49243 17.4972 6.52011 17.4272 6.57769 17.3798C6.692 17.2855 6.71587 17.3594 6.61978 17.51C6.58307 17.5676 6.54239 17.5775 6.51617 17.5354ZM1.97192 17.4909C1.97192 17.4417 2.1851 17.3558 2.48752 17.2831C2.60217 17.2555 2.66995 17.2622 2.64717 17.2988C2.6254 17.3337 2.51993 17.3799 2.41279 17.4014C2.30565 17.4229 2.16262 17.4617 2.09495 17.4877C2.02728 17.5137 1.97192 17.5151 1.97192 17.4909V17.4909ZM43.7509 16.7058C43.6212 16.6538 43.6441 16.5737 43.7919 16.5627C43.8628 16.5574 43.9208 16.5978 43.9208 16.6525C43.9208 16.7565 43.8964 16.7641 43.7509 16.7058ZM28.3013 16.349C27.8564 16.108 27.6437 15.7379 27.7726 15.4288C27.8336 15.2825 27.8355 15.1906 27.7795 15.0868C27.6631 14.8707 27.815 14.6176 28.2035 14.3802C28.388 14.2675 28.5722 14.1136 28.6128 14.0381C28.7254 13.8292 28.6251 13.4711 28.4292 13.3824C28.33 13.3375 28.276 13.2665 28.2979 13.2098C28.3478 13.0807 28.1137 12.6396 27.8806 12.4234C27.709 12.2644 27.6352 12.2485 27.0477 12.2447C26.2476 12.2395 26.0986 12.1953 26.1118 11.9674C26.1173 11.8727 26.1385 11.7952 26.1588 11.7951C26.1791 11.7951 26.4639 11.7623 26.7915 11.7223C27.2099 11.6712 27.585 11.5658 28.0513 11.3683C28.7733 11.0626 28.8283 11.0566 30.551 11.0968C31.095 11.1095 31.5955 11.0695 32.2384 10.962C32.8371 10.8619 33.2776 10.8242 33.5155 10.8526C33.7176 10.8768 34.0103 10.8608 34.1755 10.8167C34.5589 10.7141 35.5551 10.8375 35.9469 11.036C36.1785 11.1533 36.3011 11.1688 36.6919 11.1302C37.1141 11.0884 37.146 11.0939 37.0191 11.1865C36.9418 11.2429 36.7045 11.3118 36.4918 11.3396C36.0303 11.3999 35.6063 11.7266 35.7187 11.9351C35.7672 12.0251 35.7324 12.1019 35.5757 12.251C35.4618 12.3593 35.3519 12.5002 35.3315 12.5639C35.2826 12.7171 34.661 13.0021 34.3528 13.0127C34.0106 13.0245 33.9748 13.0968 34.2395 13.2416C34.3645 13.31 34.5471 13.4265 34.6451 13.5006L34.8234 13.6352L34.6622 13.6944C34.5387 13.7398 34.4384 13.7105 34.2328 13.569C33.9538 13.377 33.6537 13.3761 33.8138 13.5677C33.8763 13.6424 33.8612 13.6714 33.7443 13.7018C33.4831 13.7696 33.6679 13.9038 33.956 13.8555C34.1394 13.8247 34.2425 13.8409 34.2999 13.9095C34.3681 13.9912 34.2791 14.029 33.7671 14.1359C33.429 14.2064 32.9783 14.2668 32.7657 14.2699C32.3706 14.2758 32.0859 14.3884 31.667 14.7045C31.5305 14.8076 31.2402 14.9098 30.9006 14.9743C30.1907 15.1092 29.9509 15.2651 29.5231 15.8699C29.1796 16.3557 28.9725 16.5368 28.7583 16.5385C28.7003 16.539 28.4946 16.4537 28.3013 16.349ZM23.3163 15.882C23.1653 15.7899 22.9803 15.6181 22.9051 15.5002C22.7584 15.2701 22.6231 15.2409 22.227 15.3537C22.093 15.3919 21.9425 15.3955 21.8823 15.3621C21.6741 15.2464 22.0502 15.1326 22.469 15.1846C22.7875 15.2241 22.8583 15.2128 22.8954 15.1167C22.97 14.9236 23.3116 14.7852 23.5015 14.8711C23.6184 14.924 23.7247 14.9225 23.874 14.8659C24.0749 14.7898 24.0777 14.7829 23.9465 14.6872C23.8714 14.6325 23.7857 14.5877 23.7561 14.5877C23.7265 14.5877 23.6194 14.4475 23.5183 14.2761C23.4171 14.1046 23.2275 13.8988 23.0969 13.8187C22.875 13.6825 22.8457 13.6801 22.6472 13.782C22.4737 13.8711 22.3734 13.8774 22.0989 13.8161C21.9141 13.7749 21.6561 13.7611 21.5255 13.7853C21.299 13.8274 20.8841 13.7173 20.8841 13.6152C20.8841 13.4276 21.4795 13.0065 21.8332 12.944L22.1144 12.8943L21.9134 13.107C21.6361 13.4004 21.7404 13.5354 22.0415 13.2729C22.1692 13.1615 22.39 13.0487 22.5321 13.0222C22.7492 12.9818 22.8422 13.0082 23.1148 13.1875C23.4775 13.4261 23.5054 13.4325 23.71 13.3238C23.8332 13.2583 23.8788 13.2763 24.0126 13.4429C24.1051 13.5581 24.3117 13.6836 24.5132 13.7469C24.8343 13.8478 24.8563 13.8697 24.8563 14.0896C24.8563 14.2546 24.9042 14.3586 25.017 14.4387C25.4888 14.7738 25.4785 14.76 25.3764 14.9223C25.2364 15.1449 25.1259 15.161 24.8161 15.0041C24.6006 14.8949 24.5064 14.8799 24.3979 14.9376C24.2651 15.0081 24.2637 15.0232 24.3706 15.2284C24.4583 15.3969 24.4663 15.4819 24.4067 15.6118C24.3333 15.7719 24.3216 15.7744 24.1221 15.672C23.7301 15.4706 23.4661 15.6031 23.8318 15.8177C23.9464 15.8849 24.0242 15.9655 24.0047 15.9969C23.9366 16.1063 23.5887 16.0482 23.3163 15.882V15.882ZM37.7573 15.9724C37.7573 15.9404 37.8048 15.9142 37.8628 15.9142C37.9208 15.9142 37.9683 15.9404 37.9683 15.9724C37.9683 16.0044 37.9208 16.0306 37.8628 16.0306C37.8048 16.0306 37.7573 16.0044 37.7573 15.9724ZM20.6655 15.597C20.5268 15.5246 20.4192 15.5184 20.2251 15.5716C19.8951 15.6621 19.7797 15.5959 19.9471 15.4121C20.1615 15.1769 20.3069 15.1306 20.5655 15.2154C20.8565 15.3107 20.9857 15.4525 20.9072 15.5904C20.8571 15.6783 20.823 15.6792 20.6655 15.597ZM34.6287 15.5652C34.5127 15.4894 34.3651 15.444 34.3006 15.4643C34.2118 15.4922 34.1921 15.4679 34.2194 15.3645C34.2612 15.2056 34.879 14.9764 35.0878 15.0422C35.1606 15.0651 35.3466 15.0463 35.5013 15.0003C35.744 14.928 35.8084 14.9335 35.9725 15.0403L36.1625 15.1639L35.9932 15.2949C35.8503 15.4055 35.5853 15.5015 34.9451 15.6744C34.8871 15.6901 34.7448 15.6409 34.6287 15.5652ZM15.5408 14.2619C15.4442 14.2467 15.2087 14.1646 15.0175 14.0794L14.67 13.9245L15.1581 13.8896C15.4266 13.8704 15.6463 13.8232 15.6463 13.7848C15.6463 13.7464 15.4565 13.6982 15.2245 13.6776C14.9181 13.6504 14.8604 13.6313 15.0136 13.6078C15.27 13.5684 15.2885 13.4581 15.0487 13.398C14.876 13.3547 14.8773 13.352 15.1202 13.2481C15.5411 13.068 15.9894 13.0335 16.3867 13.1507C16.7128 13.2468 16.7637 13.2464 16.9175 13.1464C17.0262 13.0756 17.0907 13.0638 17.0964 13.1136C17.1012 13.1564 17.1091 13.2281 17.1139 13.2729C17.1302 13.4241 17.2705 13.4045 17.4378 13.2277C17.5927 13.0639 17.8613 12.9855 17.8607 13.1041C17.8605 13.1329 17.798 13.2582 17.7217 13.3824L17.5829 13.6084L17.8098 13.7259L18.0367 13.8435L17.6642 14.0123C17.328 14.1647 17.2591 14.1734 16.9578 14.1016C16.6656 14.032 16.5818 14.04 16.2875 14.1653C15.955 14.3068 15.8849 14.3159 15.5408 14.2619ZM18.3605 14.2127C18.297 14.1367 18.3232 14.0993 18.4874 14.0318C18.6016 13.9848 18.7654 13.9692 18.8532 13.9968C19.0055 14.0448 19.002 14.0524 18.7705 14.1748C18.4752 14.331 18.4605 14.3323 18.3605 14.2127ZM37.7573 13.8896C37.8936 13.8021 37.9683 13.8021 37.9683 13.8896C37.9683 13.928 37.8971 13.9589 37.8101 13.9583C37.6822 13.9575 37.6721 13.9443 37.7573 13.8896ZM50.6584 13.6959C50.2989 13.5549 50.3063 13.5626 50.4109 13.4374C50.4598 13.3789 50.4722 13.33 50.4385 13.3288C50.4048 13.3276 50.4404 13.2791 50.5178 13.2211C50.5951 13.1631 50.6589 13.0934 50.6595 13.0662C50.662 12.963 50.9482 12.6906 51.1505 12.5991C51.2665 12.5466 51.5671 12.4875 51.8184 12.4677C52.0698 12.4479 52.4064 12.4115 52.5665 12.387C52.737 12.3609 52.8759 12.3715 52.9015 12.4128C52.9514 12.4929 52.8562 12.5269 52.3105 12.6243C51.7691 12.7209 51.4436 12.8714 51.2292 13.1244C51.0034 13.3909 50.9958 13.5592 51.2032 13.7028L51.3614 13.8124L51.1505 13.8093C51.0345 13.8076 50.813 13.7565 50.6584 13.6959V13.6959ZM13.8363 13.4934C13.7229 13.3809 13.7487 13.3563 14.2927 13.0606C14.9301 12.7141 15.2504 12.6681 15.8221 12.841L16.1384 12.9366L15.7166 13.0197C15.3716 13.0876 14.6405 13.3304 14.0632 13.5687C14.0043 13.5931 13.9026 13.5593 13.8363 13.4934ZM18.9155 13.4031C18.9155 13.3659 18.8285 13.2859 18.7222 13.2253L18.5288 13.1151L18.7877 13.1555C18.9716 13.1843 19.0632 13.1671 19.1041 13.0964C19.1527 13.0123 19.6001 12.844 19.7786 12.8427C19.8085 12.8425 19.7841 12.9365 19.7241 13.0515C19.583 13.3225 18.9155 13.6127 18.9155 13.4031ZM20.0101 13.1992C19.9094 13.0374 20.5973 12.7869 20.8896 12.879C21.1025 12.9461 20.9602 13.0614 20.5887 13.1228C20.4225 13.1502 20.2343 13.1947 20.1705 13.2217C20.1068 13.2487 20.0346 13.2386 20.0101 13.1992ZM22.255 12.6851C21.791 12.6485 21.4027 12.6105 21.3921 12.6008C21.3292 12.5428 21.486 12.3543 21.6548 12.2849C21.8207 12.2166 21.8972 12.2257 22.1243 12.3405C22.3457 12.4524 22.4884 12.471 22.8997 12.4415C23.1769 12.4217 23.4933 12.428 23.6027 12.4555L23.8017 12.5055L23.5557 12.6361C23.4203 12.7079 23.2621 12.7633 23.2041 12.7592C23.1461 12.7551 22.719 12.7218 22.255 12.6851ZM42.4873 12.3998C42.142 12.2242 42.1087 12.1446 42.3799 12.1431C42.4863 12.1425 42.6207 12.1081 42.6787 12.0667C42.7699 12.0016 42.7687 11.9962 42.6697 12.0274C42.6067 12.0472 42.5184 12.0269 42.4734 11.9822C42.4112 11.9204 42.3788 11.9215 42.3382 11.9868C42.3007 12.0472 42.2235 12.0543 42.0775 12.0109C41.7068 11.9007 41.6241 11.8517 41.6241 11.7424C41.6241 11.6498 41.7171 11.6413 42.292 11.6815C42.7299 11.712 42.9599 11.7035 42.9599 11.6569C42.9599 11.5194 43.155 11.5873 43.2067 11.7427L43.259 11.8998L43.2901 11.7427C43.3072 11.6563 43.3665 11.5856 43.4218 11.5856C43.4771 11.5856 43.5224 11.5479 43.5224 11.5018C43.5224 11.4367 43.5411 11.4367 43.6067 11.5018C43.6558 11.5506 43.8911 11.5856 44.1692 11.5856C44.6718 11.5856 44.7899 11.6749 44.4547 11.8014C44.2804 11.8672 43.9775 11.8486 43.6454 11.7517C43.5777 11.732 43.5226 11.7415 43.5228 11.7729C43.5233 11.8373 43.9183 12.0743 44.0252 12.0743C44.0635 12.0743 44.1392 12.1184 44.1935 12.1723C44.2781 12.2563 44.2774 12.2758 44.1885 12.3097C44.1315 12.3315 44.0848 12.3153 44.0848 12.2738C44.0848 12.2251 43.9954 12.2151 43.8318 12.2456C43.6547 12.2786 43.5933 12.2695 43.627 12.2154C43.6534 12.1728 43.6369 12.0923 43.5901 12.0364C43.5 11.9285 43.2412 11.8955 43.2412 11.9918C43.2412 12.0233 43.1383 12.1619 43.0127 12.2998L42.7842 12.5507L42.4873 12.3998L42.4873 12.3998ZM23.8369 12.2462C23.715 12.1752 23.5426 12.1546 23.2744 12.1791C23.0238 12.202 22.8311 12.1822 22.7268 12.123C22.5829 12.0413 22.6181 12.032 23.0572 12.0355C23.6062 12.0399 23.8474 11.9232 23.55 11.7969C23.4087 11.737 23.4293 11.7315 23.6715 11.7648C23.9876 11.8083 24.1105 11.7242 23.9382 11.5822C23.7546 11.4309 23.9565 11.3839 24.61 11.4259C25.0144 11.452 25.2685 11.4374 25.3723 11.3822C25.5713 11.2764 25.4933 11.1418 25.2658 11.1985C25.1086 11.2377 24.0177 11.1734 24.0637 11.1276C24.0966 11.095 25.6422 10.9528 26.6571 10.8891C27.1835 10.8561 27.7688 10.81 27.9577 10.7867L28.3013 10.7444L27.7341 11.0149C27.2024 11.2685 26.3377 11.5158 25.9825 11.5158C25.896 11.5158 25.6474 11.6101 25.43 11.7253C25.2126 11.8405 24.9911 11.9347 24.9378 11.9347C24.8846 11.9347 24.6546 12.0286 24.4268 12.1433C24.199 12.258 24.0126 12.3511 24.0126 12.3502C24.0126 12.3494 23.9336 12.3026 23.8369 12.2462ZM22.4659 11.6083C22.1252 11.5335 22.1127 11.5053 22.3631 11.3764C22.7281 11.1886 23.0734 11.1404 23.2305 11.2555C23.3548 11.3466 23.3476 11.3607 23.1034 11.5038C22.8489 11.6529 22.7457 11.6698 22.4659 11.6083Z" fill="#4A4658"/>
</g>
<path d="M32 56.707C45.6451 56.707 56.7067 45.6454 56.7067 32.0002C56.7067 18.355 45.6451 7.29346 32 7.29346C18.3548 7.29346 7.29321 18.355 7.29321 32.0002C7.29321 45.6454 18.3548 56.707 32 56.707Z" fill="url(#paint0_radial_1099_715)"/>
<path d="M32 56.707C45.6451 56.707 56.7067 45.6454 56.7067 32.0002C56.7067 18.355 45.6451 7.29346 32 7.29346C18.3548 7.29346 7.29321 18.355 7.29321 32.0002C7.29321 45.6454 18.3548 56.707 32 56.707Z" fill="url(#paint1_radial_1099_715)"/>
<g style="mix-blend-mode:color">
<path d="M32 56.707C45.6451 56.707 56.7067 45.6454 56.7067 32.0002C56.7067 18.355 45.6451 7.29346 32 7.29346C18.3548 7.29346 7.29321 18.355 7.29321 32.0002C7.29321 45.6454 18.3548 56.707 32 56.707Z" fill="#6D697D"/>
</g>
<path d="M32 56.707C45.6451 56.707 56.7067 45.6454 56.7067 32.0002C56.7067 18.355 45.6451 7.29346 32 7.29346C18.3548 7.29346 7.29321 18.355 7.29321 32.0002C7.29321 45.6454 18.3548 56.707 32 56.707Z" fill="url(#paint2_radial_1099_715)" fill-opacity="0.7"/>
<g opacity="0.5" filter="url(#filter1_f_1099_715)">
<path d="M10.5874 17.1759L31.9999 15.5288L53.4124 17.1759V18.823L31.9999 17.1759L10.5874 18.823V17.1759Z" fill="black"/>
</g>
<g opacity="0.5" filter="url(#filter2_f_1099_715)">
<path d="M10.5874 43.5299L31.9999 41.8828L53.4124 43.5299V45.177L31.9999 43.5299L10.5874 45.177V43.5299Z" fill="black"/>
</g>
<g opacity="0.5" filter="url(#filter3_f_1099_715)">
<path d="M7.29327 30.3527L32 28.7056L56.7068 30.3527V31.9998L32 30.3527L7.29327 31.9998V30.3527Z" fill="black"/>
</g>
</g>
<mask id="mask1_1099_715" style="mask-type:alpha" maskUnits="userSpaceOnUse" x="-14" y="-13" width="91" height="91">
<path fill-rule="evenodd" clip-rule="evenodd" d="M77 19.9428L19.9421 -12.9995L-13.0002 44.0583L44.0576 77.0006L77 19.9428ZM10.6033 19.647C10.8534 19.2139 11.1146 18.7912 11.3863 18.3791L21.9038 19.6335L45.3963 20.1212L52.6989 18.5008C54.2594 20.8976 55.3843 23.5389 56.0389 26.2945L31.968 24.8497L7.96224 26.2618C8.50429 23.9954 9.37865 21.7682 10.6033 19.647ZM11.2616 45.4393C13.319 48.6197 16.141 51.3731 19.6466 53.3971C31.0725 59.9938 45.5773 56.427 52.6923 45.5017L11.2616 45.4393ZM7.29158 32.3369C7.33635 35.4114 7.95492 38.4493 9.10347 41.2868L29.2883 38.7559L54.768 41.6007C56.0286 38.6214 56.6603 35.4996 56.7078 32.4018L34.6744 33.5447L7.29158 32.3369Z" fill="#D9D9D9"/>
</mask>
<g mask="url(#mask1_1099_715)">
<ellipse cx="32.0003" cy="32" rx="28.8246" ry="5.14724" stroke="url(#paint3_linear_1099_715)" stroke-width="3.08835" stroke-linecap="round"/>
<ellipse cx="31.9998" cy="45.3839" rx="23.6773" ry="4.11779" stroke="url(#paint4_linear_1099_715)" stroke-width="1.54417" stroke-linecap="round"/>
<ellipse cx="32" cy="19.0289" rx="23.6773" ry="4.11779" stroke="url(#paint5_linear_1099_715)" stroke-width="1.54417" stroke-linecap="round"/>
</g>
<path d="M50.6348 33.5526C48.4117 33.0029 45.3705 32.5435 42.0013 32.2992C39.3179 32.1045 36.8206 32.0749 34.7637 32.1837" stroke="#71FFE4" stroke-width="1.02945" stroke-linecap="round"/>
<path d="M28.365 22.3289C26.0833 22.1332 23.0077 22.1545 19.6417 22.4394C16.9608 22.6663 14.4896 23.027 12.4749 23.4557" stroke="#71FFE4" stroke-width="1.02945" stroke-linecap="round"/>
<circle cx="3.99892" cy="53.4127" r="1.64712" fill="url(#paint6_linear_1099_715)"/>
<circle cx="13.0582" cy="55.8831" r="0.823559" fill="url(#paint7_linear_1099_715)"/>
<circle cx="4.82258" cy="41.0589" r="0.823559" fill="url(#paint8_linear_1099_715)"/>
<circle cx="55.8833" cy="52.5892" r="0.823559" fill="url(#paint9_linear_1099_715)"/>
<circle cx="56.7068" cy="7.29311" r="1.64712" fill="url(#paint10_linear_1099_715)"/>
<path d="M8.47977 4.31085L7.89084 5.78317C7.80681 5.99325 7.64035 6.15972 7.43026 6.24375L5.95795 6.83267C5.54217 6.99898 5.54218 7.58753 5.95795 7.75384L7.43026 8.34277C7.64035 8.4268 7.80681 8.59326 7.89084 8.80335L8.47977 10.2757C8.64608 10.6914 9.23463 10.6914 9.40093 10.2757L9.98986 8.80335C10.0739 8.59326 10.2404 8.4268 10.4504 8.34277L11.9228 7.75384C12.3385 7.58753 12.3385 6.99898 11.9228 6.83267L10.4504 6.24375C10.2404 6.15972 10.0739 5.99325 9.98986 5.78317L9.40093 4.31085C9.23463 3.89508 8.64608 3.89508 8.47977 4.31085Z" fill="url(#paint11_linear_1099_715)"/>
</g>
<defs>
<filter id="filter0_d_1099_715" x="-0.37049" y="10.4338" width="93.9787" height="42.859" filterUnits="userSpaceOnUse" color-interpolation-filters="sRGB">
<feFlood flood-opacity="0" result="BackgroundImageFix"/>
<feColorMatrix in="SourceAlpha" type="matrix" values="0 0 0 0 0 0 0 0 0 0 0 0 0 0 0 0 0 0 127 0" result="hardAlpha"/>
<feOffset dy="0.155296"/>
<feGaussianBlur stdDeviation="0.232944"/>
<feColorMatrix type="matrix" values="0 0 0 0 0 0 0 0 0 0 0 0 0 0 0 0 0 0 0.12 0"/>
<feBlend mode="normal" in2="BackgroundImageFix" result="effect1_dropShadow_1099_715"/>
<feBlend mode="normal" in="SourceGraphic" in2="effect1_dropShadow_1099_715" result="shape"/>
</filter>
<filter id="filter1_f_1099_715" x="8.94029" y="13.8817" width="46.1193" height="6.58842" filterUnits="userSpaceOnUse" color-interpolation-filters="sRGB">
<feFlood flood-opacity="0" result="BackgroundImageFix"/>
<feBlend mode="normal" in="SourceGraphic" in2="BackgroundImageFix" result="shape"/>
<feGaussianBlur stdDeviation="0.823559" result="effect1_foregroundBlur_1099_715"/>
</filter>
<filter id="filter2_f_1099_715" x="8.94029" y="40.2357" width="46.1193" height="6.58842" filterUnits="userSpaceOnUse" color-interpolation-filters="sRGB">
<feFlood flood-opacity="0" result="BackgroundImageFix"/>
<feBlend mode="normal" in="SourceGraphic" in2="BackgroundImageFix" result="shape"/>
<feGaussianBlur stdDeviation="0.823559" result="effect1_foregroundBlur_1099_715"/>
</filter>
<filter id="filter3_f_1099_715" x="5.64616" y="27.0584" width="52.7077" height="6.58842" filterUnits="userSpaceOnUse" color-interpolation-filters="sRGB">
<feFlood flood-opacity="0" result="BackgroundImageFix"/>
<feBlend mode="normal" in="SourceGraphic" in2="BackgroundImageFix" result="shape"/>
<feGaussianBlur stdDeviation="0.823559" result="effect1_foregroundBlur_1099_715"/>
</filter>
<radialGradient id="paint0_radial_1099_715" cx="0" cy="0" r="1" gradientUnits="userSpaceOnUse" gradientTransform="translate(32 32.0002) rotate(90) scale(30.9862)">
<stop offset="0.743732" stop-color="white" stop-opacity="0"/>
<stop offset="1" stop-color="white" stop-opacity="0.47"/>
</radialGradient>
<radialGradient id="paint1_radial_1099_715" cx="0" cy="0" r="1" gradientUnits="userSpaceOnUse" gradientTransform="translate(28.7057 36.118) rotate(-49.5739) scale(29.2102)">
<stop offset="0.723958" stop-color="white" stop-opacity="0"/>
<stop offset="1" stop-color="white" stop-opacity="0.8"/>
</radialGradient>
<radialGradient id="paint2_radial_1099_715" cx="0" cy="0" r="1" gradientUnits="userSpaceOnUse" gradientTransform="translate(52.5889 19.6468) rotate(151.113) scale(34.0963)">
<stop stop-color="#26ECC6"/>
<stop offset="1" stop-color="#26ECC6" stop-opacity="0"/>
</radialGradient>
<linearGradient id="paint3_linear_1099_715" x1="49.8992" y1="-130.552" x2="-0.839448" y2="-130.552" gradientUnits="userSpaceOnUse">
<stop stop-color="#25ECC6"/>
<stop offset="1" stop-color="#8A6EFF"/>
</linearGradient>
<linearGradient id="paint4_linear_1099_715" x1="46.7025" y1="-84.6574" x2="5.02427" y2="-84.6573" gradientUnits="userSpaceOnUse">
<stop stop-color="#25ECC6"/>
<stop offset="1" stop-color="#8A6EFF"/>
</linearGradient>
<linearGradient id="paint5_linear_1099_715" x1="46.7027" y1="-111.012" x2="5.02452" y2="-111.012" gradientUnits="userSpaceOnUse">
<stop stop-color="#25ECC6"/>
<stop offset="1" stop-color="#8A6EFF"/>
</linearGradient>
<linearGradient id="paint6_linear_1099_715" x1="4.15334" y1="55.8599" x2="4.13872" y2="51.5194" gradientUnits="userSpaceOnUse">
<stop offset="0.00514267" stop-color="#6898EC"/>
<stop offset="0.140625" stop-color="#41CAD6"/>
<stop offset="0.651042" stop-color="#25ECC6"/>
<stop offset="1" stop-color="white"/>
</linearGradient>
<linearGradient id="paint7_linear_1099_715" x1="13.1354" y1="57.1067" x2="13.1281" y2="54.9364" gradientUnits="userSpaceOnUse">
<stop offset="0.00514267" stop-color="#6898EC"/>
<stop offset="0.140625" stop-color="#41CAD6"/>
<stop offset="0.651042" stop-color="#25ECC6"/>
<stop offset="1" stop-color="white"/>
</linearGradient>
<linearGradient id="paint8_linear_1099_715" x1="4.89979" y1="42.2825" x2="4.89248" y2="40.1122" gradientUnits="userSpaceOnUse">
<stop offset="0.00514267" stop-color="#6898EC"/>
<stop offset="0.140625" stop-color="#41CAD6"/>
<stop offset="0.651042" stop-color="#25ECC6"/>
<stop offset="1" stop-color="white"/>
</linearGradient>
<linearGradient id="paint9_linear_1099_715" x1="55.9605" y1="53.8128" x2="55.9531" y2="51.6425" gradientUnits="userSpaceOnUse">
<stop offset="0.00514267" stop-color="#6898EC"/>
<stop offset="0.140625" stop-color="#41CAD6"/>
<stop offset="0.651042" stop-color="#25ECC6"/>
<stop offset="1" stop-color="white"/>
</linearGradient>
<linearGradient id="paint10_linear_1099_715" x1="56.8612" y1="9.74026" x2="56.8466" y2="5.39974" gradientUnits="userSpaceOnUse">
<stop offset="0.00514267" stop-color="#6898EC"/>
<stop offset="0.140625" stop-color="#41CAD6"/>
<stop offset="0.651042" stop-color="#25ECC6"/>
<stop offset="1" stop-color="white"/>
</linearGradient>
<linearGradient id="paint11_linear_1099_715" x1="8.94035" y1="14.5406" x2="8.92678" y2="3.50455" gradientUnits="userSpaceOnUse">
<stop stop-color="#25ECC6"/>
<stop offset="1" stop-color="white"/>
</linearGradient>
<clipPath id="clip0_1099_715">
<rect width="64" height="64" fill="white"/>
</clipPath>
</defs>
</svg>
