<svg width="64" height="64" viewBox="0 0 64 64" fill="none" xmlns="http://www.w3.org/2000/svg">
<path d="M30.7417 11.8519L29.1327 15.8744C28.9031 16.4483 28.4483 16.9031 27.8744 17.1327L23.8519 18.7417C22.716 19.196 22.716 20.804 23.8519 21.2583L27.8744 22.8673C28.4483 23.0969 28.9031 23.5517 29.1327 24.1256L30.7417 28.1481C31.196 29.284 32.804 29.284 33.2583 28.1481L34.8673 24.1256C35.0969 23.5517 35.5517 23.0969 36.1256 22.8673L40.1481 21.2583C41.284 20.804 41.284 19.196 40.1481 18.7417L36.1256 17.1327C35.5517 16.9031 35.0969 16.4483 34.8673 15.8744L33.2583 11.8519C32.804 10.716 31.196 10.716 30.7417 11.8519Z" fill="white"/>
<path opacity="0.2" d="M44.4407 45.3786L43.7256 47.1663C43.6236 47.4214 43.4215 47.6235 43.1664 47.7255L41.3786 48.4406C40.8738 48.6425 40.8738 49.3571 41.3786 49.5591L43.1664 50.2741C43.4215 50.3761 43.6236 50.5783 43.7256 50.8334L44.4407 52.621C44.6427 53.1258 45.3573 53.1258 45.5593 52.621L46.2744 50.8334C46.3764 50.5783 46.5785 50.3761 46.8336 50.2741L48.6214 49.5591C49.1262 49.3571 49.1262 48.6425 48.6214 48.4406L46.8336 47.7255C46.5785 47.6235 46.3764 47.4214 46.2744 47.1663L45.5593 45.3786C45.3573 44.8738 44.6427 44.8738 44.4407 45.3786Z" fill="white"/>
<path opacity="0.5" d="M19.1611 36.568L18.0885 39.2496C17.9354 39.6322 17.6322 39.9354 17.2496 40.0885L14.568 41.1611C13.8107 41.464 13.8107 42.536 14.568 42.8389L17.2496 43.9115C17.6322 44.0646 17.9354 44.3678 18.0885 44.7504L19.1611 47.432C19.464 48.1893 20.536 48.1893 20.8389 47.432L21.9115 44.7504C22.0646 44.3678 22.3678 44.0646 22.7504 43.9115L25.432 42.8389C26.1893 42.536 26.1893 41.464 25.432 41.1611L22.7504 40.0885C22.3678 39.9354 22.0646 39.6322 21.9115 39.2496L20.8389 36.568C20.536 35.8107 19.464 35.8107 19.1611 36.568Z" fill="white"/>
</svg>
