<svg width="32" height="32" viewBox="0 0 32 32" fill="none" xmlns="http://www.w3.org/2000/svg">
<path d="M32 5.33H0V26.66H32V5.33Z" fill="#F0F0F0"/>
<path d="M32 5.33H0V12.44H32V5.33Z" fill="#496E2D"/>
<path d="M32 19.56H0V26.67H32V19.56Z" fill="black"/>
<path d="M8.44 13.45L9.01 15.22H10.87L9.37 16.32L9.94 18.09L8.44 16.99L6.93 18.09L7.51 16.32L6 15.22H7.86L8.44 13.45Z" fill="#D80027"/>
<path d="M16.44 13.45L17.02 15.22H18.88L17.37 16.32L17.95 18.09L16.44 16.99L14.94 18.09L15.51 16.32L14 15.22H15.87L16.44 13.45Z" fill="#D80027"/>
<path d="M24.44 13.45L25.02 15.22H26.88L25.37 16.32L25.95 18.09L24.44 16.99L22.94 18.09L23.51 16.32L22 15.22H23.87L24.44 13.45Z" fill="#D80027"/>
</svg>
