<svg width="30" height="20" viewBox="0 0 30 20" fill="none" xmlns="http://www.w3.org/2000/svg">
<rect width="30" height="20" rx="4.13793" fill="#6D697D"/>
<path fill-rule="evenodd" clip-rule="evenodd" d="M20.3086 2.50393C20.095 2.29036 19.7487 2.29036 19.5352 2.50393C19.3216 2.71749 19.3216 3.06376 19.5352 3.27732L20.7891 4.53125H18.9612C18.0086 4.53125 17.1247 5.02698 16.628 5.83978L14.7266 8.95124L12.8251 5.83978C12.3284 5.02698 11.4445 4.53125 10.4919 4.53125H7.89062C7.58859 4.53125 7.34375 4.77609 7.34375 5.07812C7.34375 5.38016 7.58859 5.625 7.89062 5.625H10.4919C11.0635 5.625 11.5938 5.92244 11.8918 6.41012L14.2543 10.276C14.2581 10.2824 14.262 10.2888 14.266 10.2951L16.628 14.1602C17.1247 14.973 18.0086 15.4688 18.9612 15.4688H20.7891L19.5352 16.7227C19.3216 16.9362 19.3216 17.2825 19.5352 17.4961C19.7487 17.7096 20.095 17.7096 20.3086 17.4961L22.4961 15.3086C22.7096 15.095 22.7096 14.7487 22.4961 14.5352L20.3086 12.3477C20.095 12.1341 19.7487 12.1341 19.5352 12.3477C19.3216 12.5612 19.3216 12.9075 19.5352 13.1211L20.7891 14.375H18.9612C18.3897 14.375 17.8593 14.0776 17.5613 13.5899L15.3675 10L17.5613 6.41012C17.8593 5.92244 18.3897 5.625 18.9612 5.625H20.7891L19.5352 6.87893C19.3216 7.09249 19.3216 7.43876 19.5352 7.65232C19.7487 7.86589 20.095 7.86589 20.3086 7.65232L22.4961 5.46482C22.7096 5.25126 22.7096 4.90499 22.4961 4.69143L20.3086 2.50393ZM12.944 11.8682C13.1015 11.6104 13.4381 11.5292 13.6958 11.6867C13.9535 11.8442 14.0348 12.1808 13.8773 12.4385L13.6893 12.7461L12.8251 14.1602C12.3284 14.973 11.4445 15.4688 10.4919 15.4688H7.89062C7.58859 15.4688 7.34375 15.2239 7.34375 14.9219C7.34375 14.6198 7.58859 14.375 7.89062 14.375H10.4919C11.0635 14.375 11.5938 14.0776 11.8918 13.5899L12.756 12.1758L12.944 11.8682Z" fill="white"/>
</svg>
