<svg width="64" height="64" viewBox="0 0 64 64" fill="none" xmlns="http://www.w3.org/2000/svg">
<path d="M57.5557 42.2975H5.82071C5.36031 42.2975 5 41.9387 5 41.4802V41.0217C5 40.5632 5.36031 40.2043 5.82071 40.2043H57.5557C58.0161 40.2043 58.3764 40.5632 58.3764 41.0217V41.4802C58.3764 41.9387 57.996 42.2975 57.5557 42.2975Z" fill="#3B3747"/>
<path d="M57.5557 42.2975H5.82071C5.36031 42.2975 5 41.9387 5 41.4802V41.0217C5 40.5632 5.36031 40.2043 5.82071 40.2043H57.5557C58.0161 40.2043 58.3764 40.5632 58.3764 41.0217V41.4802C58.3764 41.9387 57.996 42.2975 57.5557 42.2975Z" fill="url(#paint0_linear_86_4693)" fill-opacity="0.2"/>
<g filter="url(#filter0_i_86_4693)">
<path d="M9.79443 11.9177C9.79443 10.8586 10.653 10 11.7122 10H51.5053C52.5644 10 53.423 10.8586 53.423 11.9177V40.2044H9.79443V11.9177Z" fill="#3B3747"/>
<path d="M9.79443 11.9177C9.79443 10.8586 10.653 10 11.7122 10H51.5053C52.5644 10 53.423 10.8586 53.423 11.9177V40.2044H9.79443V11.9177Z" fill="url(#paint1_linear_86_4693)" fill-opacity="0.2"/>
</g>
<path d="M10.7533 11.9179C10.7533 11.3883 11.1826 10.959 11.7122 10.959H51.5053C52.0349 10.959 52.4642 11.3883 52.4642 11.9179V40.2045H10.7533V11.9179Z" fill="url(#paint2_linear_86_4693)"/>
<path d="M34.1102 41.3473H29.1373C28.4957 41.3473 27.9944 40.8259 27.9944 40.2043H35.2531C35.2531 40.8259 34.7518 41.3473 34.1102 41.3473Z" fill="#757183"/>
<path d="M17.2223 33.4814H17.2891C17.326 33.4814 17.3559 33.5124 17.3559 33.5506V35.3499C17.3559 35.3882 17.326 35.4191 17.2891 35.4191H17.2223V33.4814Z" fill="#494D55"/>
<g filter="url(#filter1_i_86_4693)">
<path d="M15.3719 55.6248H4.42738C3.09303 55.6248 2 54.4764 2 53.0595V29.5504C2 28.1484 3.09303 27 4.42738 27H15.3719C16.7204 27 17.7993 28.1484 17.7993 29.5504V53.0595C17.8135 54.4764 16.7204 55.6248 15.3719 55.6248Z" fill="#3B3747"/>
<path d="M15.3719 55.6248H4.42738C3.09303 55.6248 2 54.4764 2 53.0595V29.5504C2 28.1484 3.09303 27 4.42738 27H15.3719C16.7204 27 17.7993 28.1484 17.7993 29.5504V53.0595C17.8135 54.4764 16.7204 55.6248 15.3719 55.6248Z" fill="url(#paint3_linear_86_4693)" fill-opacity="0.2"/>
</g>
<path d="M15.1778 27.9294H13.6862L13.3851 28.6168C13.2129 29.0203 12.8114 29.2892 12.3811 29.2892H7.40434C6.97408 29.2892 6.58684 29.0203 6.40039 28.6168L6.11354 27.9444H4.62195C3.6897 27.9444 2.92957 28.7363 2.92957 29.7076V52.9323C2.92957 53.9035 3.6897 54.6955 4.62195 54.6955H15.1778C16.1101 54.6955 16.8702 53.9035 16.8702 52.9323V29.6927C16.8559 28.7214 16.1101 27.9294 15.1778 27.9294Z" fill="url(#paint4_linear_86_4693)"/>
<line x1="48.6293" y1="48.0364" x2="42.3025" y2="37.0781" stroke="#3B3747" stroke-width="1.01229" stroke-linecap="round"/>
<line x1="0.506145" y1="-0.506145" x2="13.1598" y2="-0.506145" transform="matrix(0.5 -0.866025 -0.866025 -0.5 51.2611 48.2217)" stroke="#3B3747" stroke-width="1.01229" stroke-linecap="round"/>
<g filter="url(#filter2_i_86_4693)">
<path d="M39.6196 47.4415C39.6196 47.1016 39.8723 46.8148 40.2095 46.772L45.2329 46.1341C48.5634 45.7112 51.934 45.7112 55.2645 46.1341L60.2879 46.772C60.625 46.8148 60.8777 47.1016 60.8777 47.4415V49.8837C60.8777 50.2565 60.5756 50.5586 60.2029 50.5586H40.2945C39.9218 50.5586 39.6196 50.2565 39.6196 49.8837V47.4415Z" fill="url(#paint5_linear_86_4693)"/>
</g>
<path d="M59.0218 49.2088C59.3013 49.2088 59.5279 48.9822 59.5279 48.7027C59.5279 48.4231 59.3013 48.1965 59.0218 48.1965C58.7422 48.1965 58.5156 48.4231 58.5156 48.7027C58.5156 48.9822 58.7422 49.2088 59.0218 49.2088Z" fill="white"/>
<path d="M57.3348 49.2088C57.6143 49.2088 57.8409 48.9822 57.8409 48.7027C57.8409 48.4231 57.6143 48.1965 57.3348 48.1965C57.0552 48.1965 56.8286 48.4231 56.8286 48.7027C56.8286 48.9822 57.0552 49.2088 57.3348 49.2088Z" fill="white"/>
<path d="M55.6477 49.2088C55.9273 49.2088 56.1539 48.9822 56.1539 48.7027C56.1539 48.4231 55.9273 48.1965 55.6477 48.1965C55.3682 48.1965 55.1416 48.4231 55.1416 48.7027C55.1416 48.9822 55.3682 49.2088 55.6477 49.2088Z" fill="white"/>
<path d="M44.6812 48.7027C44.6812 48.5163 44.8322 48.3652 45.0186 48.3652H47.3806C47.5669 48.3652 47.718 48.5163 47.718 48.7027C47.718 48.889 47.5669 49.0401 47.3806 49.0401H45.0186C44.8322 49.0401 44.6812 48.889 44.6812 48.7027Z" fill="#757183"/>
<path d="M40.801 48.7027C40.801 48.5163 40.9521 48.3652 41.1385 48.3652H43.5005C43.6868 48.3652 43.8379 48.5163 43.8379 48.7027C43.8379 48.889 43.6868 49.0401 43.5005 49.0401H41.1385C40.9521 49.0401 40.801 48.889 40.801 48.7027Z" fill="#757183"/>
<path d="M41.8132 50.5586H43.8378V51.2335C43.8378 51.4198 43.6867 51.5709 43.5004 51.5709H42.1507C41.9643 51.5709 41.8132 51.4198 41.8132 51.2335V50.5586Z" fill="#3B3747"/>
<path d="M56.6595 50.5586H58.6841V51.2335C58.6841 51.4198 58.5331 51.5709 58.3467 51.5709H56.997C56.8106 51.5709 56.6595 51.4198 56.6595 51.2335V50.5586Z" fill="#3B3747"/>
<path d="M58.2667 35.5581C58.553 35.4836 58.8777 35.5212 59.166 35.6877C59.4543 35.8541 59.6492 36.1165 59.7278 36.4017" stroke="#A09DAE" stroke-width="0.506145" stroke-linecap="round"/>
<path d="M57.8963 34.175C58.5054 34.0471 59.2067 34.1523 59.841 34.5185C60.4753 34.8847 60.917 35.4395 61.1108 36.0309" stroke="#A09DAE" stroke-width="0.506145" stroke-linecap="round"/>
<path d="M57.6721 32.8767C58.5856 32.6848 59.6377 32.8426 60.5891 33.3919C61.5405 33.9412 62.2031 34.7734 62.4938 35.6605" stroke="#A09DAE" stroke-width="0.506145" stroke-linecap="round"/>
<path d="M42.3279 35.5581C42.0416 35.4836 41.7169 35.5212 41.4286 35.6877C41.1403 35.8541 40.9454 36.1165 40.8668 36.4017" stroke="#A09DAE" stroke-width="0.506145" stroke-linecap="round"/>
<path d="M42.6985 34.175C42.0895 34.0471 41.3881 34.1523 40.7539 34.5185C40.1196 34.8847 39.6778 35.4395 39.4841 36.0309" stroke="#A09DAE" stroke-width="0.506145" stroke-linecap="round"/>
<path d="M42.923 32.8767C42.0095 32.6848 40.9574 32.8426 40.006 33.3919C39.0546 33.9412 38.392 34.7734 38.1013 35.6605" stroke="#A09DAE" stroke-width="0.506145" stroke-linecap="round"/>
<rect x="44" y="28" width="11.5064" height="11.5064" rx="2.87661" fill="#292733"/>
<path fill-rule="evenodd" clip-rule="evenodd" d="M48.4108 32.315H48.3149C48.3149 31.5206 48.9588 30.8767 49.7532 30.8767C50.5476 30.8767 51.1915 31.5206 51.1915 32.315H51.0956H48.4108ZM47.8355 32.3242V32.315C47.8355 31.2558 48.6941 30.3972 49.7532 30.3972C50.8123 30.3972 51.6709 31.2558 51.6709 32.315V32.3242C51.859 32.3356 51.9924 32.3614 52.1063 32.4195C52.2867 32.5114 52.4334 32.6581 52.5253 32.8385C52.6298 33.0436 52.6298 33.3121 52.6298 33.8492V35.5751C52.6298 36.1121 52.6298 36.3806 52.5253 36.5858C52.4334 36.7662 52.2867 36.9129 52.1063 37.0048C51.9011 37.1093 51.6326 37.1093 51.0956 37.1093H48.4108C47.8738 37.1093 47.6053 37.1093 47.4001 37.0048C47.2197 36.9129 47.073 36.7662 46.9811 36.5858C46.8766 36.3806 46.8766 36.1121 46.8766 35.5751V33.8492C46.8766 33.3121 46.8766 33.0436 46.9811 32.8385C47.073 32.6581 47.2197 32.5114 47.4001 32.4195C47.514 32.3614 47.6474 32.3356 47.8355 32.3242ZM49.9788 34.6558C50.1299 34.5751 50.2326 34.4159 50.2326 34.2327C50.2326 33.9679 50.018 33.7533 49.7532 33.7533C49.4884 33.7533 49.2738 33.9679 49.2738 34.2327C49.2738 34.4159 49.3765 34.5751 49.5276 34.6558L49.3184 35.4923C49.2957 35.5831 49.3644 35.671 49.458 35.671H50.0484C50.142 35.671 50.2106 35.5831 50.188 35.4923L49.9788 34.6558Z" fill="#2DDCCC"/>
<path d="M49.4142 40.8454L48.0752 39.5063H51.4312L50.0922 40.8454C49.905 41.0326 49.6014 41.0326 49.4142 40.8454Z" fill="#292733"/>
<rect x="3.91772" y="33.7119" width="11.5064" height="11.5064" rx="2.87661" fill="#292733"/>
<path fill-rule="evenodd" clip-rule="evenodd" d="M8.32863 38.0269H8.23274C8.23274 37.2325 8.87669 36.5886 9.67105 36.5886C10.4654 36.5886 11.1094 37.2325 11.1094 38.0269H11.0135H8.32863ZM7.7533 38.0361V38.0269C7.7533 36.9677 8.61191 36.1091 9.67105 36.1091C10.7302 36.1091 11.5888 36.9677 11.5888 38.0269V38.0361C11.7768 38.0476 11.9102 38.0734 12.0241 38.1314C12.2045 38.2233 12.3512 38.37 12.4431 38.5504C12.5477 38.7555 12.5477 39.024 12.5477 39.5611V41.287C12.5477 41.824 12.5477 42.0926 12.4431 42.2977C12.3512 42.4781 12.2045 42.6248 12.0241 42.7167C11.819 42.8212 11.5505 42.8212 11.0135 42.8212H8.32863C7.79161 42.8212 7.5231 42.8212 7.31799 42.7167C7.13756 42.6248 6.99087 42.4781 6.89894 42.2977C6.79443 42.0926 6.79443 41.824 6.79443 41.287V39.5611C6.79443 39.024 6.79443 38.7555 6.89894 38.5504C6.99087 38.37 7.13756 38.2233 7.31799 38.1314C7.43186 38.0734 7.56526 38.0476 7.7533 38.0361ZM9.89669 40.3677C10.0477 40.287 10.1505 40.1278 10.1505 39.9446C10.1505 39.6798 9.93583 39.4652 9.67105 39.4652C9.40626 39.4652 9.19161 39.6798 9.19161 39.9446C9.19161 40.1278 9.29437 40.287 9.44541 40.3677L9.23629 41.2042C9.21359 41.295 9.28225 41.3829 9.37582 41.3829H9.96627C10.0598 41.3829 10.1285 41.295 10.1058 41.2042L9.89669 40.3677Z" fill="#2DDCCC"/>
<rect x="25.5586" y="17.6709" width="11.5064" height="11.5064" rx="2.87661" fill="#292733"/>
<path fill-rule="evenodd" clip-rule="evenodd" d="M29.9695 21.9859H29.8736C29.8736 21.1915 30.5176 20.5476 31.3119 20.5476C32.1063 20.5476 32.7502 21.1915 32.7502 21.9859H32.6543H29.9695ZM29.3942 21.9951V21.9859C29.3942 20.9267 30.2528 20.0681 31.3119 20.0681C32.3711 20.0681 33.2297 20.9267 33.2297 21.9859V21.9951C33.4177 22.0065 33.5511 22.0323 33.665 22.0904C33.8454 22.1823 33.9921 22.329 34.084 22.5094C34.1885 22.7145 34.1885 22.983 34.1885 23.52V25.246C34.1885 25.783 34.1885 26.0515 34.084 26.2567C33.9921 26.4371 33.8454 26.5838 33.665 26.6757C33.4599 26.7802 33.1914 26.7802 32.6543 26.7802H29.9695C29.4325 26.7802 29.164 26.7802 28.9589 26.6757C28.7784 26.5838 28.6317 26.4371 28.5398 26.2567C28.4353 26.0515 28.4353 25.783 28.4353 25.246V23.52C28.4353 22.983 28.4353 22.7145 28.5398 22.5094C28.6317 22.329 28.7784 22.1823 28.9589 22.0904C29.0727 22.0323 29.2061 22.0065 29.3942 21.9951ZM31.5376 24.3267C31.6886 24.246 31.7913 24.0868 31.7913 23.9036C31.7913 23.6388 31.5767 23.4242 31.3119 23.4242C31.0471 23.4242 30.8325 23.6388 30.8325 23.9036C30.8325 24.0868 30.9352 24.246 31.0863 24.3267L30.8772 25.1632C30.8545 25.254 30.9231 25.3419 31.0167 25.3419H31.6071C31.7007 25.3419 31.7694 25.254 31.7467 25.1632L31.5376 24.3267Z" fill="#2DDCCC"/>
<defs>
<filter id="filter0_i_86_4693" x="9.79443" y="10" width="43.6287" height="30.4699" filterUnits="userSpaceOnUse" color-interpolation-filters="sRGB">
<feFlood flood-opacity="0" result="BackgroundImageFix"/>
<feBlend mode="normal" in="SourceGraphic" in2="BackgroundImageFix" result="shape"/>
<feColorMatrix in="SourceAlpha" type="matrix" values="0 0 0 0 0 0 0 0 0 0 0 0 0 0 0 0 0 0 127 0" result="hardAlpha"/>
<feOffset dy="0.265529"/>
<feGaussianBlur stdDeviation="0.132764"/>
<feComposite in2="hardAlpha" operator="arithmetic" k2="-1" k3="1"/>
<feColorMatrix type="matrix" values="0 0 0 0 1 0 0 0 0 1 0 0 0 0 1 0 0 0 0.25 0"/>
<feBlend mode="normal" in2="shape" result="effect1_innerShadow_86_4693"/>
</filter>
<filter id="filter1_i_86_4693" x="2" y="27" width="15.7994" height="28.8903" filterUnits="userSpaceOnUse" color-interpolation-filters="sRGB">
<feFlood flood-opacity="0" result="BackgroundImageFix"/>
<feBlend mode="normal" in="SourceGraphic" in2="BackgroundImageFix" result="shape"/>
<feColorMatrix in="SourceAlpha" type="matrix" values="0 0 0 0 0 0 0 0 0 0 0 0 0 0 0 0 0 0 127 0" result="hardAlpha"/>
<feOffset dy="0.265529"/>
<feGaussianBlur stdDeviation="0.132764"/>
<feComposite in2="hardAlpha" operator="arithmetic" k2="-1" k3="1"/>
<feColorMatrix type="matrix" values="0 0 0 0 1 0 0 0 0 1 0 0 0 0 1 0 0 0 0.25 0"/>
<feBlend mode="normal" in2="shape" result="effect1_innerShadow_86_4693"/>
</filter>
<filter id="filter2_i_86_4693" x="39.6196" y="45.8169" width="21.2581" height="5.18266" filterUnits="userSpaceOnUse" color-interpolation-filters="sRGB">
<feFlood flood-opacity="0" result="BackgroundImageFix"/>
<feBlend mode="normal" in="SourceGraphic" in2="BackgroundImageFix" result="shape"/>
<feColorMatrix in="SourceAlpha" type="matrix" values="0 0 0 0 0 0 0 0 0 0 0 0 0 0 0 0 0 0 127 0" result="hardAlpha"/>
<feOffset dy="0.440961"/>
<feGaussianBlur stdDeviation="0.220481"/>
<feComposite in2="hardAlpha" operator="arithmetic" k2="-1" k3="1"/>
<feColorMatrix type="matrix" values="0 0 0 0 1 0 0 0 0 1 0 0 0 0 1 0 0 0 0.25 0"/>
<feBlend mode="normal" in2="shape" result="effect1_innerShadow_86_4693"/>
</filter>
<linearGradient id="paint0_linear_86_4693" x1="45.4264" y1="43.1911" x2="45.1458" y2="38.8765" gradientUnits="userSpaceOnUse">
<stop stop-color="white"/>
<stop offset="0.553424" stop-color="white" stop-opacity="0"/>
</linearGradient>
<linearGradient id="paint1_linear_86_4693" x1="42.838" y1="53.099" x2="11.8732" y2="26.1332" gradientUnits="userSpaceOnUse">
<stop stop-color="white"/>
<stop offset="0.553424" stop-color="white" stop-opacity="0"/>
</linearGradient>
<linearGradient id="paint2_linear_86_4693" x1="41.0001" y1="2" x2="25.3205" y2="40.4163" gradientUnits="userSpaceOnUse">
<stop stop-color="#2DDCCC"/>
<stop offset="1" stop-color="#4A4658"/>
</linearGradient>
<linearGradient id="paint3_linear_86_4693" x1="13.9662" y1="67.8451" x2="-3.78556" y2="61.9378" gradientUnits="userSpaceOnUse">
<stop stop-color="white"/>
<stop offset="0.553424" stop-color="white" stop-opacity="0"/>
</linearGradient>
<linearGradient id="paint4_linear_86_4693" x1="17.5001" y1="17.5" x2="-7.53907" y2="36.8909" gradientUnits="userSpaceOnUse">
<stop stop-color="#2DDCCC"/>
<stop offset="1" stop-color="#4A4658"/>
</linearGradient>
<linearGradient id="paint5_linear_86_4693" x1="56" y1="43" x2="55.6213" y2="50.6267" gradientUnits="userSpaceOnUse">
<stop stop-color="#2DDCCC"/>
<stop offset="1" stop-color="#4A4658"/>
</linearGradient>
</defs>
</svg>
