<svg width="241" height="136" viewBox="0 0 241 136" fill="none" xmlns="http://www.w3.org/2000/svg">
<path d="M92.75 15.6742C92.75 8.53637 98.5364 2.75 105.674 2.75H134.704C141.842 2.75 147.628 8.53637 147.628 15.6742V44.704C147.628 51.8419 141.842 57.6282 134.704 57.6282H105.674C98.5364 57.6282 92.75 51.8419 92.75 44.704V15.6742Z" fill="#2DDCCC" fill-opacity="0.15"/>
<path opacity="0.1" d="M92.75 15.6742C92.75 8.53637 98.5364 2.75 105.674 2.75H134.704C141.842 2.75 147.628 8.53637 147.628 15.6742V44.704C147.628 51.8419 141.842 57.6282 134.704 57.6282H105.674C98.5364 57.6282 92.75 51.8419 92.75 44.704V15.6742Z" fill="url(#paint0_radial_4689_85398)"/>
<path opacity="0.4" d="M101.796 20.4598C101.796 15.6751 105.675 11.7963 110.46 11.7963H129.919C134.704 11.7963 138.583 15.6751 138.583 20.4598V39.9193C138.583 44.704 134.704 48.5828 129.919 48.5828H110.46C105.675 48.5828 101.796 44.704 101.796 39.9193V20.4598Z" fill="url(#paint1_radial_4689_85398)"/>
<path d="M107.827 23.6499C107.827 20.434 110.434 17.8269 113.65 17.8269H126.729C129.945 17.8269 132.552 20.434 132.552 23.6499V36.7293C132.552 39.9452 129.945 42.5523 126.729 42.5523H113.65C110.434 42.5523 107.827 39.9452 107.827 36.7293V23.6499Z" fill="white"/>
<path fill-rule="evenodd" clip-rule="evenodd" d="M118.74 36.6272C119.326 37.6903 120.833 37.7479 121.499 36.7326L127.712 27.2659C128.37 26.2619 127.74 24.916 126.547 24.7792L114.337 23.379C113.035 23.2298 112.108 24.6131 112.742 25.7603L118.74 36.6272Z" fill="url(#paint2_linear_4689_85398)"/>
<path fill-rule="evenodd" clip-rule="evenodd" d="M118.74 36.6272C119.326 37.6903 120.833 37.7479 121.499 36.7326L127.712 27.2659C128.37 26.2619 127.74 24.916 126.547 24.7792L114.337 23.379C113.035 23.2298 112.108 24.6131 112.742 25.7603L118.74 36.6272Z" fill="url(#paint3_linear_4689_85398)"/>
<path fill-rule="evenodd" clip-rule="evenodd" d="M119.641 34.8069L119.089 35.6356C118.866 35.9714 118.366 35.9507 118.171 35.5976L118.74 36.6272C118.841 36.8108 118.97 36.9644 119.117 37.0877L119.117 37.0876C119.822 37.6781 120.948 37.5725 121.499 36.7325L127.712 27.2658C128.37 26.2619 127.74 24.9159 126.547 24.7791L114.337 23.379C113.035 23.2297 112.108 24.6131 112.742 25.7602L112.79 25.8475L123.183 27.05C123.845 27.1267 124.194 27.8744 123.828 28.4318L119.641 34.8069Z" fill="url(#paint4_linear_4689_85398)"/>
<g filter="url(#filter0_i_4689_85398)">
<path d="M70.2082 52.2826C69.1958 52.2826 68.375 53.1034 68.375 54.1158V110.03C68.375 111.042 69.1958 111.863 70.2082 111.863L112.373 111.863V114.002L112.03 115.031C111.898 115.426 112.193 115.835 112.609 115.835H129.246C129.663 115.835 129.958 115.426 129.826 115.031L129.483 114.002V111.863L171.953 111.863C172.966 111.863 173.786 111.042 173.786 110.03V54.1158C173.786 53.1034 172.966 52.2826 171.953 52.2826H70.2082Z" fill="#3B3747"/>
<path d="M70.2082 52.2826C69.1958 52.2826 68.375 53.1034 68.375 54.1158V110.03C68.375 111.042 69.1958 111.863 70.2082 111.863L112.373 111.863V114.002L112.03 115.031C111.898 115.426 112.193 115.835 112.609 115.835H129.246C129.663 115.835 129.958 115.426 129.826 115.031L129.483 114.002V111.863L171.953 111.863C172.966 111.863 173.786 111.042 173.786 110.03V54.1158C173.786 53.1034 172.966 52.2826 171.953 52.2826H70.2082Z" fill="url(#paint5_linear_4689_85398)" fill-opacity="0.2"/>
</g>
<path d="M69.5972 54.2551C69.5972 53.8409 69.933 53.5051 70.3472 53.5051H171.814C172.228 53.5051 172.564 53.8409 172.564 54.2551V109.891C172.564 110.305 172.228 110.641 171.814 110.641H70.3472C69.933 110.641 69.5972 110.305 69.5972 109.891V54.2551Z" fill="url(#paint6_linear_4689_85398)"/>
<path d="M103.223 125H30.1591C29.5089 125 29 124.493 29 123.845V123.198C29 122.55 29.5089 122.044 30.1591 122.044H103.223C103.873 122.044 104.382 122.55 104.382 123.198V123.845C104.382 124.493 103.845 125 103.223 125Z" fill="#3B3747"/>
<path d="M103.223 125H30.1591C29.5089 125 29 124.493 29 123.845V123.198C29 122.55 29.5089 122.044 30.1591 122.044H103.223C103.873 122.044 104.382 122.55 104.382 123.198V123.845C104.382 124.493 103.845 125 103.223 125Z" fill="url(#paint7_linear_4689_85398)" fill-opacity="0.2"/>
<g filter="url(#filter1_i_4689_85398)">
<path d="M35.771 82.095C35.771 80.5992 36.9836 79.3867 38.4794 79.3867H94.6782C96.174 79.3867 97.3866 80.5992 97.3866 82.095V122.044H35.771V82.095Z" fill="#3B3747"/>
<path d="M35.771 82.095C35.771 80.5992 36.9836 79.3867 38.4794 79.3867H94.6782C96.174 79.3867 97.3866 80.5992 97.3866 82.095V122.044H35.771V82.095Z" fill="url(#paint8_linear_4689_85398)" fill-opacity="0.2"/>
</g>
<path d="M37.125 82.095C37.125 81.3471 37.7313 80.7408 38.4792 80.7408H94.6781C95.426 80.7408 96.0322 81.3471 96.0322 82.095V122.044H37.125V82.095Z" fill="url(#paint9_linear_4689_85398)"/>
<path d="M70.1115 123.658H63.0885C62.1823 123.658 61.4744 122.922 61.4744 122.044H71.7257C71.7257 122.922 71.0177 123.658 70.1115 123.658Z" fill="#757183"/>
<path d="M190.748 91.2487H190.842C190.895 91.2487 190.937 91.2924 190.937 91.3464V93.8875C190.937 93.9415 190.895 93.9853 190.842 93.9853H190.748V91.2487Z" fill="#494D55"/>
<g filter="url(#filter2_i_4689_85398)">
<path d="M188.135 122.521H172.678C170.794 122.521 169.25 120.899 169.25 118.898V85.6969C169.25 83.717 170.794 82.0951 172.678 82.0951H188.135C190.039 82.0951 191.563 83.717 191.563 85.6969V118.898C191.583 120.899 190.039 122.521 188.135 122.521Z" fill="#3B3747"/>
<path d="M188.135 122.521H172.678C170.794 122.521 169.25 120.899 169.25 118.898V85.6969C169.25 83.717 170.794 82.0951 172.678 82.0951H188.135C190.039 82.0951 191.563 83.717 191.563 85.6969V118.898C191.583 120.899 190.039 122.521 188.135 122.521Z" fill="url(#paint10_linear_4689_85398)" fill-opacity="0.2"/>
</g>
<path d="M187.861 83.4077H185.754L185.329 84.3785C185.086 84.9482 184.519 85.3281 183.911 85.3281H176.882C176.275 85.3281 175.728 84.9482 175.465 84.3785L175.059 83.4288H172.953C171.636 83.4288 170.563 84.5473 170.563 85.919V118.719C170.563 120.09 171.636 121.209 172.953 121.209H187.861C189.177 121.209 190.251 120.09 190.251 118.719V85.8979C190.231 84.5262 189.177 83.4077 187.861 83.4077Z" fill="url(#paint11_linear_4689_85398)"/>
<line x1="139.547" y1="126.052" x2="128.452" y2="106.833" stroke="#3B3747" stroke-width="1.77531" stroke-linecap="round"/>
<line x1="0.887656" y1="-0.887656" x2="23.0791" y2="-0.887656" transform="matrix(0.5 -0.866025 -0.866025 -0.5 144.163 126.377)" stroke="#3B3747" stroke-width="1.77531" stroke-linecap="round"/>
<g filter="url(#filter3_i_4689_85398)">
<path d="M123.747 125.008C123.747 124.412 124.19 123.909 124.781 123.834L133.591 122.716C139.432 121.974 145.343 121.974 151.184 122.716L159.994 123.834C160.585 123.909 161.028 124.412 161.028 125.008V129.292C161.028 129.945 160.498 130.475 159.845 130.475H124.93C124.276 130.475 123.747 129.945 123.747 129.292V125.008Z" fill="url(#paint12_linear_4689_85398)"/>
</g>
<path d="M157.773 128.108C158.264 128.108 158.661 127.71 158.661 127.22C158.661 126.73 158.264 126.332 157.773 126.332C157.283 126.332 156.886 126.73 156.886 127.22C156.886 127.71 157.283 128.108 157.773 128.108Z" fill="white"/>
<path d="M154.815 128.108C155.305 128.108 155.702 127.71 155.702 127.22C155.702 126.73 155.305 126.332 154.815 126.332C154.324 126.332 153.927 126.73 153.927 127.22C153.927 127.71 154.324 128.108 154.815 128.108Z" fill="white"/>
<path d="M151.856 128.108C152.346 128.108 152.744 127.71 152.744 127.22C152.744 126.73 152.346 126.332 151.856 126.332C151.366 126.332 150.968 126.73 150.968 127.22C150.968 127.71 151.366 128.108 151.856 128.108Z" fill="white"/>
<path d="M132.624 127.22C132.624 126.894 132.888 126.629 133.215 126.629H137.358C137.685 126.629 137.949 126.894 137.949 127.22C137.949 127.547 137.685 127.812 137.358 127.812H133.215C132.888 127.812 132.624 127.547 132.624 127.22Z" fill="#757183"/>
<path d="M125.818 127.22C125.818 126.894 126.083 126.629 126.41 126.629H130.553C130.879 126.629 131.144 126.894 131.144 127.22C131.144 127.547 130.879 127.812 130.553 127.812H126.41C126.083 127.812 125.818 127.547 125.818 127.22Z" fill="#757183"/>
<path d="M127.594 130.475H131.144V131.659C131.144 131.985 130.879 132.25 130.553 132.25H128.186C127.859 132.25 127.594 131.985 127.594 131.659V130.475Z" fill="#3B3747"/>
<path d="M153.631 130.475H157.181V131.659C157.181 131.985 156.917 132.25 156.59 132.25H154.223C153.896 132.25 153.631 131.985 153.631 131.659V130.475Z" fill="#3B3747"/>
<path d="M156.449 104.168C156.951 104.037 157.52 104.103 158.026 104.395C158.531 104.687 158.873 105.147 159.011 105.647" stroke="#A09DAE" stroke-width="0.887656" stroke-linecap="round"/>
<path d="M155.799 101.743C156.867 101.518 158.097 101.703 159.21 102.345C160.322 102.987 161.097 103.96 161.437 104.997" stroke="#A09DAE" stroke-width="0.887656" stroke-linecap="round"/>
<path d="M155.406 99.4657C157.008 99.1293 158.853 99.406 160.521 100.369C162.19 101.333 163.352 102.792 163.862 104.348" stroke="#A09DAE" stroke-width="0.887656" stroke-linecap="round"/>
<path d="M128.496 104.168C127.994 104.037 127.425 104.103 126.919 104.395C126.413 104.687 126.072 105.147 125.934 105.647" stroke="#A09DAE" stroke-width="0.887656" stroke-linecap="round"/>
<path d="M129.146 101.743C128.078 101.518 126.848 101.703 125.736 102.345C124.623 102.987 123.849 103.96 123.509 104.997" stroke="#A09DAE" stroke-width="0.887656" stroke-linecap="round"/>
<path d="M129.54 99.4657C127.938 99.1293 126.093 99.406 124.424 100.369C122.756 101.333 121.593 102.792 121.084 104.348" stroke="#A09DAE" stroke-width="0.887656" stroke-linecap="round"/>
<g filter="url(#filter4_i_4689_85398)">
<path d="M85.363 94.2088C85.363 92.8863 86.4346 91.8142 87.7565 91.8142H103.802C105.124 91.8142 106.196 92.8863 106.196 94.2088V130.077C106.196 131.4 105.124 132.472 103.802 132.472H87.7565C86.4346 132.472 85.363 131.4 85.363 130.077V94.2088Z" fill="#3B3747"/>
<path d="M85.363 94.2088C85.363 92.8863 86.4346 91.8142 87.7565 91.8142H103.802C105.124 91.8142 106.196 92.8863 106.196 94.2088V130.077C106.196 131.4 105.124 132.472 103.802 132.472H87.7565C86.4346 132.472 85.363 131.4 85.363 130.077V94.2088Z" fill="url(#paint13_linear_4689_85398)" fill-opacity="0.2"/>
</g>
<path fill-rule="evenodd" clip-rule="evenodd" d="M94.6997 93.2524C94.6997 93.173 94.7656 93.1086 94.8469 93.1086H96.6621C96.7434 93.1086 96.8093 93.173 96.8093 93.2524C96.8093 93.3319 96.7434 93.3963 96.6621 93.3963H94.8469C94.7656 93.3963 94.6997 93.3319 94.6997 93.2524Z" fill="#636973"/>
<mask id="mask0_4689_85398" style="mask-type:alpha" maskUnits="userSpaceOnUse" x="85" y="94" width="21" height="38">
<path d="M85.897 95.9432C85.897 94.8968 86.7414 94.0485 87.7831 94.0485H103.751C104.792 94.0485 105.637 94.8968 105.637 95.9432V129.499C105.637 130.546 104.792 131.394 103.751 131.394H87.7831C86.7414 131.394 85.897 130.546 85.897 129.499V95.9432Z" fill="white"/>
</mask>
<g mask="url(#mask0_4689_85398)">
<path d="M85.8159 94.164H105.69V131.609H85.8159V94.164Z" fill="url(#paint14_linear_4689_85398)"/>
</g>
<rect x="87.9072" y="103.897" width="16.2503" height="16.2503" rx="4.06257" fill="#292733"/>
<path fill-rule="evenodd" clip-rule="evenodd" d="M94.1364 109.991H94.001C94.001 108.869 94.9104 107.96 96.0323 107.96C97.1541 107.96 98.0636 108.869 98.0636 109.991H97.9282H94.1364ZM93.3239 110.004V109.991C93.3239 108.495 94.5365 107.282 96.0323 107.282C97.5281 107.282 98.7407 108.495 98.7407 109.991V110.004C99.0062 110.02 99.1946 110.056 99.3555 110.138C99.6103 110.268 99.8174 110.475 99.9473 110.73C100.095 111.02 100.095 111.399 100.095 112.157V114.595C100.095 115.353 100.095 115.733 99.9473 116.022C99.8174 116.277 99.6103 116.484 99.3555 116.614C99.0658 116.762 98.6866 116.762 97.9282 116.762H94.1364C93.378 116.762 92.9988 116.762 92.7091 116.614C92.4543 116.484 92.2472 116.277 92.1173 116.022C91.9697 115.733 91.9697 115.353 91.9697 114.595V112.157C91.9697 111.399 91.9697 111.02 92.1173 110.73C92.2472 110.475 92.4543 110.268 92.7091 110.138C92.8699 110.056 93.0584 110.02 93.3239 110.004ZM96.351 113.297C96.5643 113.183 96.7094 112.958 96.7094 112.699C96.7094 112.325 96.4062 112.022 96.0323 112.022C95.6583 112.022 95.3552 112.325 95.3552 112.699C95.3552 112.958 95.5003 113.183 95.7136 113.297L95.4183 114.478C95.3862 114.606 95.4832 114.73 95.6154 114.73H96.4492C96.5814 114.73 96.6783 114.606 96.6463 114.478L96.351 113.297Z" fill="#2DDCCC"/>
<rect x="133.682" y="98.3453" width="16.2503" height="16.2503" rx="4.06257" fill="#292733"/>
<path fill-rule="evenodd" clip-rule="evenodd" d="M139.911 104.439H139.775C139.775 103.317 140.685 102.408 141.807 102.408C142.929 102.408 143.838 103.317 143.838 104.439H143.703H139.911ZM139.098 104.452V104.439C139.098 102.943 140.311 101.731 141.807 101.731C143.303 101.731 144.515 102.943 144.515 104.439V104.452C144.781 104.468 144.969 104.505 145.13 104.587C145.385 104.717 145.592 104.924 145.722 105.179C145.869 105.468 145.869 105.847 145.869 106.606V109.043C145.869 109.802 145.869 110.181 145.722 110.471C145.592 110.726 145.385 110.933 145.13 111.063C144.84 111.21 144.461 111.21 143.703 111.21H139.911C139.152 111.21 138.773 111.21 138.484 111.063C138.229 110.933 138.022 110.726 137.892 110.471C137.744 110.181 137.744 109.802 137.744 109.043V106.606C137.744 105.847 137.744 105.468 137.892 105.179C138.022 104.924 138.229 104.717 138.484 104.587C138.644 104.505 138.833 104.468 139.098 104.452ZM142.125 107.745C142.339 107.631 142.484 107.406 142.484 107.148C142.484 106.774 142.181 106.47 141.807 106.47C141.433 106.47 141.13 106.774 141.13 107.148C141.13 107.406 141.275 107.631 141.488 107.745L141.193 108.926C141.161 109.055 141.258 109.179 141.39 109.179H142.224C142.356 109.179 142.453 109.055 142.421 108.926L142.125 107.745Z" fill="#2DDCCC"/>
<path d="M141.328 116.487L139.437 114.596H144.177L142.286 116.487C142.021 116.751 141.592 116.751 141.328 116.487Z" fill="#292733"/>
<rect x="171.958" y="91.5743" width="16.2503" height="16.2503" rx="4.06257" fill="#292733"/>
<path fill-rule="evenodd" clip-rule="evenodd" d="M178.188 97.6682H178.052C178.052 96.5464 178.962 95.6369 180.084 95.6369C181.205 95.6369 182.115 96.5464 182.115 97.6682H181.979H178.188ZM177.375 97.6812V97.6682C177.375 96.1724 178.588 94.9598 180.084 94.9598C181.579 94.9598 182.792 96.1724 182.792 97.6682V97.6812C183.058 97.6974 183.246 97.7339 183.407 97.8158C183.662 97.9456 183.869 98.1528 183.999 98.4076C184.146 98.6973 184.146 99.0765 184.146 99.8349V102.272C184.146 103.031 184.146 103.41 183.999 103.7C183.869 103.955 183.662 104.162 183.407 104.292C183.117 104.439 182.738 104.439 181.979 104.439H178.188C177.429 104.439 177.05 104.439 176.76 104.292C176.506 104.162 176.298 103.955 176.169 103.7C176.021 103.41 176.021 103.031 176.021 102.272V99.8349C176.021 99.0765 176.021 98.6973 176.169 98.4076C176.298 98.1528 176.506 97.9456 176.76 97.8158C176.921 97.7339 177.11 97.6974 177.375 97.6812ZM180.402 100.974C180.616 100.86 180.761 100.635 180.761 100.377C180.761 100.003 180.458 99.6995 180.084 99.6995C179.71 99.6995 179.406 100.003 179.406 100.377C179.406 100.635 179.552 100.86 179.765 100.974L179.47 102.155C179.438 102.284 179.534 102.408 179.667 102.408H180.5C180.633 102.408 180.73 102.284 180.698 102.155L180.402 100.974Z" fill="#2DDCCC"/>
<rect x="112.283" y="71.2615" width="16.2503" height="16.2503" rx="4.06257" fill="#292733"/>
<path fill-rule="evenodd" clip-rule="evenodd" d="M118.512 77.3554H118.376C118.376 76.2335 119.286 75.3241 120.408 75.3241C121.53 75.3241 122.439 76.2335 122.439 77.3554H122.304H118.512ZM117.699 77.3683V77.3554C117.699 75.8596 118.912 74.647 120.408 74.647C121.904 74.647 123.116 75.8596 123.116 77.3554V77.3683C123.382 77.3846 123.57 77.421 123.731 77.503C123.986 77.6328 124.193 77.8399 124.323 78.0948C124.47 78.3844 124.47 78.7636 124.47 79.5221V81.9596C124.47 82.718 124.47 83.0972 124.323 83.3869C124.193 83.6417 123.986 83.8489 123.731 83.9787C123.441 84.1263 123.062 84.1263 122.304 84.1263H118.512C117.754 84.1263 117.374 84.1263 117.085 83.9787C116.83 83.8489 116.623 83.6417 116.493 83.3869C116.345 83.0972 116.345 82.718 116.345 81.9596V79.5221C116.345 78.7636 116.345 78.3844 116.493 78.0948C116.623 77.8399 116.83 77.6328 117.085 77.503C117.245 77.421 117.434 77.3846 117.699 77.3683ZM120.726 80.6613C120.94 80.5473 121.085 80.3225 121.085 80.0637C121.085 79.6898 120.782 79.3866 120.408 79.3866C120.034 79.3866 119.731 79.6898 119.731 80.0637C119.731 80.3225 119.876 80.5473 120.089 80.6613L119.794 81.8426C119.762 81.9708 119.859 82.095 119.991 82.095H120.825C120.957 82.095 121.054 81.9708 121.022 81.8426L120.726 80.6613Z" fill="#2DDCCC"/>
<rect x="58.0342" y="90.2202" width="16.2503" height="16.2503" rx="4.06257" fill="#292733"/>
<path fill-rule="evenodd" clip-rule="evenodd" d="M64.2636 96.314H64.1282C64.1282 95.1922 65.0376 94.2827 66.1595 94.2827C67.2813 94.2827 68.1908 95.1922 68.1908 96.314H68.0554H64.2636ZM63.4511 96.327V96.314C63.4511 94.8182 64.6637 93.6056 66.1595 93.6056C67.6553 93.6056 68.8679 94.8182 68.8679 96.314V96.327C69.1334 96.3432 69.3218 96.3797 69.4827 96.4616C69.7375 96.5914 69.9446 96.7986 70.0745 97.0534C70.2221 97.3431 70.2221 97.7223 70.2221 98.4807V100.918C70.2221 101.677 70.2221 102.056 70.0745 102.346C69.9446 102.6 69.7375 102.808 69.4827 102.937C69.193 103.085 68.8138 103.085 68.0554 103.085H64.2636C63.5052 103.085 63.126 103.085 62.8363 102.937C62.5815 102.808 62.3744 102.6 62.2445 102.346C62.0969 102.056 62.0969 101.677 62.0969 100.918V98.4807C62.0969 97.7223 62.0969 97.3431 62.2445 97.0534C62.3744 96.7986 62.5815 96.5914 62.8363 96.4616C62.9971 96.3797 63.1855 96.3432 63.4511 96.327ZM66.4782 99.62C66.6915 99.506 66.8366 99.2811 66.8366 99.0224C66.8366 98.6484 66.5334 98.3453 66.1595 98.3453C65.7855 98.3453 65.4824 98.6484 65.4824 99.0224C65.4824 99.2811 65.6275 99.506 65.8408 99.62L65.5455 100.801C65.5134 100.929 65.6104 101.054 65.7426 101.054H66.5764C66.7086 101.054 66.8055 100.929 66.7735 100.801L66.4782 99.62Z" fill="#2DDCCC"/>
<defs>
<filter id="filter0_i_4689_85398" x="68.375" y="52.2826" width="105.411" height="63.9273" filterUnits="userSpaceOnUse" color-interpolation-filters="sRGB">
<feFlood flood-opacity="0" result="BackgroundImageFix"/>
<feBlend mode="normal" in="SourceGraphic" in2="BackgroundImageFix" result="shape"/>
<feColorMatrix in="SourceAlpha" type="matrix" values="0 0 0 0 0 0 0 0 0 0 0 0 0 0 0 0 0 0 127 0" result="hardAlpha"/>
<feOffset dy="0.375"/>
<feGaussianBlur stdDeviation="0.1875"/>
<feComposite in2="hardAlpha" operator="arithmetic" k2="-1" k3="1"/>
<feColorMatrix type="matrix" values="0 0 0 0 1 0 0 0 0 1 0 0 0 0 1 0 0 0 0.25 0"/>
<feBlend mode="normal" in2="shape" result="effect1_innerShadow_4689_85398"/>
</filter>
<filter id="filter1_i_4689_85398" x="35.771" y="79.3867" width="61.6157" height="43.032" filterUnits="userSpaceOnUse" color-interpolation-filters="sRGB">
<feFlood flood-opacity="0" result="BackgroundImageFix"/>
<feBlend mode="normal" in="SourceGraphic" in2="BackgroundImageFix" result="shape"/>
<feColorMatrix in="SourceAlpha" type="matrix" values="0 0 0 0 0 0 0 0 0 0 0 0 0 0 0 0 0 0 127 0" result="hardAlpha"/>
<feOffset dy="0.375"/>
<feGaussianBlur stdDeviation="0.1875"/>
<feComposite in2="hardAlpha" operator="arithmetic" k2="-1" k3="1"/>
<feColorMatrix type="matrix" values="0 0 0 0 1 0 0 0 0 1 0 0 0 0 1 0 0 0 0.25 0"/>
<feBlend mode="normal" in2="shape" result="effect1_innerShadow_4689_85398"/>
</filter>
<filter id="filter2_i_4689_85398" x="169.25" y="82.0951" width="22.3132" height="40.8011" filterUnits="userSpaceOnUse" color-interpolation-filters="sRGB">
<feFlood flood-opacity="0" result="BackgroundImageFix"/>
<feBlend mode="normal" in="SourceGraphic" in2="BackgroundImageFix" result="shape"/>
<feColorMatrix in="SourceAlpha" type="matrix" values="0 0 0 0 0 0 0 0 0 0 0 0 0 0 0 0 0 0 127 0" result="hardAlpha"/>
<feOffset dy="0.375"/>
<feGaussianBlur stdDeviation="0.1875"/>
<feComposite in2="hardAlpha" operator="arithmetic" k2="-1" k3="1"/>
<feColorMatrix type="matrix" values="0 0 0 0 1 0 0 0 0 1 0 0 0 0 1 0 0 0 0.25 0"/>
<feBlend mode="normal" in2="shape" result="effect1_innerShadow_4689_85398"/>
</filter>
<filter id="filter3_i_4689_85398" x="123.747" y="122.159" width="37.2815" height="9.08917" filterUnits="userSpaceOnUse" color-interpolation-filters="sRGB">
<feFlood flood-opacity="0" result="BackgroundImageFix"/>
<feBlend mode="normal" in="SourceGraphic" in2="BackgroundImageFix" result="shape"/>
<feColorMatrix in="SourceAlpha" type="matrix" values="0 0 0 0 0 0 0 0 0 0 0 0 0 0 0 0 0 0 127 0" result="hardAlpha"/>
<feOffset dy="0.77334"/>
<feGaussianBlur stdDeviation="0.38667"/>
<feComposite in2="hardAlpha" operator="arithmetic" k2="-1" k3="1"/>
<feColorMatrix type="matrix" values="0 0 0 0 1 0 0 0 0 1 0 0 0 0 1 0 0 0 0.25 0"/>
<feBlend mode="normal" in2="shape" result="effect1_innerShadow_4689_85398"/>
</filter>
<filter id="filter4_i_4689_85398" x="85.363" y="91.8142" width="20.8328" height="41.0327" filterUnits="userSpaceOnUse" color-interpolation-filters="sRGB">
<feFlood flood-opacity="0" result="BackgroundImageFix"/>
<feBlend mode="normal" in="SourceGraphic" in2="BackgroundImageFix" result="shape"/>
<feColorMatrix in="SourceAlpha" type="matrix" values="0 0 0 0 0 0 0 0 0 0 0 0 0 0 0 0 0 0 127 0" result="hardAlpha"/>
<feOffset dy="0.375"/>
<feGaussianBlur stdDeviation="0.1875"/>
<feComposite in2="hardAlpha" operator="arithmetic" k2="-1" k3="1"/>
<feColorMatrix type="matrix" values="0 0 0 0 1 0 0 0 0 1 0 0 0 0 1 0 0 0 0.25 0"/>
<feBlend mode="normal" in2="shape" result="effect1_innerShadow_4689_85398"/>
</filter>
<radialGradient id="paint0_radial_4689_85398" cx="0" cy="0" r="1" gradientUnits="userSpaceOnUse" gradientTransform="translate(120.189 30.1891) rotate(90) scale(27.4391)">
<stop offset="0.689803" stop-color="#2DDCCC" stop-opacity="0"/>
<stop offset="1" stop-color="#2DDCCC"/>
</radialGradient>
<radialGradient id="paint1_radial_4689_85398" cx="0" cy="0" r="1" gradientUnits="userSpaceOnUse" gradientTransform="translate(120.189 30.1896) rotate(90) scale(18.3932)">
<stop offset="0.689803" stop-color="#2DDCCC" stop-opacity="0"/>
<stop offset="1" stop-color="#2DDCCC"/>
</radialGradient>
<linearGradient id="paint2_linear_4689_85398" x1="121.021" y1="14.8267" x2="121.546" y2="32.6884" gradientUnits="userSpaceOnUse">
<stop offset="0.988738" stop-color="#6D4AFF"/>
</linearGradient>
<linearGradient id="paint3_linear_4689_85398" x1="121.124" y1="17.2994" x2="116.758" y2="36.0959" gradientUnits="userSpaceOnUse">
<stop offset="0.47989" stop-color="#24ECC6" stop-opacity="0"/>
<stop offset="0.994421" stop-color="#24ECC6"/>
</linearGradient>
<linearGradient id="paint4_linear_4689_85398" x1="122.568" y1="38.1554" x2="112.888" y2="21.6022" gradientUnits="userSpaceOnUse">
<stop offset="0.0660125" stop-color="#ABFFEF"/>
<stop offset="0.44988" stop-color="#CAC9FF"/>
<stop offset="1" stop-color="#6D4AFF"/>
</linearGradient>
<linearGradient id="paint5_linear_4689_85398" x1="148.212" y1="142.966" x2="82.4356" y2="77.1899" gradientUnits="userSpaceOnUse">
<stop stop-color="white"/>
<stop offset="0.553424" stop-color="white" stop-opacity="0"/>
</linearGradient>
<linearGradient id="paint6_linear_4689_85398" x1="130.717" y1="38.6024" x2="115.213" y2="97.2098" gradientUnits="userSpaceOnUse">
<stop stop-color="#2DDCCC"/>
<stop offset="1" stop-color="#35333E"/>
</linearGradient>
<linearGradient id="paint7_linear_4689_85398" x1="86.0932" y1="126.262" x2="85.6969" y2="120.168" gradientUnits="userSpaceOnUse">
<stop stop-color="white"/>
<stop offset="0.553424" stop-color="white" stop-opacity="0"/>
</linearGradient>
<linearGradient id="paint8_linear_4689_85398" x1="82.4377" y1="140.254" x2="38.7068" y2="102.171" gradientUnits="userSpaceOnUse">
<stop stop-color="white"/>
<stop offset="0.553424" stop-color="white" stop-opacity="0"/>
</linearGradient>
<linearGradient id="paint9_linear_4689_85398" x1="90.8749" y1="61.25" x2="56.3793" y2="123.841" gradientUnits="userSpaceOnUse">
<stop stop-color="#2DDCCC"/>
<stop offset="1" stop-color="#4A4658"/>
</linearGradient>
<linearGradient id="paint10_linear_4689_85398" x1="186.15" y1="139.78" x2="161.079" y2="131.437" gradientUnits="userSpaceOnUse">
<stop stop-color="white"/>
<stop offset="0.553424" stop-color="white" stop-opacity="0"/>
</linearGradient>
<linearGradient id="paint11_linear_4689_85398" x1="190.25" y1="72.125" x2="156.631" y2="98.1026" gradientUnits="userSpaceOnUse">
<stop stop-color="#2DDCCC"/>
<stop offset="1" stop-color="#4A4658"/>
</linearGradient>
<linearGradient id="paint12_linear_4689_85398" x1="145.876" y1="119.99" x2="144.917" y2="129.015" gradientUnits="userSpaceOnUse">
<stop stop-color="#2DDCCC"/>
<stop offset="1" stop-color="#4A4658"/>
</linearGradient>
<linearGradient id="paint13_linear_4689_85398" x1="101.141" y1="149.829" x2="77.4073" y2="142.497" gradientUnits="userSpaceOnUse">
<stop stop-color="white"/>
<stop offset="0.553424" stop-color="white" stop-opacity="0"/>
</linearGradient>
<linearGradient id="paint14_linear_4689_85398" x1="105.5" y1="71.75" x2="66.8055" y2="105.407" gradientUnits="userSpaceOnUse">
<stop stop-color="#2DDCCC"/>
<stop offset="1" stop-color="#4A4658"/>
</linearGradient>
</defs>
</svg>
