<svg width="241" height="136" viewBox="0 0 241 136" fill="none" xmlns="http://www.w3.org/2000/svg">
<g clip-path="url(#clip0_4689_83381)">
<g filter="url(#filter0_i_4689_83381)">
<path d="M54.5 106.566L54.5 53.516C54.5 47.0481 60.0666 41.75 66.9345 41.75L180.888 41.75C187.683 41.75 193.25 47.0481 193.25 53.516L193.25 106.566C193.25 113.103 187.683 118.332 180.888 118.332L66.9345 118.332C60.0666 118.401 54.5 113.103 54.5 106.566Z" fill="#3B3747"/>
<path d="M54.5 106.566L54.5 53.516C54.5 47.0481 60.0666 41.75 66.9345 41.75L180.888 41.75C187.683 41.75 193.25 47.0481 193.25 53.516L193.25 106.566C193.25 113.103 187.683 118.332 180.888 118.332L66.9345 118.332C60.0666 118.401 54.5 113.103 54.5 106.566Z" fill="url(#paint0_linear_4689_83381)" fill-opacity="0.2"/>
</g>
<path d="M188.75 105.625L188.75 98.3945L188.678 61.6882L188.678 54.4582C188.678 49.9394 184.839 46.2549 180.131 46.2549L67.5565 46.2548C62.8485 46.2548 59.0097 49.9394 59.0097 54.4582L59.0097 105.625C59.0097 110.143 62.8485 113.828 67.5565 113.828L180.203 113.828C184.911 113.758 188.75 110.143 188.75 105.625Z" fill="url(#paint1_linear_4689_83381)"/>
<g opacity="0.4" filter="url(#filter1_f_4689_83381)">
<path d="M103.104 85.2302C103.104 74.0355 112.179 64.9603 123.374 64.9603V64.9603C134.568 64.9603 143.644 74.0355 143.644 85.2302V85.2302C143.644 96.4249 134.568 105.5 123.374 105.5V105.5C112.179 105.5 103.104 96.4249 103.104 85.2302V85.2302Z" fill="#1C1B24"/>
</g>
<g filter="url(#filter2_i_4689_83381)">
<path d="M103.104 76.27C103.104 65.0753 112.179 56.0001 123.374 56.0001V56.0001C134.568 56.0001 143.643 65.0753 143.643 76.27V76.27C143.643 87.4647 134.568 96.5399 123.374 96.5399V96.5399C112.179 96.5399 103.104 87.4647 103.104 76.27V76.27Z" fill="url(#paint2_linear_4689_83381)"/>
</g>
<path d="M118.752 83.675V68.8626C118.752 67.9276 119.796 67.3724 120.571 67.8955L131.543 75.3017C132.229 75.7643 132.229 76.7733 131.543 77.2359L120.571 84.6421C119.796 85.1652 118.752 84.6099 118.752 83.675Z" fill="white"/>
<rect x="65.75" y="105.5" width="117" height="3" rx="1.5" fill="#ADA9BD"/>
<rect x="65" y="105.5" width="94.5" height="3" rx="1.5" fill="url(#paint3_linear_4689_83381)"/>
<circle cx="159.5" cy="107" r="3" fill="#26EDC6"/>
<circle cx="159.5" cy="107" r="1.5" fill="white"/>
</g>
<mask id="mask0_4689_83381" style="mask-type:alpha" maskUnits="userSpaceOnUse" x="54" y="41" width="140" height="78">
<path d="M54.5 106.566L54.5 53.516C54.5 47.0481 60.0666 41.75 66.9345 41.75L180.888 41.75C187.683 41.75 193.25 47.0481 193.25 53.516L193.25 106.566C193.25 113.103 187.683 118.332 180.888 118.332L66.9345 118.332C60.0666 118.401 54.5 113.103 54.5 106.566Z" fill="#3B3747"/>
<path d="M54.5 106.566L54.5 53.516C54.5 47.0481 60.0666 41.75 66.9345 41.75L180.888 41.75C187.683 41.75 193.25 47.0481 193.25 53.516L193.25 106.566C193.25 113.103 187.683 118.332 180.888 118.332L66.9345 118.332C60.0666 118.401 54.5 113.103 54.5 106.566Z" fill="url(#paint4_linear_4689_83381)" fill-opacity="0.2"/>
</mask>
<g mask="url(#mask0_4689_83381)">
<g filter="url(#filter3_f_4689_83381)">
<path d="M101 91.25L102.5 93.125L104.375 89.375L103.25 89L102.5 90.875L101 91.25Z" fill="#1C1B24" fill-opacity="0.8"/>
<path fill-rule="evenodd" clip-rule="evenodd" d="M99.5001 94.25L99.3113 93.4946L95.9045 95.6354C95.1093 96.1351 94.5584 96.8766 94.2871 97.7044C93.5339 97.2997 92.6422 97.1408 91.7367 97.3126L87.4399 98.1279C85.9776 98.4054 84.8648 99.4721 84.4589 100.803C83.1024 99.7571 81.1622 99.7084 79.7398 100.802L76.2722 103.467C75.6617 103.936 75.2299 104.552 74.9883 105.226C74.1925 104.794 73.2423 104.637 72.2895 104.853L68.0237 105.817C66.3023 106.206 65.1107 107.687 65.0133 109.365C63.986 109.145 62.8734 109.342 61.952 110.002L58.3959 112.548C56.6585 113.791 56.2584 116.208 57.5021 117.946C58.7459 119.683 61.1625 120.083 62.8999 118.839L66.456 116.294C67.444 115.586 67.9995 114.5 68.0662 113.374C68.5985 113.489 69.1634 113.492 69.7293 113.364L73.9952 112.4C75.3328 112.098 76.3506 111.136 76.7836 109.935C78.086 110.641 79.7369 110.563 80.9874 109.602L84.4549 106.937C85.1204 106.425 85.5736 105.74 85.7995 104.993C86.6442 105.644 87.7525 105.944 88.8825 105.73L93.1792 104.915C94.6113 104.643 95.7082 103.614 96.1342 102.321C97.3193 102.955 98.8019 102.953 100.021 102.187L103.359 100.09L102.5 99.875V98.6426L99.1265 100.763C98.2345 101.323 97.0933 101.16 96.39 100.431L98.548 99.4973C98.9743 99.3129 99.1705 98.8178 98.9861 98.3915C98.8017 97.9652 98.3066 97.7691 97.8803 97.9535L95.7766 98.8633C95.7928 98.1537 96.1536 97.4656 96.7995 97.0596L99.6172 95.289L98.7501 95L99.5001 94.25ZM94.0473 99.6113C93.5523 99.0887 92.8099 98.821 92.0503 98.9652L87.7535 99.7805C86.812 99.9592 86.1268 100.717 85.9966 101.615L87.8085 100.831C88.2349 100.647 88.7299 100.843 88.9143 101.269C89.0987 101.695 88.9026 102.191 88.4763 102.375L86.4268 103.261C86.9137 103.894 87.7308 104.236 88.5689 104.077L92.8656 103.262C93.8906 103.067 94.6117 102.187 94.6439 101.186L92.6813 102.035C92.255 102.219 91.7599 102.023 91.5755 101.597C91.3912 101.17 91.5873 100.675 92.0136 100.491L94.0473 99.6113ZM81.9419 103.369L83.8397 102.548L83.8311 102.537C83.0952 101.579 81.7224 101.399 80.7648 102.135L77.2973 104.8C76.7181 105.245 76.4235 105.924 76.444 106.602L78.7055 105.624C79.1318 105.439 79.6269 105.636 79.8113 106.062C79.9957 106.488 79.7996 106.983 79.3732 107.168L77.1388 108.134C77.9064 108.851 79.102 108.929 79.9623 108.268L83.4299 105.603C83.8954 105.245 84.177 104.737 84.259 104.199L82.6096 104.912C82.1833 105.097 81.6882 104.901 81.5038 104.474C81.3194 104.048 81.5156 103.553 81.9419 103.369ZM74.8226 107.226C74.3134 106.616 73.4887 106.306 72.6603 106.494L68.3945 107.458C67.2165 107.724 66.4774 108.895 66.7436 110.072C66.7595 110.143 66.7787 110.212 66.8009 110.279C66.8377 110.312 66.8739 110.347 66.9095 110.381L68.9918 109.041C69.3823 108.789 69.9028 108.902 70.1542 109.293C70.4056 109.683 70.2929 110.204 69.9023 110.455L68.0812 111.628C68.4742 111.781 68.9159 111.823 69.3585 111.723L73.6244 110.759C74.5382 110.553 75.188 109.802 75.3091 108.925L73.5066 109.705C73.0803 109.889 72.5852 109.693 72.4008 109.267C72.2164 108.841 72.4125 108.346 72.8388 108.161L74.8362 107.297C74.8314 107.274 74.8269 107.25 74.8226 107.226ZM65.4238 111.338L63.2967 112.707C62.9062 112.959 62.7934 113.479 63.0448 113.87C63.2963 114.26 63.8167 114.373 64.2073 114.122L66.3529 112.74C66.506 113.551 66.1917 114.414 65.4768 114.926L61.9207 117.472C60.9388 118.175 59.5728 117.948 58.8698 116.966C58.1668 115.984 58.393 114.618 59.375 113.915L62.9311 111.37C63.6924 110.825 64.6845 110.838 65.4195 111.329L65.4238 111.338Z" fill="#1C1B24" fill-opacity="0.8"/>
<path d="M105.356 98.9784L105.197 100.027L107.124 100.399L107.037 98.6927L105.356 98.9784Z" fill="#1C1B24" fill-opacity="0.8"/>
<path d="M105.075 95.2969L105.595 95.1708L106.05 95.9008L105.27 96.267L105.075 95.2969Z" fill="#1C1B24" fill-opacity="0.8"/>
<path d="M103.25 94.625L101.75 96.875H102.875L103.25 94.625Z" fill="#1C1B24" fill-opacity="0.8"/>
</g>
<g filter="url(#filter4_f_4689_83381)">
<path d="M149.123 75.3126L147.623 73.4376L145.748 77.1876L146.873 77.5626L147.623 75.6876L149.123 75.3126Z" fill="#1C1B24" fill-opacity="0.8"/>
<path fill-rule="evenodd" clip-rule="evenodd" d="M150.623 72.3126L150.812 73.068L154.219 70.9272C155.014 70.4275 155.565 69.686 155.836 68.8582C156.59 69.2629 157.481 69.4218 158.387 69.25L162.684 68.4346C164.146 68.1572 165.259 67.0905 165.665 65.7591C167.021 66.8055 168.961 66.8542 170.384 65.761L173.851 63.0959C174.462 62.6267 174.894 62.0111 175.135 61.3362C175.931 61.7687 176.881 61.9251 177.834 61.7098L182.1 60.7457C183.821 60.3567 185.013 58.876 185.11 57.198C186.138 57.4175 187.25 57.2203 188.172 56.5606L191.728 54.0149C193.465 52.7711 193.865 50.3544 192.621 48.6171C191.378 46.8797 188.961 46.4796 187.224 47.7233L183.668 50.2691C182.68 50.9764 182.124 52.0629 182.057 53.1882C181.525 53.0739 180.96 53.0706 180.394 53.1985L176.128 54.1626C174.791 54.4649 173.773 55.4265 173.34 56.6275C172.037 55.9214 170.387 55.9999 169.136 56.961L165.669 59.6261C165.003 60.1376 164.55 60.8229 164.324 61.5694C163.479 60.9188 162.371 60.6184 161.241 60.8328L156.944 61.6481C155.512 61.9198 154.415 62.9486 153.989 64.2415C152.804 63.6073 151.322 63.6094 150.102 64.3758L146.765 66.473L147.623 66.6876L147.623 67.92L150.997 65.8C151.889 65.2395 153.03 65.4023 153.734 66.1319L151.576 67.0653C151.149 67.2497 150.953 67.7447 151.137 68.1711C151.322 68.5974 151.817 68.7935 152.243 68.6091L154.347 67.6993C154.331 68.4089 153.97 69.097 153.324 69.503L150.506 71.2736L151.373 71.5626L150.623 72.3126ZM156.076 66.9513C156.571 67.4739 157.314 67.7415 158.073 67.5974L162.37 66.7821C163.312 66.6034 163.997 65.8459 164.127 64.9478L162.315 65.7315C161.889 65.9159 161.394 65.7198 161.209 65.2934C161.025 64.8671 161.221 64.372 161.647 64.1876L163.697 63.3012C163.21 62.6684 162.393 62.3263 161.555 62.4853L157.258 63.3007C156.233 63.4952 155.512 64.3756 155.48 65.3767L157.442 64.5278C157.869 64.3435 158.364 64.5396 158.548 64.9659C158.732 65.3922 158.536 65.8873 158.11 66.0717L156.076 66.9513ZM168.182 63.1941L166.284 64.0149L166.292 64.0261C167.028 64.9836 168.401 65.1632 169.359 64.4273L172.826 61.7622C173.405 61.3171 173.7 60.639 173.68 59.9607L171.418 60.9388C170.992 61.1232 170.497 60.9271 170.312 60.5007C170.128 60.0744 170.324 59.5793 170.75 59.3949L172.985 58.4285C172.217 57.7113 171.022 57.6335 170.161 58.2947L166.694 60.9598C166.228 61.3175 165.947 61.8257 165.865 62.3636L167.514 61.6502C167.94 61.4658 168.435 61.6619 168.62 62.0883C168.804 62.5146 168.608 63.0097 168.182 63.1941ZM175.301 59.3363C175.81 59.9464 176.635 60.2563 177.463 60.0691L181.729 59.105C182.907 58.8388 183.646 57.6681 183.38 56.4901C183.364 56.4196 183.345 56.3508 183.323 56.2836C183.286 56.2502 183.25 56.2161 183.214 56.1811L181.132 57.5217C180.741 57.7731 180.221 57.6603 179.969 57.2698C179.718 56.8792 179.831 56.3588 180.221 56.1074L182.042 54.935C181.649 54.7811 181.208 54.7392 180.765 54.8392L176.499 55.8033C175.585 56.0098 174.936 56.7607 174.814 57.6371L176.617 56.8575C177.043 56.6731 177.538 56.8692 177.723 57.2956C177.907 57.7219 177.711 58.217 177.285 58.4014L175.287 59.2652C175.292 59.2889 175.297 59.3126 175.301 59.3363ZM184.7 55.2247L186.827 53.8553C187.217 53.6038 187.33 53.0834 187.079 52.6928C186.827 52.3023 186.307 52.1895 185.916 52.441L183.771 53.8223C183.617 53.0117 183.932 52.1486 184.647 51.6368L188.203 49.091C189.185 48.3881 190.551 48.6142 191.254 49.5962C191.957 50.5782 191.731 51.9441 190.749 52.6471L187.192 55.1929C186.431 55.7379 185.439 55.7244 184.704 55.2332L184.7 55.2247Z" fill="#1C1B24" fill-opacity="0.8"/>
<path d="M144.767 67.5842L144.926 66.5355L143 66.1637L143.086 67.8699L144.767 67.5842Z" fill="#1C1B24" fill-opacity="0.8"/>
<path d="M145.048 71.2657L144.528 71.3918L144.074 70.6617L144.854 70.2956L145.048 71.2657Z" fill="#1C1B24" fill-opacity="0.8"/>
<path d="M146.873 71.9376L148.373 69.6876L147.248 69.6876L146.873 71.9376Z" fill="#1C1B24" fill-opacity="0.8"/>
</g>
<g opacity="0.3" filter="url(#filter5_f_4689_83381)">
<path d="M41.75 32H84.6972V74.9472H41.75V32Z" fill="#292733"/>
</g>
</g>
<g filter="url(#filter6_ii_4689_83381)">
<rect x="49.9832" y="113.89" width="11.4156" height="6.68586" rx="3.02773" transform="rotate(-35.5983 49.9832 113.89)" stroke="#A7A4B5" stroke-width="1.68207"/>
<rect x="59.5488" y="105.538" width="11.4156" height="6.68586" rx="3.02773" transform="rotate(-12.7346 59.5488 105.538)" stroke="#A7A4B5" stroke-width="1.68207"/>
<line x1="57.9838" y1="112.292" x2="64.2581" y2="108.253" stroke="#A7A4B5" stroke-width="1.68207" stroke-linecap="round"/>
<line x1="68.1569" y1="107.441" x2="74.6273" y2="104.643" stroke="#A7A4B5" stroke-width="1.68207" stroke-linecap="round"/>
<rect x="69.4065" y="104.143" width="11.4156" height="6.68586" rx="3.02773" transform="rotate(-37.5449 69.4065 104.143)" stroke="#A7A4B5" stroke-width="1.68207"/>
<rect x="80.4946" y="97.1151" width="11.4156" height="6.68586" rx="3.02773" transform="rotate(-10.7445 80.4946 97.1151)" stroke="#A7A4B5" stroke-width="1.68207"/>
<path fill-rule="evenodd" clip-rule="evenodd" d="M96.4606 90.6547L96.6649 91.4717L95.8538 92.2829L96.623 92.5393L93.4045 94.5618C92.382 95.2044 92.074 96.5542 92.7165 97.5768L93.052 98.1105C93.6945 99.1331 95.0444 99.4411 96.0669 98.7985L99.9093 96.3839V97.555L100.838 97.7871L96.9619 100.223C95.1528 101.36 92.7646 100.815 91.6277 99.0055L91.2923 98.4718C90.1555 96.6626 90.7004 94.2745 92.5095 93.1376L96.4606 90.6547Z" fill="#A7A4B5"/>
<line x1="78.0015" y1="102.258" x2="84.4719" y2="99.4594" stroke="#A7A4B5" stroke-width="1.68207" stroke-linecap="round"/>
<line x1="88.8941" y1="99.1456" x2="95.3645" y2="96.347" stroke="#A7A4B5" stroke-width="1.68207" stroke-linecap="round"/>
<path d="M98.2871 88.2271L99.9093 90.2549L101.937 86.1994L100.72 85.7938L99.9093 87.8216L98.2871 88.2271Z" fill="#A7A4B5"/>
<path d="M102.826 97.7194L102.998 96.5852L104.816 96.2762L104.909 98.1214L102.826 97.7194Z" fill="#A7A4B5"/>
<path d="M102.695 92.6041L103.257 92.4677L103.748 93.2572L102.905 93.6532L102.695 92.6041Z" fill="#A7A4B5"/>
<path d="M99.0981 94.3105L100.72 91.8772L100.315 94.3105H99.0981Z" fill="#A7A4B5"/>
</g>
<g filter="url(#filter7_ii_4689_83381)">
<rect x="198.698" y="45.3599" width="11.4156" height="6.68586" rx="3.02773" transform="rotate(144.402 198.698 45.3599)" stroke="#A7A4B5" stroke-width="1.68207"/>
<rect x="189.133" y="53.712" width="11.4156" height="6.68586" rx="3.02773" transform="rotate(167.265 189.133 53.712)" stroke="#A7A4B5" stroke-width="1.68207"/>
<line x1="190.698" y1="46.958" x2="184.423" y2="50.9973" stroke="#A7A4B5" stroke-width="1.68207" stroke-linecap="round"/>
<line x1="180.525" y1="51.8089" x2="174.054" y2="54.6074" stroke="#A7A4B5" stroke-width="1.68207" stroke-linecap="round"/>
<rect x="179.275" y="55.1069" width="11.4156" height="6.68586" rx="3.02773" transform="rotate(142.455 179.275 55.1069)" stroke="#A7A4B5" stroke-width="1.68207"/>
<rect x="168.187" y="62.1349" width="11.4156" height="6.68586" rx="3.02773" transform="rotate(169.256 168.187 62.1349)" stroke="#A7A4B5" stroke-width="1.68207"/>
<path fill-rule="evenodd" clip-rule="evenodd" d="M152.221 68.5953L152.017 67.7783L152.828 66.9672L152.059 66.7108L155.277 64.6882C156.3 64.0456 156.608 62.6958 155.965 61.6733L155.63 61.1395C154.987 60.117 153.637 59.8089 152.615 60.4515L148.772 62.8661L148.772 61.695L147.844 61.4629L151.72 59.0273C153.529 57.8904 155.917 58.4354 157.054 60.2445L157.389 60.7783C158.526 62.5874 157.981 64.9756 156.172 66.1124L152.221 68.5953Z" fill="#A7A4B5"/>
<line x1="170.68" y1="56.992" x2="164.21" y2="59.7906" stroke="#A7A4B5" stroke-width="1.68207" stroke-linecap="round"/>
<line x1="159.788" y1="60.1044" x2="153.317" y2="62.903" stroke="#A7A4B5" stroke-width="1.68207" stroke-linecap="round"/>
<path d="M150.395 71.0229L148.772 68.9951L146.745 73.0506L147.961 73.4562L148.772 71.4284L150.395 71.0229Z" fill="#A7A4B5"/>
<path d="M145.855 61.5306L145.684 62.6648L143.866 62.9738L143.772 61.1285L145.855 61.5306Z" fill="#A7A4B5"/>
<path d="M145.987 66.6459L145.425 66.7823L144.934 65.9928L145.777 65.5968L145.987 66.6459Z" fill="#A7A4B5"/>
<path d="M149.583 64.9395L147.961 67.3728L148.367 64.9395L149.583 64.9395Z" fill="#A7A4B5"/>
</g>
<path d="M35.75 39.2236C35.75 27.3641 45.3641 17.75 57.2236 17.75V17.75C69.0832 17.75 78.6972 27.3641 78.6972 39.2236V55.5968C78.6972 58.4137 76.4137 60.6972 73.5968 60.6972H57.2236C45.3641 60.6972 35.75 51.0832 35.75 39.2236V39.2236Z" fill="url(#paint5_linear_4689_83381)"/>
<path fill-rule="evenodd" clip-rule="evenodd" d="M58.5801 34.9027C58.5801 31.8256 56.0857 29.3312 53.0086 29.3312C49.9316 29.3312 47.4372 31.8256 47.4372 34.9027C47.4372 35.0837 47.5839 35.2304 47.7649 35.2304H49.0758C49.2568 35.2304 49.4036 35.0837 49.4036 34.9027C49.4036 32.9116 51.0176 31.2976 53.0086 31.2976C54.9997 31.2976 56.6137 32.9116 56.6137 34.9027V37.5245H54.975C54.251 37.5245 53.6641 38.1115 53.6641 38.8355V48.6675C53.6641 49.3915 54.251 49.9784 54.975 49.9784H66.7734C67.4974 49.9784 68.0844 49.3915 68.0844 48.6675V38.8355C68.0844 38.1115 67.4974 37.5245 66.7734 37.5245H58.5801V34.9027ZM61.2436 41C60.4139 41 59.7501 41.6638 59.7501 42.4936C59.7501 43.0626 60.0583 43.5604 60.5324 43.7975L60.0227 45.9929C59.9682 46.228 60.1467 46.4527 60.388 46.4527H62.0992C62.3406 46.4527 62.5191 46.228 62.4645 45.9929L61.9548 43.7975C62.429 43.5367 62.7372 43.0626 62.7372 42.4936C62.7372 41.6638 62.0734 41 61.2436 41Z" fill="white"/>
<defs>
<filter id="filter0_i_4689_83381" x="53.75" y="41.75" width="139.5" height="77.4828" filterUnits="userSpaceOnUse" color-interpolation-filters="sRGB">
<feFlood flood-opacity="0" result="BackgroundImageFix"/>
<feBlend mode="normal" in="SourceGraphic" in2="BackgroundImageFix" result="shape"/>
<feColorMatrix in="SourceAlpha" type="matrix" values="0 0 0 0 0 0 0 0 0 0 0 0 0 0 0 0 0 0 127 0" result="hardAlpha"/>
<feOffset dx="-0.75" dy="0.9"/>
<feGaussianBlur stdDeviation="0.450487"/>
<feComposite in2="hardAlpha" operator="arithmetic" k2="-1" k3="1"/>
<feColorMatrix type="matrix" values="0 0 0 0 1 0 0 0 0 1 0 0 0 0 1 0 0 0 0.4 0"/>
<feBlend mode="normal" in2="shape" result="effect1_innerShadow_4689_83381"/>
</filter>
<filter id="filter1_f_4689_83381" x="90.5009" y="52.3573" width="65.7457" height="65.7458" filterUnits="userSpaceOnUse" color-interpolation-filters="sRGB">
<feFlood flood-opacity="0" result="BackgroundImageFix"/>
<feBlend mode="normal" in="SourceGraphic" in2="BackgroundImageFix" result="shape"/>
<feGaussianBlur stdDeviation="6.3015" result="effect1_foregroundBlur_4689_83381"/>
</filter>
<filter id="filter2_i_4689_83381" x="103.104" y="56.0001" width="40.5397" height="42.0397" filterUnits="userSpaceOnUse" color-interpolation-filters="sRGB">
<feFlood flood-opacity="0" result="BackgroundImageFix"/>
<feBlend mode="normal" in="SourceGraphic" in2="BackgroundImageFix" result="shape"/>
<feColorMatrix in="SourceAlpha" type="matrix" values="0 0 0 0 0 0 0 0 0 0 0 0 0 0 0 0 0 0 127 0" result="hardAlpha"/>
<feOffset dy="1.5"/>
<feGaussianBlur stdDeviation="0.75"/>
<feComposite in2="hardAlpha" operator="arithmetic" k2="-1" k3="1"/>
<feColorMatrix type="matrix" values="0 0 0 0 1 0 0 0 0 1 0 0 0 0 1 0 0 0 0.4 0"/>
<feBlend mode="normal" in2="shape" result="effect1_innerShadow_4689_83381"/>
</filter>
<filter id="filter3_f_4689_83381" x="49.2788" y="81.5" width="65.3447" height="45.5626" filterUnits="userSpaceOnUse" color-interpolation-filters="sRGB">
<feFlood flood-opacity="0" result="BackgroundImageFix"/>
<feBlend mode="normal" in="SourceGraphic" in2="BackgroundImageFix" result="shape"/>
<feGaussianBlur stdDeviation="3.75" result="effect1_foregroundBlur_4689_83381"/>
</filter>
<filter id="filter4_f_4689_83381" x="135.5" y="39.5" width="65.3447" height="45.5626" filterUnits="userSpaceOnUse" color-interpolation-filters="sRGB">
<feFlood flood-opacity="0" result="BackgroundImageFix"/>
<feBlend mode="normal" in="SourceGraphic" in2="BackgroundImageFix" result="shape"/>
<feGaussianBlur stdDeviation="3.75" result="effect1_foregroundBlur_4689_83381"/>
</filter>
<filter id="filter5_f_4689_83381" x="34.2192" y="24.4692" width="58.0089" height="58.0089" filterUnits="userSpaceOnUse" color-interpolation-filters="sRGB">
<feFlood flood-opacity="0" result="BackgroundImageFix"/>
<feBlend mode="normal" in="SourceGraphic" in2="BackgroundImageFix" result="shape"/>
<feGaussianBlur stdDeviation="3.76541" result="effect1_foregroundBlur_4689_83381"/>
</filter>
<filter id="filter6_ii_4689_83381" x="50.3385" y="85.0438" width="54.5709" height="33.927" filterUnits="userSpaceOnUse" color-interpolation-filters="sRGB">
<feFlood flood-opacity="0" result="BackgroundImageFix"/>
<feBlend mode="normal" in="SourceGraphic" in2="BackgroundImageFix" result="shape"/>
<feColorMatrix in="SourceAlpha" type="matrix" values="0 0 0 0 0 0 0 0 0 0 0 0 0 0 0 0 0 0 127 0" result="hardAlpha"/>
<feOffset dy="-0.75"/>
<feGaussianBlur stdDeviation="0.375"/>
<feComposite in2="hardAlpha" operator="arithmetic" k2="-1" k3="1"/>
<feColorMatrix type="matrix" values="0 0 0 0 0 0 0 0 0 0 0 0 0 0 0 0 0 0 0.15 0"/>
<feBlend mode="normal" in2="shape" result="effect1_innerShadow_4689_83381"/>
<feColorMatrix in="SourceAlpha" type="matrix" values="0 0 0 0 0 0 0 0 0 0 0 0 0 0 0 0 0 0 127 0" result="hardAlpha"/>
<feOffset dy="0.75"/>
<feComposite in2="hardAlpha" operator="arithmetic" k2="-1" k3="1"/>
<feColorMatrix type="matrix" values="0 0 0 0 1 0 0 0 0 1 0 0 0 0 1 0 0 0 0.35 0"/>
<feBlend mode="normal" in2="effect1_innerShadow_4689_83381" result="effect2_innerShadow_4689_83381"/>
</filter>
<filter id="filter7_ii_4689_83381" x="143.772" y="39.5288" width="54.5709" height="33.9274" filterUnits="userSpaceOnUse" color-interpolation-filters="sRGB">
<feFlood flood-opacity="0" result="BackgroundImageFix"/>
<feBlend mode="normal" in="SourceGraphic" in2="BackgroundImageFix" result="shape"/>
<feColorMatrix in="SourceAlpha" type="matrix" values="0 0 0 0 0 0 0 0 0 0 0 0 0 0 0 0 0 0 127 0" result="hardAlpha"/>
<feOffset dy="-0.75"/>
<feGaussianBlur stdDeviation="0.375"/>
<feComposite in2="hardAlpha" operator="arithmetic" k2="-1" k3="1"/>
<feColorMatrix type="matrix" values="0 0 0 0 0 0 0 0 0 0 0 0 0 0 0 0 0 0 0.15 0"/>
<feBlend mode="normal" in2="shape" result="effect1_innerShadow_4689_83381"/>
<feColorMatrix in="SourceAlpha" type="matrix" values="0 0 0 0 0 0 0 0 0 0 0 0 0 0 0 0 0 0 127 0" result="hardAlpha"/>
<feOffset dy="0.75"/>
<feComposite in2="hardAlpha" operator="arithmetic" k2="-1" k3="1"/>
<feColorMatrix type="matrix" values="0 0 0 0 1 0 0 0 0 1 0 0 0 0 1 0 0 0 0.35 0"/>
<feBlend mode="normal" in2="effect1_innerShadow_4689_83381" result="effect2_innerShadow_4689_83381"/>
</filter>
<linearGradient id="paint0_linear_4689_83381" x1="-4.73388" y1="99.7526" x2="23.8996" y2="13.7062" gradientUnits="userSpaceOnUse">
<stop stop-color="white"/>
<stop offset="0.553424" stop-color="white" stop-opacity="0"/>
</linearGradient>
<linearGradient id="paint1_linear_4689_83381" x1="272.005" y1="-52.375" x2="38.1091" y2="1.24977" gradientUnits="userSpaceOnUse">
<stop stop-color="#A7A4B5"/>
<stop offset="1" stop-color="#4A4658"/>
</linearGradient>
<linearGradient id="paint2_linear_4689_83381" x1="125.323" y1="42.3569" x2="136.627" y2="94.201" gradientUnits="userSpaceOnUse">
<stop stop-color="#ECAAFF"/>
<stop offset="1" stop-color="#6A48F6"/>
</linearGradient>
<linearGradient id="paint3_linear_4689_83381" x1="65" y1="108.5" x2="65.9812" y2="98.6856" gradientUnits="userSpaceOnUse">
<stop stop-color="#8A6EFF"/>
<stop offset="1" stop-color="#25ECC6"/>
</linearGradient>
<linearGradient id="paint4_linear_4689_83381" x1="-4.73388" y1="99.7526" x2="23.8997" y2="13.7062" gradientUnits="userSpaceOnUse">
<stop stop-color="white"/>
<stop offset="0.553424" stop-color="white" stop-opacity="0"/>
</linearGradient>
<linearGradient id="paint5_linear_4689_83381" x1="61.8251" y1="17.75" x2="39.4666" y2="66.8915" gradientUnits="userSpaceOnUse">
<stop stop-color="#FFD66C"/>
<stop offset="1" stop-color="#FF8E4F"/>
</linearGradient>
<clipPath id="clip0_4689_83381">
<rect width="76.5828" height="138.75" fill="white" transform="translate(193.25 41.75) rotate(90)"/>
</clipPath>
</defs>
</svg>
